<svg width="36" height="36" viewBox="0 0 36 36" fill="none" xmlns="http://www.w3.org/2000/svg">
<path d="M26.8875 1.125L19.8 11.8125H23.3438L30.4313 1.125H26.8875Z" fill="#428BC1"/>
<path d="M23.3437 1.125L16.2 11.8125H19.8L26.8875 1.125H23.3437Z" fill="#E8E8E8"/>
<path d="M19.8 1.125L12.6562 11.8125H16.2L23.3438 1.125H19.8Z" fill="#ED4C5C"/>
<path d="M11.475 9.44995C11.1375 9.44995 10.8562 9.7312 10.8562 10.0687V15.4125C10.8562 15.75 11.1375 16.0312 11.475 16.0312H24.525C24.8625 16.0312 25.1437 15.75 25.1437 15.4125V10.0687C25.1437 9.7312 24.8625 9.44995 24.525 9.44995H11.475ZM23.9062 13.5562C23.9062 13.8937 23.625 14.175 23.2875 14.175H12.6C12.2625 14.175 11.9812 13.8937 11.9812 13.5562V11.1937C11.9812 10.8562 12.2625 10.575 12.6 10.575H23.2875C23.625 10.575 23.9062 10.8562 23.9062 11.1937V13.5562Z" fill="#FFC200"/>
<path d="M12.6563 11.8125H16.2001L9.1126 1.125H5.56885L12.6563 11.8125Z" fill="#ED4C5C"/>
<path d="M16.2 11.8125H19.8L12.6563 1.125H9.11255L16.2 11.8125Z" fill="#E8E8E8"/>
<path opacity="0.5" d="M18.6188 2.92505L16.8188 5.5688L20.9813 11.8125H23.3438L23.9063 10.9125L18.6188 2.92505Z" fill="#3E4347"/>
<path d="M19.8 11.8125H23.3438L16.2 1.125H12.6562L19.8 11.8125Z" fill="#428BC1"/>
<path d="M18 34.8749C24.12 34.8749 29.0812 29.9137 29.0812 23.7937C29.0812 17.6736 24.12 12.7124 18 12.7124C11.8799 12.7124 6.9187 17.6736 6.9187 23.7937C6.9187 29.9137 11.8799 34.8749 18 34.8749Z" fill="#FFC200"/>
<path d="M18.1687 13.7251C12.4874 13.7251 7.93115 18.3376 7.93115 23.9626C7.93115 25.6501 8.3249 27.2251 9.05615 28.6313C8.71865 27.5063 8.49365 26.3251 8.49365 25.0876C8.49365 19.0688 13.1062 14.1751 19.0124 13.7251H18.1687" fill="#E68A00"/>
<path d="M25.875 17.4375C28.7437 22.5 27.2812 29.025 22.275 32.3437C21.2625 33.0187 20.1375 33.525 19.0125 33.8625C20.5875 33.6937 22.1062 33.1312 23.5125 32.175C28.2374 29.025 29.475 22.725 26.3812 18.1125L25.875 17.4375Z" fill="#FFE394"/>
<path d="M18 19.2938V15.6938L16.2 21.3188L16.9875 22.3313L18 19.2938Z" fill="#F2B200"/>
<path d="M19.0125 22.3313L19.8 21.3188L18 15.6938V19.2938L19.0125 22.3313Z" fill="#E68A00"/>
<path d="M19.575 24.1876L20.925 24.8063L25.7062 21.3188L22.1625 22.3313L19.575 24.1876Z" fill="#C47500"/>
<path d="M22.1625 22.3313L25.7062 21.3188H19.8L19.0125 22.3313H22.1625Z" fill="#FFE394"/>
<path d="M16.9875 22.3313L16.2 21.3188H10.2937L13.8375 22.3313H16.9875Z" fill="#FFD252"/>
<path d="M13.8375 22.3313L10.2937 21.3188L15.0187 24.8063L16.425 24.1876L13.8375 22.3313Z" fill="#FFDB75"/>
<path d="M19.575 24.1875L20.5875 27.225L22.7812 30.4312L20.925 24.8062L19.575 24.1875Z" fill="#E68A00"/>
<path d="M18 25.3687V26.9437L22.7812 30.4312L20.5875 27.2249L18 25.3687Z" fill="#F2B200"/>
<path d="M16.425 24.1875L15.0188 24.8062L13.2188 30.4312L15.4125 27.225L16.425 24.1875Z" fill="#F2B200"/>
<path d="M15.4125 27.2249L13.2188 30.4312L18 26.9437V25.3687L15.4125 27.2249Z" fill="#E68A00"/>
<path d="M19.0124 22.3312L17.9999 19.2937L16.9874 22.3312H13.8374L16.4249 24.1875L15.4124 27.225L17.9999 25.3687L20.5874 27.225L19.5749 24.1875L22.1624 22.3312H19.0124Z" fill="#FFCE31"/>
</svg>
