<svg width="1345"
  height="1644"
  viewBox="0 0 1345 1644"
  fill="none"
  xmlns="http://www.w3.org/2000/svg">
  <path
    d="M427.433 693.255C429.252 707.988 431.5 728.678 431.5 740.917V740.921C431.5 761.48 431.5 794.802 413.796 843.663C408.965 856.998 401.536 872.015 395.309 883.708C392.197 889.553 389.387 894.562 387.355 898.111C386.339 899.885 385.518 901.293 384.951 902.258C384.788 902.534 384.647 902.774 384.528 902.975C384.422 902.773 384.298 902.534 384.155 902.26C383.646 901.281 382.907 899.854 381.987 898.059C380.147 894.469 377.582 889.409 374.685 883.53C368.891 871.77 361.772 856.741 356.463 843.646C337.5 796.869 337.5 770.027 337.5 740.925V740.917C337.5 724.385 339.544 705.696 341.31 692.639C342.575 683.284 350.643 676.5 360.104 676.5H384.5H408.321C418.026 676.5 426.245 683.633 427.433 693.255Z"
    fill="#EAEBFF"
    stroke="#BFC8D9" />
  <path
    d="M910.559 691.244C908.741 705.909 906.5 726.465 906.5 738.632V738.636C906.5 759.105 906.5 792.28 924.203 840.926C929.035 854.203 936.463 869.153 942.69 880.795C945.803 886.614 948.613 891.602 950.645 895.134C951.66 896.901 952.482 898.303 953.049 899.264C953.211 899.539 953.353 899.778 953.472 899.979C953.578 899.777 953.702 899.539 953.845 899.265C954.354 898.291 955.093 896.87 956.013 895.083C957.854 891.509 960.418 886.471 963.315 880.618C969.109 868.91 976.228 853.947 981.537 840.909C1000.5 794.338 1000.5 767.614 1000.5 738.64V738.632C1000.5 722.198 998.462 703.623 996.698 690.626C995.43 681.277 987.364 674.5 977.908 674.5H953.5H929.668C919.967 674.5 911.751 681.627 910.559 691.244Z"
    fill="#EAEBFF"
    stroke="#BFC8D9" />
  <path
    d="M652.723 1571.31L387.459 1643.38C385.791 1634.93 385.602 1628.37 386.044 1623.6C386.488 1618.81 387.562 1615.86 388.384 1614.59L623.258 1458.83L623.556 1458.63L623.465 1458.29L613.654 1421.05C613.103 1418.96 612.599 1416.92 612.135 1414.81C608.374 1397.76 590.679 1314.5 590.679 1258.26V939.021V938.521H590.179H477.38C471.032 938.521 464.817 939.438 458.747 941.302C314.061 985.735 42.3105 1069.43 4.2793 1082.04C2.66852 1082.58 1.05492 1081.47 0.905722 1079.73C-2.66006 1038.28 18.1458 1013.99 29.2554 1006.91L524.798 736.704L524.822 736.691L524.845 736.675L562.554 710.357C567.615 706.824 572.137 702.576 575.979 697.746L591.02 678.835C591.982 677.625 592.505 676.125 592.505 674.58V632.771V289.384C592.505 278.086 593.457 266.827 595.439 255.706C600.261 228.656 610.205 174.534 619.161 136.296C625.653 108.581 633.801 74.5588 642.974 47.4678C647.561 33.9192 652.396 22.132 657.395 13.7405C659.895 9.54419 662.423 6.22055 664.962 3.95125C667.502 1.68181 670.015 0.500061 672.5 0.500061C674.984 0.500061 677.512 1.69109 680.077 3.97762C682.641 6.26352 685.202 9.61001 687.739 13.8313C692.812 22.2724 697.736 34.1193 702.383 47.7067C711.674 74.875 719.822 108.897 725.837 136.289C734.169 174.234 744.222 227.547 749.273 254.842C751.437 266.536 752.495 278.391 752.495 290.285V632.771V674.58C752.495 676.125 753.018 677.625 753.98 678.835L769.021 697.746C772.863 702.577 777.385 706.824 782.446 710.357L820.155 736.675L820.177 736.691L820.202 736.704L1315.73 1006.9C1315.74 1006.9 1315.74 1006.91 1315.74 1006.91C1326.85 1013.99 1347.66 1038.28 1344.09 1079.73C1343.94 1081.47 1342.33 1082.58 1340.72 1082.04C1302.69 1069.43 1030.94 985.735 886.251 941.302C880.182 939.438 873.969 938.521 867.622 938.521H754.821H754.321V939.021V1258.26C754.321 1314.5 736.626 1397.76 732.865 1414.81C732.401 1416.92 731.897 1418.96 731.346 1421.05L721.535 1458.29L721.444 1458.63L721.742 1458.83L955.679 1614.59C956.501 1615.86 957.576 1618.81 958.019 1623.6C958.461 1628.37 958.272 1634.93 956.604 1643.38L692.278 1571.31L691.791 1571.18L691.663 1571.66L689.431 1580.13L689.43 1580.14L689.427 1580.15L689.414 1580.2C689.403 1580.24 689.385 1580.3 689.361 1580.38C689.314 1580.55 689.243 1580.79 689.148 1581.1C688.959 1581.72 688.675 1582.61 688.3 1583.67C687.55 1585.8 686.434 1588.64 684.973 1591.48C683.509 1594.31 681.712 1597.12 679.605 1599.22C677.498 1601.31 675.126 1602.65 672.5 1602.65C669.874 1602.65 667.502 1601.31 665.395 1599.22C663.288 1597.12 661.49 1594.31 660.027 1591.48C658.566 1588.64 657.45 1585.8 656.7 1583.67C656.324 1582.61 656.041 1581.72 655.852 1581.1C655.757 1580.79 655.686 1580.55 655.639 1580.38C655.615 1580.3 655.597 1580.24 655.586 1580.2L655.573 1580.15L655.569 1580.14L655.569 1580.13L653.337 1571.66L653.209 1571.18L652.723 1571.31Z"
    fill="url(#paint0_linear_31_6234)"
    stroke="#BCBAF7" />
  <path
    d="M603 275.257C603 275.257 603 273.675 618.563 192.987C622.313 173.544 652.467 174.001 672.5 174.001C692.532 174.001 722.687 173.544 726.437 192.987C742 273.675 742 275.257 742 275.257V1320.73C742 1320.73 742 1320.73 732.813 1358.86C728.169 1378.13 672.5 1378 672.5 1378C672.5 1378 616.83 1378.13 612.187 1358.86C603 1320.73 603 1320.73 603 1320.73V275.257Z"
    fill="white"
    fill-opacity="0.6"
    stroke="#7C8DB0"
    stroke-opacity="0.2" />
  <rect x="610"
    y="273"
    width="125"
    height="196"
    rx="8"
    fill="white" />
  <g clip-path="url(#clip0_31_6234)">
    <path
      d="M642.5 312.977C645.278 312.977 647.529 310.725 647.529 307.948C647.529 305.17 645.278 302.918 642.5 302.918C639.722 302.918 637.47 305.17 637.47 307.948C637.47 310.725 639.722 312.977 642.5 312.977Z"
      fill="#00D8FF" />
    <path
      d="M642.5 319.479C636.455 319.626 630.425 318.811 624.635 317.065C621.961 316.217 619.466 314.882 617.278 313.126C616.443 312.526 615.748 311.753 615.24 310.859C614.732 309.965 614.423 308.972 614.335 307.948C614.335 304.622 617.988 301.363 624.108 299.231C630.052 297.341 636.263 296.425 642.5 296.519C648.653 296.433 654.781 297.332 660.65 299.182C663.226 300.004 665.636 301.275 667.768 302.936C668.589 303.508 669.274 304.254 669.774 305.12C670.275 305.986 670.579 306.951 670.665 307.948C670.665 311.404 666.581 314.907 660.002 317.083C654.325 318.772 648.422 319.58 642.5 319.479V319.479ZM642.5 298.925C636.533 298.845 630.592 299.716 624.899 301.504C619.266 303.47 616.741 306.157 616.741 307.942C616.741 309.809 619.455 312.744 625.414 314.782C630.952 316.443 636.719 317.217 642.5 317.073C648.166 317.175 653.814 316.408 659.248 314.8C665.434 312.75 668.251 309.811 668.251 307.948C668.149 307.308 667.916 306.697 667.567 306.152C667.217 305.608 666.758 305.142 666.219 304.783C664.311 303.309 662.158 302.182 659.86 301.456C654.245 299.693 648.384 298.839 642.5 298.925V298.925Z"
      fill="#00D8FF" />
    <path
      d="M631.073 333.033C630.134 333.054 629.207 332.827 628.385 332.373C625.504 330.711 624.507 325.919 625.716 319.552C627.049 313.458 629.359 307.62 632.556 302.264C635.555 296.891 639.394 292.032 643.928 287.872C645.926 286.051 648.231 284.598 650.736 283.581C651.642 283.156 652.631 282.936 653.631 282.936C654.632 282.936 655.62 283.156 656.526 283.581C659.522 285.307 660.513 290.594 659.115 297.38C657.741 303.143 655.491 308.661 652.444 313.742C649.551 319.052 645.832 323.868 641.428 328.011C639.357 329.904 636.954 331.397 634.34 332.415C633.294 332.803 632.189 333.012 631.073 333.033V333.033ZM634.64 303.459C631.59 308.588 629.376 314.17 628.081 319.994C626.969 325.859 628.037 329.385 629.59 330.283C631.2 331.214 635.107 330.331 639.85 326.187C644.055 322.217 647.604 317.607 650.366 312.527C653.285 307.669 655.443 302.394 656.765 296.883C658.081 290.496 656.944 286.585 655.331 285.655C654.726 285.423 654.08 285.32 653.433 285.351C652.786 285.381 652.153 285.546 651.573 285.834C649.343 286.754 647.293 288.061 645.518 289.693C641.186 293.678 637.518 298.329 634.654 303.472L634.64 303.459Z"
      fill="#00D8FF" />
    <path
      d="M653.336 333.287C650.61 333.287 647.148 331.637 643.543 328.537C638.929 324.339 635.025 319.422 631.981 313.978C628.824 308.696 626.533 302.942 625.193 296.936C624.613 294.293 624.505 291.569 624.875 288.889C624.961 287.895 625.264 286.931 625.762 286.067C626.261 285.202 626.943 284.458 627.76 283.885C630.752 282.153 635.828 283.934 641.008 288.533C645.314 292.601 648.971 297.306 651.851 302.482C655.007 307.641 657.322 313.269 658.712 319.154C659.317 321.894 659.411 324.721 658.987 327.495C658.886 328.518 658.566 329.507 658.047 330.394C657.528 331.281 656.824 332.046 655.982 332.635C655.173 333.083 654.26 333.308 653.336 333.287V333.287ZM634.063 312.767C636.983 317.97 640.713 322.675 645.112 326.706C649.637 330.599 653.226 331.436 654.769 330.529C656.378 329.593 657.565 325.775 656.342 319.597C655.002 313.978 652.781 308.606 649.761 303.681C647.013 298.727 643.522 294.222 639.411 290.323C634.534 285.994 630.579 285.026 628.967 285.96C628.465 286.368 628.053 286.876 627.757 287.451C627.461 288.027 627.287 288.657 627.247 289.303C626.928 291.693 627.032 294.121 627.555 296.475C628.843 302.219 631.041 307.72 634.065 312.771L634.063 312.767Z"
      fill="#00D8FF" />
  </g>
  <path
    d="M703.641 282.514C703.53 282.524 703.174 282.56 702.853 282.585C695.468 283.251 688.55 287.235 684.168 293.36C681.728 296.765 680.168 300.628 679.578 304.719C679.37 306.147 679.344 306.569 679.344 308.505C679.344 310.442 679.37 310.863 679.578 312.291C680.991 322.055 687.94 330.258 697.364 333.297C699.051 333.841 700.83 334.212 702.853 334.435C703.641 334.522 707.047 334.522 707.835 334.435C711.327 334.049 714.285 333.185 717.203 331.696C717.65 331.467 717.737 331.406 717.676 331.355C717.635 331.325 715.729 328.769 713.442 325.678L709.284 320.062L704.073 312.353C701.207 308.114 698.848 304.648 698.828 304.648C698.807 304.643 698.787 308.068 698.777 312.251C698.762 319.574 698.757 319.869 698.665 320.042C698.533 320.291 698.431 320.393 698.218 320.505C698.055 320.586 697.913 320.601 697.145 320.601H696.266L696.032 320.454C695.887 320.363 695.77 320.235 695.691 320.083L695.585 319.854L695.595 309.664L695.61 299.469L695.768 299.27C695.849 299.164 696.022 299.027 696.144 298.96C696.352 298.859 696.433 298.849 697.313 298.849C698.35 298.849 698.523 298.889 698.792 299.184C698.868 299.265 701.689 303.514 705.064 308.632C708.44 313.75 713.055 320.738 715.322 324.169L719.44 330.405L719.648 330.268C721.493 329.068 723.445 327.361 724.99 325.582C728.279 321.806 730.399 317.201 731.11 312.292C731.319 310.863 731.344 310.442 731.344 308.505C731.344 306.569 731.319 306.147 731.11 304.719C729.697 294.956 722.749 286.753 713.325 283.713C711.662 283.175 709.894 282.804 707.911 282.58C707.423 282.529 704.063 282.473 703.641 282.514V282.514ZM714.285 298.239C714.529 298.361 714.728 298.595 714.799 298.839C714.839 298.971 714.849 301.797 714.839 308.165L714.824 317.303L713.213 314.833L711.596 312.363V305.72C711.596 301.425 711.617 299.011 711.647 298.894C711.728 298.61 711.907 298.386 712.151 298.254C712.359 298.147 712.435 298.137 713.233 298.137C713.986 298.137 714.118 298.147 714.285 298.239Z"
    fill="black" />
  <g clip-path="url(#clip1_31_6234)">
    <path d="M657.691 344.5H669.043L640.663 393.456L612.283 344.5H633.994L640.663 355.852L647.191 344.5H657.691Z"
      fill="#41B883" />
    <path d="M612.283 344.5L640.663 393.456L669.043 344.5H657.691L640.663 373.873L623.493 344.5H612.283Z"
      fill="#41B883" />
    <path d="M623.493 344.5L640.663 374.015L657.691 344.5H647.191L640.663 355.852L633.994 344.5H623.493Z"
      fill="#35495E" />
  </g>
  <g clip-path="url(#clip2_31_6234)">
    <path
      d="M697.142 346.597C695.359 343.801 690.898 343.801 689.114 346.597L669.671 377.074C667.887 379.871 670.117 383.366 673.685 383.366H688.864C687.339 382.151 686.774 380.05 687.928 378.247L702.653 355.236L697.142 346.597Z"
      fill="#80EEC0" />
    <path
      d="M709.462 353.283C710.939 350.995 714.63 350.995 716.106 353.283L732.197 378.218C733.674 380.506 731.828 383.366 728.875 383.366H696.693C693.74 383.366 691.895 380.506 693.371 378.218L709.462 353.283V353.283Z"
      fill="#00DC82" />
  </g>
  <g clip-path="url(#clip3_31_6234)">
    <path
      d="M614.522 412.872L642.042 403.644L670.304 412.708L665.728 446.977L642.042 459.323L618.727 447.141L614.522 412.872Z"
      fill="#E23237" />
    <path d="M670.304 412.708L642.042 403.644V459.323L665.728 446.998L670.304 412.708V412.708Z"
      fill="#B52E31" />
    <path
      d="M642.086 410.145L624.937 446.054L631.343 445.952L634.786 437.851H650.17L653.94 446.054L660.063 446.157L642.086 410.145ZM642.13 421.65L647.926 433.052H637.031L642.13 421.65Z"
      fill="white" />
  </g>
  <g clip-path="url(#clip4_31_6234)">
    <path d="M678.5 429.5V455.5H730.5V403.5H678.5V429.5Z"
      fill="#007ACC" />
    <path
      d="M689.999 429.673L689.983 431.802H696.751V451.034H701.538V431.802H708.306V429.714C708.306 428.558 708.282 427.592 708.249 427.568C708.224 427.535 704.105 427.518 699.112 427.526L690.024 427.551L689.999 429.672L689.999 429.673Z"
      fill="white" />
    <path
      d="M720.459 427.491C721.779 427.821 722.786 428.407 723.711 429.364C724.19 429.876 724.899 430.809 724.957 431.032C724.973 431.098 722.712 432.617 721.342 433.467C721.292 433.5 721.094 433.285 720.871 432.955C720.203 431.981 719.501 431.56 718.428 431.486C716.852 431.378 715.837 432.204 715.845 433.582C715.845 433.987 715.903 434.226 716.068 434.556C716.414 435.274 717.058 435.703 719.08 436.578C722.803 438.18 724.396 439.236 725.386 440.738C726.492 442.414 726.74 445.088 725.989 447.077C725.164 449.24 723.117 450.709 720.236 451.196C719.345 451.353 717.232 451.328 716.274 451.155C714.186 450.783 712.205 449.752 710.983 448.398C710.505 447.87 709.572 446.491 709.63 446.392C709.654 446.359 709.869 446.227 710.108 446.087C710.339 445.955 711.214 445.451 712.04 444.973L713.534 444.106L713.847 444.568C714.285 445.237 715.242 446.153 715.82 446.458C717.479 447.333 719.757 447.21 720.88 446.202C721.358 445.765 721.557 445.311 721.557 444.642C721.557 444.04 721.482 443.776 721.169 443.322C720.764 442.744 719.939 442.257 717.595 441.242C714.912 440.086 713.757 439.368 712.7 438.229C712.089 437.569 711.511 436.512 711.272 435.629C711.074 434.895 711.024 433.054 711.181 432.311C711.734 429.719 713.691 427.912 716.513 427.375C717.429 427.202 719.559 427.268 720.459 427.491V427.491Z"
      fill="white" />
  </g>
  <g clip-path="url(#clip5_31_6234)">
    <rect x="610"
      y="480"
      width="125"
      height="843"
      rx="8"
      fill="white" />
    <rect width="125"
      height="18"
      transform="translate(610 488)"
      fill="white" />
    <path
      d="M636.408 501V492.54H641.88V493.548H637.608V496.2H641.628V497.208H637.608V499.992H641.88V501H636.408ZM642.562 501L644.998 497.976L642.718 495.144H644.134L645.706 497.148L647.278 495.144H648.694L646.402 497.988L648.85 501H647.41L645.694 498.84L643.99 501H642.562ZM649.644 493.788V492.528H651.06V493.788H649.644ZM649.752 501V495.144H650.964V501H649.752ZM655.166 501.108C654.43 501.108 653.882 500.92 653.522 500.544C653.162 500.168 652.982 499.624 652.982 498.912V496.08H651.842V495.144H652.982V493.38H654.194V495.144H656.006V496.08H654.194V498.816C654.194 499.24 654.282 499.56 654.458 499.776C654.642 499.992 654.938 500.1 655.346 500.1C655.474 500.1 655.598 500.088 655.718 500.064C655.838 500.032 655.958 499.996 656.078 499.956L656.27 500.868C656.15 500.94 655.982 500.996 655.766 501.036C655.558 501.084 655.358 501.108 655.166 501.108ZM660.205 501V495.144H661.381V496.188C661.685 495.492 662.317 495.104 663.277 495.024L663.673 495L663.757 496.032L663.025 496.104C661.961 496.208 661.429 496.756 661.429 497.748V501H660.205ZM667.144 501.108C666.552 501.108 666.04 500.984 665.608 500.736C665.176 500.488 664.84 500.14 664.6 499.692C664.368 499.236 664.252 498.696 664.252 498.072C664.252 497.448 664.368 496.912 664.6 496.464C664.84 496.008 665.176 495.656 665.608 495.408C666.04 495.16 666.552 495.036 667.144 495.036C667.72 495.036 668.224 495.16 668.656 495.408C669.088 495.656 669.424 496.008 669.664 496.464C669.904 496.912 670.024 497.448 670.024 498.072C670.024 498.696 669.904 499.236 669.664 499.692C669.424 500.14 669.088 500.488 668.656 500.736C668.224 500.984 667.72 501.108 667.144 501.108ZM667.144 500.172C667.64 500.172 668.04 499.992 668.344 499.632C668.648 499.272 668.8 498.752 668.8 498.072C668.8 497.392 668.648 496.876 668.344 496.524C668.04 496.164 667.64 495.984 667.144 495.984C666.64 495.984 666.236 496.164 665.932 496.524C665.628 496.876 665.476 497.392 665.476 498.072C665.476 498.752 665.628 499.272 665.932 499.632C666.236 499.992 666.64 500.172 667.144 500.172ZM672.864 501L670.632 495.144H671.88L673.452 499.584L675.072 495.144H676.008L677.604 499.608L679.2 495.144H680.388L678.156 501H677.052L675.504 496.812L673.968 501H672.864Z"
      fill="#7C8DB0" />
    <circle cx="623"
      cy="497"
      r="6"
      stroke="#7C8DB0"
      stroke-width="1.5" />
    <path fill-rule="evenodd"
      clip-rule="evenodd"
      d="M623 495.667C623.46 495.667 623.833 495.294 623.833 494.833C623.833 494.373 623.46 494 623 494C622.54 494 622.167 494.373 622.167 494.833C622.167 495.294 622.54 495.667 623 495.667ZM623.75 497C623.75 496.586 623.414 496.25 623 496.25C622.586 496.25 622.25 496.586 622.25 497V499.333C622.25 499.748 622.586 500.083 623 500.083C623.414 500.083 623.75 499.748 623.75 499.333V497Z"
      fill="#7C8DB0" />
    <g clip-path="url(#clip6_31_6234)">
      <path
        d="M672.203 515C661.759 515 655.231 520.222 652.62 530.667C656.537 525.444 661.106 523.486 666.328 524.792C669.308 525.536 671.438 527.698 673.795 530.091C677.635 533.989 682.079 538.5 691.787 538.5C702.231 538.5 708.759 533.278 711.37 522.833C707.453 528.056 702.884 530.014 697.662 528.708C694.682 527.964 692.553 525.802 690.195 523.409C686.355 519.511 681.911 515 672.203 515ZM652.62 538.5C642.176 538.5 635.648 543.722 633.037 554.167C636.953 548.944 641.523 546.986 646.745 548.292C649.725 549.036 651.854 551.198 654.212 553.591C658.052 557.489 662.496 562 672.203 562C682.648 562 689.176 556.778 691.787 546.333C687.87 551.556 683.301 553.514 678.078 552.208C675.099 551.464 672.969 549.302 670.612 546.909C666.772 543.011 662.328 538.5 652.62 538.5Z"
        fill="url(#paint1_linear_31_6234)" />
    </g>
    <g clip-path="url(#clip7_31_6234)">
      <path d="M677.273 571L651.907 596.366L659.758 604.217L692.975 571L677.273 571Z"
        fill="#47C5FB" />
      <path d="M677.096 594.392L663.515 607.973L671.395 615.972L679.232 608.135L692.975 594.392H677.096Z"
        fill="#47C5FB" />
      <path d="M671.395 615.972L677.361 621.938H692.975L679.232 608.135L671.395 615.972Z"
        fill="#00569E" />
      <path d="M663.426 608.062L671.277 600.21L679.232 608.135L671.395 615.972L663.426 608.062Z"
        fill="#00B5F8" />
      <path d="M671.395 615.972L677.921 613.807L678.569 608.798L671.395 615.972Z"
        fill="url(#paint2_linear_31_6234)"
        fill-opacity="0.8" />
    </g>
    <g clip-path="url(#clip8_31_6234)">
      <path
        d="M672.495 631C655.915 631 642.5 644.418 642.5 661C642.497 664.94 643.271 668.843 644.778 672.484C646.285 676.125 648.495 679.433 651.281 682.219C654.067 685.005 657.375 687.215 661.016 688.722C664.657 690.228 668.56 691.003 672.5 691C689.082 691 702.5 677.582 702.5 661C702.497 644.418 688.97 631 672.495 631ZM658.425 667.437C659.405 668.745 660.715 669.293 662.567 669.293C663.442 669.293 664.315 669.183 665.077 668.855C665.842 668.53 666.715 668.09 667.802 667.437L670.86 671.8C668.352 673.875 665.515 674.855 662.242 674.855C659.622 674.855 657.442 674.31 655.48 673.22C653.575 672.096 652.053 670.423 651.115 668.42C650.135 666.345 649.587 663.945 649.587 661.108C649.587 658.383 650.135 655.872 651.112 653.8C652.046 651.735 653.565 649.99 655.482 648.782C657.335 647.582 659.625 647.037 662.135 647.037C663.882 647.037 665.517 647.255 666.827 647.8C668.297 648.369 669.661 649.18 670.862 650.2L667.807 654.345C667.032 653.772 666.19 653.296 665.3 652.925C664.537 652.6 663.555 652.49 662.68 652.49C658.972 652.49 657.117 655.325 657.117 661.105C657.01 664.055 657.555 666.125 658.427 667.435H658.425V667.437ZM688.425 674.2C687.335 677.583 685.697 680.093 683.405 681.945C681.115 683.803 678.06 684.782 674.242 685.11L673.48 679.985C675.987 679.655 677.842 679.11 679.042 678.235C679.477 677.91 680.352 676.928 680.352 676.928L671.297 647.91H678.822L684.06 669.617L689.625 647.91H696.932L688.425 674.2Z"
        fill="black" />
    </g>
    <path
      d="M695.602 729.554C695.602 728.114 695.03 726.733 694.012 725.715C692.994 724.697 691.613 724.125 690.173 724.125C689.982 724.125 689.792 724.135 689.602 724.154L697.06 702.158H665.367L672.815 724.135C672.706 724.135 672.596 724.125 672.485 724.125C671.189 724.124 669.935 724.586 668.95 725.429C667.964 726.272 667.313 727.439 667.114 728.72C666.915 730.002 667.181 731.312 667.864 732.414C668.547 733.516 669.602 734.337 670.837 734.729C669.683 736.718 668.245 738.528 666.569 740.102C664.387 742.188 661.795 743.796 658.958 744.825C657.369 744.072 656.126 742.741 655.481 741.105C654.837 739.468 654.84 737.647 655.49 736.012C655.65 735.637 655.812 735.258 655.967 734.879C657.177 734.594 658.253 733.902 659.015 732.919C659.777 731.936 660.178 730.721 660.152 729.478C660.125 728.235 659.673 727.038 658.871 726.088C658.068 725.138 656.964 724.492 655.743 724.258C654.521 724.024 653.256 724.217 652.16 724.803C651.063 725.39 650.201 726.335 649.718 727.481C649.234 728.627 649.158 729.904 649.503 731.099C649.848 732.294 650.593 733.334 651.612 734.046C649.879 737.188 648.557 740.54 647.677 744.019C646.94 748.467 647.677 753.185 651.521 755.854C660.479 762.065 670.206 752.004 680.46 749.477C684.177 748.56 688.256 748.708 691.529 746.812C692.712 746.139 693.731 745.214 694.516 744.102C695.3 742.99 695.831 741.719 696.069 740.379C696.286 739.103 696.245 737.795 695.948 736.535C695.651 735.274 695.103 734.086 694.337 733.042C695.154 732.066 695.601 730.833 695.6 729.56L695.602 729.554ZM677.917 729.583V729.565C677.918 728.63 677.678 727.711 677.22 726.897C676.761 726.083 676.1 725.402 675.3 724.919L681.225 712.917L687.162 725.029C686.418 725.524 685.807 726.196 685.385 726.984C684.963 727.773 684.742 728.654 684.744 729.548V729.667L677.917 729.583Z"
      fill="#C63D14" />
    <path
      d="M696.929 729.554C696.927 727.98 696.376 726.456 695.371 725.244C694.366 724.033 692.97 723.21 691.423 722.917L698.91 700.833H663.519L671.019 722.96C669.709 723.253 668.517 723.929 667.593 724.902C666.67 725.876 666.057 727.102 665.834 728.425C665.61 729.748 665.786 731.107 666.338 732.33C666.891 733.553 667.795 734.583 668.935 735.29C667.993 736.689 666.898 737.979 665.669 739.135C663.767 740.955 661.531 742.391 659.085 743.365C657.937 742.698 657.067 741.642 656.634 740.387C656.2 739.133 656.232 737.764 656.723 736.531L656.806 736.338L656.96 735.973C658.349 735.492 659.543 734.571 660.361 733.35C661.179 732.13 661.578 730.675 661.496 729.208C661.414 727.741 660.856 726.34 659.906 725.218C658.957 724.097 657.668 723.315 656.235 722.991C654.801 722.667 653.301 722.82 651.962 723.425C650.623 724.03 649.517 725.055 648.813 726.345C648.108 727.635 647.843 729.119 648.058 730.573C648.272 732.027 648.955 733.371 650.002 734.402C649.777 734.883 649.54 735.371 649.296 735.873C647.945 738.357 646.963 741.023 646.379 743.79C645.41 749.623 646.973 754.296 650.777 756.931C652.819 758.392 655.269 759.174 657.779 759.167C662.221 759.167 666.715 756.935 671.112 754.752C674.185 753.081 677.427 751.742 680.783 750.756C681.985 750.46 683.223 750.281 684.533 750.092C687.203 749.878 689.806 749.151 692.2 747.95C693.55 747.179 694.714 746.12 695.609 744.85C696.504 743.579 697.109 742.127 697.381 740.596C697.824 737.995 697.313 735.322 695.942 733.069C696.59 732.011 696.933 730.793 696.931 729.552L696.929 729.554ZM694.277 729.554C694.277 730.366 694.036 731.159 693.585 731.834C693.134 732.509 692.493 733.035 691.743 733.346C690.994 733.657 690.168 733.738 689.372 733.58C688.576 733.421 687.845 733.03 687.271 732.456C686.697 731.882 686.306 731.151 686.148 730.355C685.989 729.559 686.07 728.734 686.381 727.984C686.692 727.234 687.218 726.593 687.893 726.142C688.568 725.691 689.361 725.45 690.173 725.45C691.261 725.451 692.304 725.884 693.074 726.653C693.843 727.423 694.276 728.466 694.277 729.554V729.554ZM695.208 703.485L688.596 722.985C688.313 723.054 688.034 723.141 687.762 723.246L681.231 709.913L674.679 723.167C674.394 723.068 674.102 722.989 673.806 722.929L667.217 703.485H695.208ZM672.485 725.45C673.297 725.45 674.091 725.691 674.766 726.142C675.44 726.593 675.966 727.234 676.277 727.984C676.588 728.734 676.669 729.559 676.511 730.355C676.352 731.151 675.961 731.882 675.387 732.456C674.813 733.03 674.082 733.421 673.286 733.58C672.49 733.738 671.665 733.657 670.915 733.346C670.165 733.035 669.524 732.509 669.073 731.834C668.622 731.159 668.381 730.366 668.381 729.554C668.382 728.466 668.815 727.423 669.584 726.653C670.354 725.884 671.397 725.451 672.485 725.45V725.45ZM654.731 725.49C655.543 725.49 656.337 725.731 657.012 726.183C657.687 726.635 658.212 727.276 658.522 728.027C658.832 728.778 658.913 729.603 658.753 730.4C658.594 731.196 658.202 731.927 657.627 732.5C657.052 733.074 656.319 733.463 655.523 733.621C654.726 733.778 653.9 733.695 653.151 733.382C652.401 733.07 651.761 732.542 651.311 731.866C650.862 731.19 650.623 730.395 650.625 729.583C650.626 728.495 651.059 727.452 651.828 726.683C652.598 725.913 653.641 725.48 654.729 725.479L654.731 725.49ZM694.767 740.144C694.561 741.292 694.105 742.381 693.431 743.334C692.758 744.286 691.883 745.079 690.869 745.656C688.765 746.678 686.486 747.292 684.154 747.467C682.837 747.656 681.477 747.852 680.146 748.181C676.602 749.207 673.179 750.614 669.937 752.375C663.346 755.648 657.646 758.475 652.287 754.756C648.356 752.031 648.537 746.99 648.996 744.227C649.535 741.713 650.435 739.29 651.667 737.033L652.229 735.869C652.789 736.093 653.376 736.24 653.975 736.306C653.445 738.179 653.593 740.179 654.393 741.953C655.194 743.728 656.595 745.162 658.35 746.004L658.86 746.267L659.4 746.075C662.41 744.989 665.159 743.286 667.473 741.075C669.001 739.638 670.343 738.014 671.469 736.244C672.909 736.463 674.381 736.21 675.665 735.524C676.95 734.838 677.978 733.755 678.597 732.436C679.215 731.118 679.391 729.635 679.098 728.208C678.804 726.782 678.057 725.488 676.969 724.521L681.215 715.935L685.504 724.685C684.284 725.862 683.55 727.454 683.45 729.146C683.35 730.838 683.89 732.506 684.962 733.818C686.035 735.131 687.563 735.991 689.241 736.229C690.919 736.467 692.625 736.065 694.021 735.102C694.794 736.664 695.053 738.43 694.76 740.148L694.767 740.144Z"
      fill="white" />
    <path
      d="M682.5 809C688.023 809 692.5 804.523 692.5 799C692.5 793.477 688.023 789 682.5 789C676.977 789 672.5 793.477 672.5 799C672.5 804.523 676.977 809 682.5 809Z"
      fill="#19BCFE" />
    <path fill-rule="evenodd"
      clip-rule="evenodd"
      d="M662.5 829C665.152 829 667.696 827.946 669.571 826.071C671.446 824.196 672.5 821.652 672.5 819V809H662.5C659.848 809 657.304 810.054 655.429 811.929C653.554 813.804 652.5 816.348 652.5 819C652.5 821.652 653.554 824.196 655.429 826.071C657.304 827.946 659.848 829 662.5 829V829Z"
      fill="#09CF83" />
    <path fill-rule="evenodd"
      clip-rule="evenodd"
      d="M662.5 809H672.5V789H662.5C659.848 789 657.304 790.054 655.429 791.929C653.554 793.804 652.5 796.348 652.5 799C652.5 801.652 653.554 804.196 655.429 806.071C657.304 807.946 659.848 809 662.5 809V809Z"
      fill="#A259FF" />
    <path fill-rule="evenodd"
      clip-rule="evenodd"
      d="M662.5 789H672.5V769H662.5C659.848 769 657.304 770.054 655.429 771.929C653.554 773.804 652.5 776.348 652.5 779C652.5 781.652 653.554 784.196 655.429 786.071C657.304 787.946 659.848 789 662.5 789V789Z"
      fill="#F24E1E" />
    <path fill-rule="evenodd"
      clip-rule="evenodd"
      d="M682.5 789H672.5V769H682.5C685.152 769 687.696 770.054 689.571 771.929C691.446 773.804 692.5 776.348 692.5 779C692.5 781.652 691.446 784.196 689.571 786.071C687.696 787.946 685.152 789 682.5 789Z"
      fill="#FF7262" />
    <g clip-path="url(#clip9_31_6234)">
      <path
        d="M667.125 859.05C666.2 858.675 665.2 858.525 664.175 858.55C663.525 858.55 662.95 858.55 662.475 858.575C661.975 858.55 661.625 858.575 661.45 858.6V867C661.8 867.025 662.125 867.05 662.425 867.05H663.75C664.725 867.05 665.7 866.9 666.625 866.6C667.425 866.375 668.125 865.9 668.675 865.275C669.2 864.65 669.45 863.8 669.45 862.7C669.475 861.925 669.275 861.15 668.875 860.475C668.458 859.826 667.845 859.327 667.125 859.05ZM691.875 838.75H653.125C647.25 838.75 642.5 843.5 642.5 849.375V886.623C642.5 892.498 647.25 897.248 653.125 897.248H691.875C697.75 897.248 702.5 892.498 702.5 886.623V849.375C702.5 843.5 697.75 838.75 691.875 838.75ZM673.397 867.875C672.4 869.275 671 870.325 669.375 870.925C667.675 871.55 665.8 871.775 663.75 871.775C663.15 871.775 662.75 871.775 662.5 871.75C662.25 871.725 661.9 871.725 661.425 871.725V879.748C661.45 879.923 661.325 880.075 661.15 880.1H656.3C656.1 880.1 656 879.998 656 879.773V854.05C656 853.875 656.075 853.775 656.25 853.775C656.675 853.775 657.075 853.775 657.65 853.75C658.25 853.725 658.875 853.725 659.55 853.7C660.225 853.675 660.95 853.675 661.725 853.65C662.5 853.625 663.25 853.625 664 853.625C666.05 853.625 667.75 853.875 669.15 854.4C670.4 854.825 671.55 855.525 672.5 856.45C673.3 857.25 673.925 858.225 674.325 859.3C674.697 860.35 674.897 861.425 674.897 862.55C674.9 864.7 674.4 866.475 673.397 867.875V867.875ZM691.125 877.6C690.425 878.6 689.447 879.373 688.325 879.828C687.1 880.35 685.6 880.623 683.797 880.623C682.65 880.623 681.522 880.525 680.4 880.3C679.525 880.148 678.65 879.875 677.85 879.5C677.675 879.403 677.547 879.228 677.572 879.028V874.677C677.572 874.605 677.6 874.503 677.675 874.453C677.747 874.403 677.825 874.427 677.9 874.477C678.875 875.052 679.9 875.455 681 875.703C681.947 875.953 682.947 876.077 683.95 876.077C684.9 876.077 685.575 875.95 686.025 875.725C686.425 875.55 686.7 875.125 686.7 874.675C686.7 874.322 686.5 874 686.1 873.675C685.7 873.353 684.877 872.977 683.652 872.497C682.377 872.047 681.205 871.447 680.102 870.7C679.32 870.14 678.671 869.414 678.2 868.575C677.803 867.784 677.606 866.907 677.627 866.022C677.627 864.947 677.927 863.922 678.48 862.997C679.105 861.997 680.027 861.198 681.102 860.698C682.275 860.1 683.75 859.825 685.525 859.825C686.55 859.825 687.6 859.9 688.625 860.05C689.375 860.15 690.1 860.35 690.775 860.625C690.872 860.65 690.975 860.75 691.025 860.85C691.05 860.95 691.075 861.05 691.075 861.15V865.225C691.075 865.325 691.025 865.425 690.95 865.475C690.725 865.525 690.6 865.525 690.5 865.475C689.75 865.075 688.95 864.8 688.1 864.625C687.175 864.425 686.25 864.3 685.3 864.3C684.8 864.275 684.275 864.35 683.797 864.475C683.475 864.55 683.197 864.725 683.022 864.975C682.897 865.175 682.822 865.425 682.822 865.65C682.822 865.875 682.922 866.1 683.075 866.3C683.3 866.575 683.597 866.8 683.925 866.975C684.497 867.275 685.1 867.55 685.697 867.8C687.05 868.25 688.35 868.875 689.55 869.625C690.375 870.147 691.05 870.85 691.522 871.7C691.922 872.495 692.122 873.375 692.097 874.272C692.125 875.45 691.775 876.622 691.125 877.6V877.6Z"
        fill="#25A4AD" />
    </g>
    <g clip-path="url(#clip10_31_6234)">
      <path
        d="M668.825 933.825C668.575 933.05 668.35 932.3 668.1 931.525C667.85 930.75 667.625 930.025 667.425 929.3C667.225 928.6 667.05 927.95 666.875 927.35H666.825C666.6 928.425 666.325 929.5 665.975 930.575C665.6 931.775 665.225 933.025 664.825 934.275C664.475 935.55 664.1 936.725 663.725 937.775H670.075C669.925 937.247 669.725 936.625 669.5 935.972C669.275 935.3 669.05 934.575 668.825 933.825V933.825ZM691.875 907.75H653.125C647.25 907.75 642.5 912.5 642.5 918.375V955.625C642.5 961.5 647.25 966.25 653.125 966.25H691.875C697.75 966.25 702.5 961.5 702.5 955.625V918.375C702.5 912.5 697.75 907.75 691.875 907.75ZM679.25 949.075H674.022C673.85 949.1 673.675 948.975 673.625 948.8L671.575 942.85H662.275L660.375 948.725C660.325 948.95 660.125 949.1 659.9 949.077H655.2C654.925 949.077 654.85 948.925 654.925 948.627L662.975 925.45C663.05 925.2 663.125 924.925 663.225 924.625C663.325 924.1 663.375 923.55 663.375 923C663.35 922.875 663.45 922.75 663.575 922.725H670.05C670.25 922.725 670.35 922.8 670.375 922.925L679.5 948.675C679.575 948.947 679.5 949.075 679.25 949.075V949.075ZM687.75 948.7C687.75 948.975 687.652 949.1 687.427 949.1H682.525C682.275 949.1 682.15 948.947 682.15 948.7V929.45C682.15 929.2 682.252 929.1 682.477 929.1H687.427C687.652 929.1 687.75 929.225 687.75 929.45V948.7V948.7ZM687.227 926.125C686.932 926.425 686.576 926.658 686.183 926.809C685.791 926.96 685.37 927.025 684.95 927C684.125 927.025 683.325 926.7 682.722 926.125C682.15 925.499 681.845 924.673 681.872 923.825C681.847 922.975 682.172 922.175 682.77 921.6C683.375 921.025 684.175 920.725 685 920.725C685.977 920.725 686.722 921.025 687.275 921.6C687.825 922.2 688.125 923 688.1 923.825C688.125 924.675 687.825 925.5 687.227 926.125V926.125Z"
        fill="#FDB300" />
    </g>
    <g clip-path="url(#clip11_31_6234)">
      <path d="M672.5 976L653.933 977.973L639.559 997.364L672.5 1035.91L705.441 997.364L691.067 977.973L672.5 976Z"
        fill="#FDB300" />
      <path d="M639.559 997.364L672.5 1035.91L652.901 997.364H639.559Z"
        fill="#EB6C00" />
      <path d="M692.098 997.364L672.5 1035.91L705.441 997.364H692.098Z"
        fill="#EB6C00" />
      <path d="M652.901 997.364L672.5 1035.91L692.098 997.364H652.901Z"
        fill="#FDAD00" />
      <path d="M653.933 977.973L652.901 997.364L672.5 976L653.933 977.973Z"
        fill="#FDD231" />
      <path d="M692.098 997.364L691.067 977.973L672.5 976L692.098 997.364Z"
        fill="#FDD231" />
      <path d="M692.098 997.364H705.441L691.067 977.973L692.098 997.364Z"
        fill="#FDAD00" />
      <path d="M639.559 997.364H652.901L653.933 977.973L639.559 997.364Z"
        fill="#FDAD00" />
      <path d="M672.5 976L652.901 997.364H692.098L672.5 976Z"
        fill="#FEEEB7" />
    </g>
    <g clip-path="url(#clip12_31_6234)">
      <path
        d="M712.3 1067.86C710.43 1066.57 706.145 1066.08 702.796 1066.73C702.407 1063.49 700.615 1060.65 697.499 1058.13L695.707 1056.84L694.46 1058.7C692.903 1061.13 692.124 1064.54 692.357 1067.78C692.435 1068.92 692.824 1070.94 693.993 1072.73C692.903 1073.38 690.643 1074.19 687.683 1074.19H631.361L631.205 1074.84C630.66 1078.08 630.66 1088.21 637.048 1096C641.878 1101.92 649.044 1104.92 658.47 1104.92C678.88 1104.92 693.993 1095.11 701.082 1077.35C703.886 1077.43 709.885 1077.35 712.923 1071.27C713.001 1071.11 713.157 1070.78 713.702 1069.57L714.013 1068.92L712.3 1067.86ZM676.387 1045H667.819V1053.11H676.387V1045ZM676.387 1054.73H667.819V1062.84H676.387V1054.73V1054.73ZM666.26 1054.73H657.692V1062.84H666.26V1054.73V1054.73ZM656.133 1054.73H647.564V1062.84H656.133V1054.73V1054.73ZM646.006 1064.46H637.437V1072.57H646.006V1064.46L646.006 1064.46ZM656.133 1064.46H647.564V1072.57H656.133V1064.46V1064.46ZM666.26 1064.46H657.692V1072.57H666.26V1064.46V1064.46ZM676.388 1064.46H667.818V1072.57H676.388V1064.46V1064.46ZM686.515 1064.46H677.945V1072.57H686.515V1064.46V1064.46Z"
        fill="#2396ED" />
    </g>
    <g clip-path="url(#clip13_31_6234)">
      <path
        d="M701.297 1149.93C700.949 1148.87 700.037 1148.14 698.858 1147.96C698.302 1147.88 697.665 1147.91 696.912 1148.07C695.599 1148.34 694.624 1148.44 693.913 1148.46C696.597 1143.92 698.78 1138.74 700.036 1133.87C702.067 1125.98 700.982 1122.39 699.713 1120.77C696.356 1116.47 691.458 1114.16 685.549 1114.08C682.397 1114.05 679.629 1114.67 678.186 1115.12C676.842 1114.88 675.396 1114.75 673.88 1114.72C671.038 1114.68 668.526 1115.3 666.38 1116.58C665.192 1116.17 663.285 1115.61 661.083 1115.24C655.904 1114.39 651.73 1115.05 648.677 1117.22C644.98 1119.83 643.266 1124.38 643.583 1130.74C643.683 1132.75 644.809 1138.89 646.581 1144.71C647.6 1148.05 648.686 1150.83 649.809 1152.96C651.402 1155.99 653.107 1157.77 655.021 1158.41C656.094 1158.77 658.043 1159.02 660.092 1157.31C660.352 1157.63 660.699 1157.94 661.159 1158.23C661.743 1158.6 662.458 1158.9 663.171 1159.08C665.743 1159.72 668.151 1159.56 670.206 1158.66C670.219 1159.03 670.229 1159.38 670.237 1159.68C670.25 1160.17 670.264 1160.65 670.282 1161.1C670.404 1164.14 670.61 1166.5 671.221 1168.16C671.255 1168.25 671.3 1168.39 671.347 1168.53C671.652 1169.47 672.162 1171.04 673.46 1172.26C674.803 1173.53 676.428 1173.92 677.916 1173.92C678.663 1173.92 679.375 1173.83 680 1173.69C682.226 1173.21 684.755 1172.48 686.584 1169.87C688.314 1167.41 689.154 1163.69 689.306 1157.83C689.326 1157.66 689.344 1157.51 689.362 1157.36L689.398 1157.05L689.806 1157.08L689.911 1157.09C692.178 1157.19 694.951 1156.71 696.654 1155.92C698 1155.29 702.312 1153.01 701.297 1149.93"
        fill="black" />
      <path
        d="M697.419 1150.53C690.676 1151.92 690.213 1149.63 690.213 1149.63C697.332 1139.04 700.308 1125.6 697.74 1122.31C690.733 1113.34 678.604 1117.58 678.402 1117.69L678.336 1117.7C677.004 1117.43 675.513 1117.26 673.838 1117.24C670.787 1117.19 668.472 1118.04 666.716 1119.37C666.716 1119.37 645.079 1110.44 646.085 1130.61C646.299 1134.9 652.222 1163.08 659.285 1154.57C661.867 1151.46 664.362 1148.82 664.362 1148.82C665.601 1149.65 667.084 1150.07 668.639 1149.92L668.76 1149.82C668.722 1150.2 668.739 1150.58 668.808 1151.03C666.988 1153.07 667.523 1153.42 663.885 1154.17C660.204 1154.94 662.367 1156.29 663.779 1156.64C665.49 1157.07 669.45 1157.68 672.125 1153.93L672.019 1154.35C672.732 1154.93 673.232 1158.08 673.148 1160.93C673.065 1163.79 673.009 1165.75 673.57 1167.28C674.132 1168.81 674.692 1172.26 679.474 1171.23C683.47 1170.38 685.541 1168.15 685.829 1164.44C686.033 1161.8 686.496 1162.19 686.525 1159.84L686.896 1158.72C687.324 1155.14 686.964 1153.99 689.426 1154.53L690.024 1154.58C691.836 1154.66 694.208 1154.29 695.599 1153.64C698.596 1152.24 700.374 1149.92 697.419 1150.53H697.419"
        fill="#336791" />
      <path
        d="M667.983 1132.53C667.375 1132.44 666.825 1132.52 666.546 1132.73C666.39 1132.85 666.341 1132.99 666.328 1133.08C666.293 1133.34 666.469 1133.61 666.577 1133.76C666.882 1134.16 667.328 1134.44 667.769 1134.5C667.833 1134.51 667.896 1134.52 667.96 1134.52C668.695 1134.52 669.364 1133.94 669.423 1133.52C669.497 1132.99 668.728 1132.63 667.983 1132.53"
        fill="white" />
      <path
        d="M688.113 1132.55C688.055 1132.13 687.316 1132.01 686.615 1132.11C685.915 1132.21 685.236 1132.52 685.293 1132.94C685.338 1133.26 685.922 1133.82 686.614 1133.82C686.672 1133.82 686.731 1133.81 686.791 1133.81C687.252 1133.74 687.591 1133.45 687.752 1133.28C687.997 1133.02 688.139 1132.73 688.113 1132.55"
        fill="white" />
      <path
        d="M699.663 1150.37C699.406 1149.59 698.578 1149.34 697.203 1149.62C693.121 1150.47 691.659 1149.88 691.179 1149.53C694.352 1144.68 696.963 1138.83 698.371 1133.36C699.038 1130.77 699.406 1128.37 699.436 1126.41C699.47 1124.26 699.104 1122.68 698.351 1121.71C695.312 1117.82 690.852 1115.73 685.454 1115.68C681.742 1115.63 678.607 1116.59 677.999 1116.85C676.719 1116.53 675.323 1116.34 673.804 1116.31C671.018 1116.27 668.609 1116.94 666.615 1118.3C665.749 1117.98 663.511 1117.21 660.774 1116.76C656.041 1116 652.281 1116.58 649.597 1118.49C646.395 1120.76 644.917 1124.82 645.203 1130.57C645.299 1132.5 646.398 1138.44 648.131 1144.13C650.412 1151.63 652.892 1155.87 655.501 1156.74C655.807 1156.84 656.159 1156.91 656.547 1156.91C657.499 1156.91 658.666 1156.48 659.88 1155.02C661.361 1153.24 662.893 1151.5 664.474 1149.81C665.5 1150.36 666.627 1150.67 667.779 1150.7C667.781 1150.73 667.784 1150.76 667.787 1150.79C667.589 1151.03 667.394 1151.27 667.204 1151.51C666.406 1152.53 666.24 1152.74 663.669 1153.27C662.938 1153.42 660.996 1153.82 660.967 1155.19C660.937 1156.68 663.263 1157.31 663.528 1157.37C664.452 1157.6 665.342 1157.72 666.19 1157.72C668.254 1157.72 670.071 1157.04 671.522 1155.72C671.478 1161.04 671.699 1166.27 672.335 1167.87C672.857 1169.18 674.131 1172.37 678.154 1172.37C678.745 1172.37 679.394 1172.3 680.109 1172.15C684.309 1171.24 686.132 1169.38 686.838 1165.28C687.215 1163.09 687.863 1157.86 688.168 1155.05C688.811 1155.25 689.638 1155.34 690.533 1155.34C692.4 1155.34 694.554 1154.94 695.904 1154.31C697.421 1153.61 700.159 1151.88 699.663 1150.37V1150.37ZM689.663 1131.4C689.649 1132.23 689.535 1132.98 689.414 1133.76C689.284 1134.61 689.15 1135.48 689.116 1136.54C689.083 1137.57 689.212 1138.65 689.336 1139.68C689.587 1141.78 689.845 1143.94 688.847 1146.07C688.681 1145.77 688.534 1145.47 688.405 1145.15C688.281 1144.85 688.012 1144.37 687.639 1143.7C686.188 1141.09 682.79 1134.98 684.529 1132.49C685.048 1131.75 686.362 1130.99 689.663 1131.4V1131.4ZM685.662 1117.35C690.499 1117.46 694.326 1119.27 697.035 1122.74C699.112 1125.41 696.824 1137.52 690.201 1147.97C690.134 1147.88 690.067 1147.8 690 1147.71L689.916 1147.61C691.628 1144.77 691.293 1141.97 690.995 1139.48C690.873 1138.46 690.757 1137.5 690.787 1136.6C690.817 1135.64 690.943 1134.81 691.066 1134.02C691.216 1133.04 691.369 1132.02 691.327 1130.83C691.359 1130.7 691.371 1130.55 691.355 1130.38C691.247 1129.23 689.941 1125.8 687.279 1122.69C685.823 1121 683.7 1119.09 680.801 1117.81C682.048 1117.55 683.753 1117.31 685.662 1117.35V1117.35ZM658.595 1153.95C657.258 1155.56 656.334 1155.25 656.03 1155.15C654.051 1154.49 651.754 1150.3 649.729 1143.65C647.977 1137.89 646.953 1132.11 646.872 1130.48C646.616 1125.35 647.857 1121.78 650.56 1119.85C654.96 1116.73 662.193 1118.6 665.099 1119.55C665.058 1119.59 665.014 1119.63 664.973 1119.67C660.203 1124.5 660.316 1132.75 660.328 1133.25C660.328 1133.45 660.344 1133.72 660.366 1134.1C660.448 1135.49 660.601 1138.07 660.193 1140.99C659.814 1143.71 660.65 1146.37 662.486 1148.29C662.674 1148.49 662.872 1148.68 663.079 1148.85C662.262 1149.73 660.486 1151.67 658.595 1153.95V1153.95ZM663.692 1147.13C662.212 1145.59 661.54 1143.43 661.848 1141.23C662.279 1138.14 662.12 1135.45 662.034 1134C662.022 1133.8 662.012 1133.62 662.006 1133.48C662.702 1132.86 665.931 1131.13 668.234 1131.66C669.285 1131.9 669.925 1132.62 670.191 1133.85C671.569 1140.24 670.373 1142.9 669.413 1145.04C669.215 1145.48 669.028 1145.89 668.868 1146.33L668.745 1146.66C668.431 1147.5 668.14 1148.28 667.959 1149.03C666.386 1149.02 664.856 1148.35 663.692 1147.13V1147.13ZM663.934 1155.75C663.474 1155.63 663.061 1155.43 662.819 1155.27C663.021 1155.17 663.381 1155.04 664.006 1154.91C667.03 1154.29 667.497 1153.85 668.517 1152.55C668.751 1152.25 669.016 1151.91 669.383 1151.5L669.384 1151.5C669.93 1150.89 670.18 1150.99 670.634 1151.18C671.001 1151.33 671.359 1151.8 671.504 1152.3C671.573 1152.54 671.65 1153 671.398 1153.35C669.267 1156.34 666.163 1156.31 663.934 1155.75V1155.75ZM679.759 1170.51C676.06 1171.3 674.75 1169.41 673.887 1167.25C673.33 1165.85 673.056 1159.55 673.25 1152.6C673.253 1152.51 673.24 1152.42 673.214 1152.33C673.191 1152.17 673.157 1152 673.111 1151.84C672.822 1150.83 672.118 1149.99 671.273 1149.63C670.938 1149.5 670.322 1149.24 669.582 1149.43C669.74 1148.78 670.013 1148.04 670.31 1147.24L670.435 1146.91C670.575 1146.53 670.751 1146.14 670.937 1145.72C671.942 1143.49 673.318 1140.42 671.824 1133.5C671.265 1130.9 669.396 1129.63 666.563 1129.93C664.865 1130.1 663.311 1130.79 662.536 1131.19C662.37 1131.27 662.217 1131.35 662.075 1131.43C662.291 1128.82 663.108 1123.93 666.165 1120.84C668.09 1118.9 670.653 1117.94 673.776 1117.99C679.93 1118.09 683.876 1121.25 686.103 1123.89C688.022 1126.17 689.061 1128.46 689.475 1129.69C686.357 1129.37 684.236 1129.99 683.16 1131.53C680.821 1134.88 684.44 1141.39 686.179 1144.51C686.498 1145.09 686.774 1145.58 686.86 1145.79C687.427 1147.17 688.16 1148.09 688.695 1148.76C688.859 1148.96 689.019 1149.16 689.14 1149.34C688.195 1149.61 686.498 1150.24 686.653 1153.39C686.528 1154.97 685.642 1162.38 685.191 1165C684.596 1168.45 683.327 1169.74 679.759 1170.51V1170.51ZM695.201 1152.8C694.235 1153.24 692.618 1153.58 691.083 1153.65C689.387 1153.73 688.524 1153.46 688.32 1153.3C688.225 1151.33 688.955 1151.13 689.727 1150.91C689.848 1150.88 689.966 1150.84 690.081 1150.8C690.152 1150.86 690.229 1150.92 690.315 1150.98C691.678 1151.88 694.109 1151.97 697.541 1151.26L697.579 1151.26C697.116 1151.69 696.324 1152.27 695.201 1152.8Z"
        fill="white" />
    </g>
    <g clip-path="url(#clip14_31_6234)">
      <path
        d="M673.779 1242.87L672.23 1242.34C672.23 1242.34 672.436 1234.23 669.6 1233.66C667.744 1231.43 669.874 1138.2 676.66 1233.34C675.373 1234.02 674.387 1235.18 673.911 1236.59C673.655 1238.68 673.611 1240.78 673.779 1242.87V1242.87Z"
        fill="url(#paint3_linear_31_6234)" />
      <path
        d="M674.616 1235.04C678.74 1231.83 681.899 1227.47 683.724 1222.48C685.55 1217.48 685.967 1212.05 684.929 1206.82C681.897 1192.98 674.717 1188.44 673.944 1186.7C673.276 1185.62 672.707 1184.47 672.242 1183.29L672.813 1221.84C672.813 1221.84 671.63 1233.62 674.616 1235.04Z"
        fill="url(#paint4_linear_31_6234)" />
      <path
        d="M671.442 1235.55C671.442 1235.55 658.817 1226.66 659.547 1210.92C659.616 1206.18 660.667 1201.5 662.631 1197.22C664.594 1192.93 667.425 1189.13 670.93 1186.07C671.34 1185.71 671.666 1185.26 671.882 1184.75C672.099 1184.24 672.202 1183.69 672.182 1183.13C672.968 1184.88 672.84 1209.25 672.923 1212.1C673.242 1223.19 672.327 1233.46 671.442 1235.55V1235.55Z"
        fill="url(#paint5_linear_31_6234)" />
    </g>
    <g clip-path="url(#clip15_31_6234)">
      <path
        d="M672.5 1311.89C671.675 1311.89 670.904 1311.67 670.189 1311.28L662.871 1306.94C661.771 1306.33 662.321 1306.11 662.651 1306C664.137 1305.51 664.412 1305.4 665.952 1304.52C666.118 1304.41 666.338 1304.46 666.503 1304.57L672.115 1307.93C672.335 1308.04 672.61 1308.04 672.775 1307.93L694.728 1295.22C694.948 1295.11 695.058 1294.89 695.058 1294.61V1269.25C695.058 1268.97 694.948 1268.75 694.728 1268.64L672.775 1255.99C672.555 1255.88 672.28 1255.88 672.115 1255.99L650.162 1268.64C649.942 1268.75 649.832 1269.03 649.832 1269.25V1294.61C649.832 1294.83 649.942 1295.11 650.162 1295.22L656.159 1298.68C659.405 1300.33 661.441 1298.41 661.441 1296.48V1271.45C661.441 1271.12 661.716 1270.79 662.101 1270.79H664.907C665.237 1270.79 665.568 1271.06 665.568 1271.45V1296.48C665.568 1300.83 663.202 1303.36 659.075 1303.36C657.81 1303.36 656.819 1303.36 654.013 1301.99L648.236 1298.68C646.806 1297.86 645.926 1296.32 645.926 1294.67V1269.3C645.926 1267.65 646.806 1266.11 648.236 1265.29L670.189 1252.58C671.565 1251.81 673.435 1251.81 674.811 1252.58L696.764 1265.29C698.194 1266.11 699.074 1267.65 699.074 1269.3V1294.67C699.074 1296.32 698.194 1297.86 696.764 1298.68L674.811 1311.39C674.095 1311.72 673.27 1311.89 672.5 1311.89V1311.89ZM679.267 1294.45C669.639 1294.45 667.658 1290.05 667.658 1286.3C667.658 1285.97 667.933 1285.64 668.318 1285.64H671.179C671.509 1285.64 671.785 1285.86 671.785 1286.19C672.225 1289.11 673.49 1290.54 679.322 1290.54C683.944 1290.54 685.925 1289.5 685.925 1287.02C685.925 1285.59 685.375 1284.54 678.167 1283.83C672.17 1283.22 668.428 1281.9 668.428 1277.12C668.428 1272.66 672.17 1270.02 678.442 1270.02C685.484 1270.02 688.951 1272.44 689.391 1277.72C689.391 1277.89 689.336 1278.05 689.226 1278.22C689.116 1278.33 688.951 1278.44 688.786 1278.44H685.925C685.649 1278.44 685.375 1278.22 685.319 1277.94C684.659 1274.92 682.954 1273.93 678.442 1273.93C673.38 1273.93 672.775 1275.69 672.775 1277.01C672.775 1278.6 673.49 1279.1 680.313 1279.98C687.08 1280.86 690.271 1282.12 690.271 1286.85C690.216 1291.7 686.255 1294.45 679.267 1294.45V1294.45Z"
        fill="#539E43" />
    </g>
  </g>
  <path
    d="M1306.82 696.174L1296.04 702.994L1302.57 691.121C1300.72 689.646 1298.43 688.829 1296.07 688.8H1295.9C1295.15 688.814 1294.4 688.759 1293.66 688.633L1290.02 690.948L1291.58 688.107C1288.99 687.2 1286.76 685.502 1285.2 683.255L1278.68 687.414L1282.8 679.914C1278.98 675.333 1273.84 672.526 1268.18 672.526C1261.39 672.526 1255.35 676.56 1251.45 682.853C1250.29 684.738 1248.66 686.282 1246.71 687.329C1244.76 688.376 1242.57 688.888 1240.36 688.814H1240C1232.51 688.814 1226.44 697.304 1226.44 707.783C1226.44 718.262 1232.51 726.752 1240 726.752C1241.64 726.747 1243.27 726.34 1244.72 725.567C1247.27 724.33 1250.06 723.66 1252.89 723.605C1255.73 723.55 1258.54 724.111 1261.14 725.249C1263.33 726.234 1265.71 726.747 1268.11 726.752C1270.52 726.758 1272.9 726.258 1275.1 725.283C1277.67 724.167 1280.46 723.617 1283.26 723.671C1286.07 723.725 1288.83 724.381 1291.36 725.595C1292.81 726.349 1294.41 726.746 1296.04 726.752C1303.53 726.752 1309.6 718.262 1309.6 707.783C1309.66 703.741 1308.71 699.749 1306.82 696.174V696.174Z"
    fill="#F2F2F2" />
  <path opacity="0.03"
    d="M1286.55 723.932C1282.63 723.191 1278.59 723.63 1274.92 725.193C1272.73 726.175 1270.35 726.683 1267.95 726.683C1265.54 726.683 1263.17 726.175 1260.97 725.193C1258.37 724.052 1255.56 723.49 1252.73 723.545C1249.89 723.6 1247.1 724.271 1244.55 725.512C1243.1 726.283 1241.47 726.689 1239.83 726.697C1233.17 726.697 1227.63 719.988 1226.48 711.144C1227.81 710.178 1228.94 708.96 1229.81 707.561C1233.71 701.275 1239.76 697.241 1246.54 697.241C1253.33 697.241 1259.31 701.192 1263.2 707.429C1264.37 709.315 1266 710.865 1267.95 711.931C1269.89 712.996 1272.08 713.539 1274.29 713.508H1274.47C1279.73 713.494 1284.31 717.735 1286.55 723.932Z"
    fill="black" />
  <path
    d="M1105.85 1262.39L1083.54 1276.5L1097.05 1251.93C1093.23 1248.88 1088.49 1247.19 1083.6 1247.13H1083.24C1081.69 1247.16 1080.15 1247.04 1078.62 1246.78L1071.07 1251.57L1074.3 1245.69C1068.96 1243.81 1064.34 1240.3 1061.1 1235.65L1047.6 1244.26L1056.13 1228.73C1048.24 1219.25 1037.59 1213.44 1025.87 1213.44C1011.83 1213.44 999.317 1221.79 991.241 1234.82C988.846 1238.72 985.46 1241.91 981.428 1244.08C977.396 1246.25 972.862 1247.31 968.288 1247.15H967.542C952.034 1247.15 939.467 1264.73 939.467 1286.42C939.467 1308.11 952.034 1325.68 967.542 1325.68C970.949 1325.67 974.303 1324.83 977.311 1323.23C982.591 1320.67 988.364 1319.28 994.231 1319.17C1000.1 1319.05 1005.92 1320.21 1011.3 1322.57C1015.84 1324.61 1020.76 1325.67 1025.73 1325.68C1030.71 1325.69 1035.64 1324.66 1040.19 1322.64C1045.52 1320.33 1051.28 1319.19 1057.09 1319.3C1062.9 1319.41 1068.62 1320.77 1073.86 1323.29C1076.85 1324.85 1080.17 1325.67 1083.54 1325.68C1099.05 1325.68 1111.61 1308.11 1111.61 1286.42C1111.74 1278.05 1109.75 1269.79 1105.85 1262.39V1262.39Z"
    fill="#F2F2F2" />
  <path opacity="0.03"
    d="M1063.89 1319.84C1055.79 1318.31 1047.41 1319.22 1039.83 1322.45C1035.29 1324.49 1030.37 1325.54 1025.39 1325.54C1020.41 1325.54 1015.49 1324.49 1010.95 1322.45C1005.58 1320.09 999.755 1318.93 993.886 1319.04C988.018 1319.16 982.245 1320.55 976.967 1323.11C973.951 1324.71 970.595 1325.55 967.183 1325.57C953.411 1325.57 941.949 1311.68 939.568 1293.38C942.323 1291.37 944.662 1288.85 946.454 1285.96C954.53 1272.95 967.04 1264.6 981.084 1264.6C995.128 1264.6 1007.51 1272.77 1015.57 1285.69C1017.98 1289.59 1021.37 1292.8 1025.39 1295C1029.41 1297.21 1033.94 1298.33 1038.52 1298.27H1038.88C1049.77 1298.24 1059.27 1307.02 1063.89 1319.84Z"
    fill="black" />
  <g clip-path="url(#clip16_31_6234)">
    <path
      d="M1015.23 1310.31C1013.58 1310.31 1012.03 1309.58 1010.97 1308.26L994.941 1288.35C993.888 1287.02 993.476 1285.33 993.888 1283.68L999.613 1258.83C999.98 1257.18 1001.08 1255.85 1002.59 1255.12L1025.77 1244.04C1026.5 1243.68 1027.33 1243.49 1028.15 1243.49C1028.98 1243.49 1029.8 1243.68 1030.53 1244.04L1053.71 1255.07C1055.22 1255.81 1056.32 1257.13 1056.69 1258.78L1062.41 1283.63C1062.78 1285.28 1062.41 1286.97 1061.36 1288.3L1045.33 1308.21C1044.27 1309.49 1042.72 1310.27 1041.07 1310.27L1015.23 1310.31H1015.23Z"
      fill="#326DE6" />
    <path
      d="M1028.1 1244.64C1028.75 1244.64 1029.39 1244.78 1029.98 1245.05L1053.16 1256.08C1054.35 1256.68 1055.27 1257.77 1055.54 1259.06L1061.27 1283.91C1061.59 1285.23 1061.27 1286.61 1060.4 1287.66L1044.37 1307.57C1043.54 1308.62 1042.26 1309.22 1040.93 1309.22H1015.23C1013.9 1309.22 1012.62 1308.62 1011.8 1307.57L995.766 1287.66C994.941 1286.61 994.62 1285.23 994.895 1283.91L1000.62 1259.06C1000.94 1257.73 1001.81 1256.63 1003 1256.08L1026.18 1245C1026.78 1244.78 1027.46 1244.64 1028.1 1244.64L1028.1 1244.64ZM1028.1 1242.49C1027.14 1242.49 1026.18 1242.72 1025.26 1243.13L1002.09 1254.2C1000.25 1255.07 998.972 1256.68 998.514 1258.64L992.788 1283.5C992.33 1285.46 992.788 1287.48 994.071 1289.08L1010.1 1308.99C1011.34 1310.54 1013.22 1311.41 1015.19 1311.41H1040.88C1042.85 1311.41 1044.73 1310.54 1045.97 1308.99L1062 1289.08C1063.28 1287.52 1063.74 1285.46 1063.28 1283.5L1057.56 1258.64C1057.1 1256.68 1055.82 1255.07 1053.99 1254.2L1030.9 1243.13C1030.03 1242.72 1029.07 1242.49 1028.1 1242.49V1242.49Z"
      fill="white" />
    <path
      d="M1051.33 1281.94C1051.28 1281.94 1051.28 1281.94 1051.33 1281.94H1051.28C1051.24 1281.94 1051.19 1281.94 1051.19 1281.89C1051.1 1281.89 1051.01 1281.85 1050.92 1281.85C1050.6 1281.8 1050.32 1281.76 1050.05 1281.76C1049.91 1281.76 1049.77 1281.76 1049.59 1281.71H1049.54C1048.58 1281.62 1047.8 1281.53 1047.07 1281.3C1046.75 1281.16 1046.66 1280.98 1046.56 1280.79C1046.56 1280.75 1046.52 1280.75 1046.52 1280.7L1045.92 1280.52C1046.2 1278.37 1046.1 1276.18 1045.6 1274.07C1045.1 1271.93 1044.23 1269.91 1043.04 1268.07L1043.5 1267.66V1267.57C1043.5 1267.34 1043.54 1267.11 1043.72 1266.88C1044.27 1266.38 1044.96 1265.97 1045.79 1265.46C1045.92 1265.37 1046.06 1265.33 1046.2 1265.23C1046.47 1265.1 1046.7 1264.96 1046.98 1264.78C1047.02 1264.73 1047.11 1264.68 1047.21 1264.59C1047.25 1264.55 1047.3 1264.55 1047.3 1264.5C1047.94 1263.95 1048.08 1263.04 1047.62 1262.44C1047.39 1262.12 1046.98 1261.94 1046.56 1261.94C1046.2 1261.94 1045.88 1262.08 1045.56 1262.3L1045.47 1262.4C1045.37 1262.44 1045.33 1262.53 1045.24 1262.58C1045.01 1262.81 1044.82 1262.99 1044.64 1263.22C1044.55 1263.31 1044.46 1263.45 1044.32 1263.54C1043.68 1264.23 1043.08 1264.78 1042.49 1265.19C1042.35 1265.28 1042.21 1265.33 1042.08 1265.33C1041.98 1265.33 1041.89 1265.33 1041.8 1265.28H1041.71L1041.16 1265.65C1040.56 1265.01 1039.92 1264.46 1039.28 1263.91C1036.52 1261.75 1033.2 1260.43 1029.71 1260.11L1029.66 1259.51L1029.57 1259.42C1029.43 1259.28 1029.25 1259.15 1029.2 1258.83C1029.16 1258.09 1029.25 1257.27 1029.34 1256.36V1256.31C1029.34 1256.17 1029.39 1255.99 1029.43 1255.85C1029.48 1255.58 1029.52 1255.3 1029.57 1254.98V1254.57C1029.57 1253.75 1028.93 1253.06 1028.15 1253.06C1027.78 1253.06 1027.42 1253.24 1027.14 1253.52C1026.87 1253.79 1026.73 1254.16 1026.73 1254.57V1254.94C1026.73 1255.26 1026.78 1255.53 1026.87 1255.81C1026.91 1255.94 1026.91 1256.08 1026.96 1256.26V1256.31C1027.05 1257.22 1027.19 1258.05 1027.1 1258.78C1027.05 1259.1 1026.87 1259.24 1026.73 1259.38L1026.64 1259.47L1026.59 1260.06C1025.77 1260.15 1024.94 1260.25 1024.12 1260.43C1020.59 1261.21 1017.48 1262.99 1015.05 1265.55L1014.59 1265.23H1014.5C1014.41 1265.23 1014.32 1265.28 1014.23 1265.28C1014.09 1265.28 1013.95 1265.23 1013.81 1265.14C1013.22 1264.73 1012.62 1264.14 1011.98 1263.45C1011.89 1263.36 1011.8 1263.22 1011.66 1263.13C1011.48 1262.9 1011.29 1262.72 1011.06 1262.49C1011.02 1262.44 1010.93 1262.4 1010.84 1262.3C1010.79 1262.26 1010.74 1262.26 1010.74 1262.21C1010.46 1261.98 1010.1 1261.85 1009.74 1261.85C1009.32 1261.85 1008.91 1262.03 1008.68 1262.35C1008.22 1262.95 1008.36 1263.86 1009 1264.41C1009.05 1264.41 1009.05 1264.46 1009.1 1264.46C1009.19 1264.5 1009.23 1264.59 1009.32 1264.64C1009.6 1264.82 1009.83 1264.96 1010.1 1265.1C1010.24 1265.14 1010.38 1265.23 1010.52 1265.33C1011.34 1265.83 1012.03 1266.24 1012.58 1266.74C1012.81 1266.97 1012.81 1267.2 1012.81 1267.43V1267.52L1013.26 1267.93C1013.17 1268.07 1013.08 1268.16 1013.03 1268.3C1010.74 1271.92 1009.87 1276.17 1010.47 1280.38L1009.87 1280.57C1009.87 1280.61 1009.83 1280.61 1009.83 1280.66C1009.74 1280.84 1009.6 1281.02 1009.32 1281.16C1008.64 1281.39 1007.81 1281.48 1006.85 1281.57H1006.8C1006.67 1281.57 1006.48 1281.57 1006.35 1281.62C1006.07 1281.62 1005.8 1281.66 1005.48 1281.71C1005.38 1281.71 1005.29 1281.76 1005.2 1281.76C1005.16 1281.76 1005.11 1281.76 1005.06 1281.8C1004.24 1281.98 1003.74 1282.76 1003.87 1283.5C1004.01 1284.14 1004.61 1284.55 1005.34 1284.55C1005.48 1284.55 1005.57 1284.55 1005.71 1284.5C1005.75 1284.5 1005.8 1284.5 1005.8 1284.46C1005.89 1284.46 1005.98 1284.41 1006.07 1284.41C1006.39 1284.32 1006.62 1284.23 1006.9 1284.09C1007.03 1284.04 1007.17 1283.95 1007.31 1283.91H1007.35C1008.22 1283.59 1009 1283.31 1009.74 1283.22H1009.83C1010.1 1283.22 1010.29 1283.36 1010.42 1283.45C1010.47 1283.45 1010.47 1283.5 1010.52 1283.5L1011.16 1283.4C1012.26 1286.79 1014.36 1289.81 1017.16 1292.01C1017.8 1292.51 1018.44 1292.92 1019.13 1293.34L1018.85 1293.93C1018.85 1293.98 1018.9 1293.98 1018.9 1294.02C1018.99 1294.2 1019.08 1294.43 1018.99 1294.75C1018.71 1295.44 1018.3 1296.13 1017.8 1296.91V1296.95C1017.71 1297.09 1017.62 1297.18 1017.52 1297.32C1017.34 1297.55 1017.2 1297.77 1017.02 1298.05C1016.97 1298.1 1016.93 1298.19 1016.88 1298.28C1016.88 1298.32 1016.84 1298.37 1016.84 1298.37C1016.47 1299.15 1016.74 1300.02 1017.43 1300.34C1017.62 1300.43 1017.8 1300.48 1017.98 1300.48C1018.53 1300.48 1019.08 1300.11 1019.36 1299.61C1019.36 1299.56 1019.4 1299.51 1019.4 1299.51C1019.45 1299.42 1019.49 1299.33 1019.54 1299.28C1019.68 1298.96 1019.72 1298.74 1019.81 1298.46L1019.95 1298.05C1020.27 1297.13 1020.5 1296.4 1020.91 1295.76C1021.1 1295.49 1021.33 1295.44 1021.51 1295.35C1021.55 1295.35 1021.55 1295.35 1021.6 1295.3L1021.92 1294.71C1023.94 1295.49 1026.14 1295.9 1028.33 1295.9C1029.66 1295.9 1031.04 1295.76 1032.32 1295.44C1033.13 1295.26 1033.92 1295.03 1034.7 1294.75L1034.98 1295.26C1035.02 1295.26 1035.02 1295.26 1035.07 1295.3C1035.3 1295.35 1035.48 1295.44 1035.66 1295.72C1036.03 1296.36 1036.3 1297.13 1036.62 1298V1298.05L1036.76 1298.46C1036.85 1298.74 1036.9 1299.01 1037.04 1299.28C1037.08 1299.38 1037.13 1299.42 1037.17 1299.51C1037.17 1299.56 1037.22 1299.61 1037.22 1299.61C1037.5 1300.15 1038.04 1300.48 1038.59 1300.48C1038.78 1300.48 1038.96 1300.43 1039.14 1300.34C1039.46 1300.15 1039.74 1299.88 1039.83 1299.51C1039.92 1299.15 1039.92 1298.74 1039.74 1298.37C1039.74 1298.32 1039.69 1298.32 1039.69 1298.28C1039.65 1298.19 1039.6 1298.1 1039.56 1298.05C1039.42 1297.77 1039.24 1297.55 1039.05 1297.32C1038.96 1297.18 1038.87 1297.09 1038.78 1296.95V1296.91C1038.27 1296.13 1037.82 1295.44 1037.59 1294.75C1037.5 1294.43 1037.59 1294.25 1037.63 1294.02C1037.63 1293.98 1037.68 1293.98 1037.68 1293.93L1037.45 1293.38C1039.88 1291.96 1041.94 1289.95 1043.5 1287.48C1044.32 1286.2 1044.96 1284.78 1045.42 1283.36L1045.97 1283.45C1046.02 1283.45 1046.02 1283.4 1046.06 1283.4C1046.24 1283.31 1046.38 1283.17 1046.66 1283.17H1046.75C1047.48 1283.27 1048.26 1283.54 1049.13 1283.86H1049.18C1049.31 1283.91 1049.45 1284 1049.59 1284.04C1049.86 1284.18 1050.09 1284.27 1050.41 1284.36C1050.5 1284.36 1050.6 1284.41 1050.69 1284.41C1050.73 1284.41 1050.78 1284.41 1050.82 1284.46C1050.96 1284.5 1051.05 1284.5 1051.19 1284.5C1051.88 1284.5 1052.47 1284.04 1052.66 1283.45C1052.66 1282.9 1052.15 1282.17 1051.33 1281.94V1281.94ZM1030.12 1279.7L1028.1 1280.66L1026.09 1279.7L1025.59 1277.55L1026.96 1275.81H1029.2L1030.58 1277.55L1030.12 1279.7H1030.12ZM1042.08 1274.94C1042.43 1276.45 1042.54 1278.01 1042.4 1279.56L1035.39 1277.55C1034.75 1277.36 1034.38 1276.72 1034.52 1276.08C1034.56 1275.9 1034.66 1275.71 1034.79 1275.58L1040.34 1270.59C1041.11 1271.87 1041.71 1273.33 1042.08 1274.94V1274.94ZM1038.14 1267.84L1032.14 1272.1C1031.63 1272.42 1030.94 1272.33 1030.53 1271.82C1030.4 1271.69 1030.35 1271.5 1030.3 1271.32L1029.89 1263.86C1033.01 1264.22 1035.92 1265.62 1038.14 1267.84V1267.84ZM1024.85 1264.09C1025.36 1264 1025.81 1263.91 1026.32 1263.82L1025.91 1271.14C1025.86 1271.78 1025.36 1272.33 1024.67 1272.33C1024.49 1272.33 1024.26 1272.28 1024.12 1272.19L1018.03 1267.84C1019.91 1265.97 1022.24 1264.68 1024.85 1264.09V1264.09ZM1015.83 1270.59L1021.28 1275.44C1021.78 1275.85 1021.83 1276.63 1021.42 1277.13C1021.28 1277.32 1021.1 1277.45 1020.87 1277.5L1013.77 1279.56C1013.49 1276.45 1014.18 1273.29 1015.83 1270.59V1270.59ZM1014.59 1282.99L1021.88 1281.76C1022.47 1281.71 1023.02 1282.12 1023.16 1282.72C1023.2 1282.99 1023.2 1283.22 1023.11 1283.45L1020.32 1290.18C1017.75 1288.53 1015.69 1286.01 1014.59 1282.99H1014.59ZM1031.31 1292.1C1030.26 1292.33 1029.2 1292.47 1028.1 1292.47C1026.5 1292.47 1024.94 1292.19 1023.48 1291.73L1027.1 1285.19C1027.46 1284.78 1028.06 1284.59 1028.56 1284.87C1028.78 1285 1028.96 1285.17 1029.11 1285.37L1032.64 1291.73C1032.23 1291.87 1031.77 1291.96 1031.31 1292.1H1031.31ZM1040.24 1285.74C1039.1 1287.57 1037.59 1289.03 1035.85 1290.18L1032.96 1283.27C1032.82 1282.72 1033.05 1282.12 1033.6 1281.85C1033.78 1281.76 1034.01 1281.71 1034.24 1281.71L1041.57 1282.95C1041.3 1283.95 1040.84 1284.87 1040.24 1285.74V1285.74Z"
      fill="white" />
  </g>
  <path
    d="M332.809 1350.14L316.611 1359.7L326.423 1343.06C323.645 1340.99 320.207 1339.85 316.653 1339.81H316.392C315.269 1339.83 314.146 1339.75 313.038 1339.57L307.559 1342.82L309.903 1338.84C306.022 1337.57 302.668 1335.19 300.32 1332.04L290.518 1337.87L296.706 1327.35C290.977 1320.93 283.248 1317 274.738 1317C264.54 1317 255.457 1322.65 249.592 1331.47C247.853 1334.11 245.395 1336.28 242.468 1337.75C239.54 1339.21 236.248 1339.93 232.926 1339.83H232.385C221.125 1339.83 212 1351.73 212 1366.41C212 1381.1 221.125 1393 232.385 1393C234.859 1392.99 237.294 1392.42 239.478 1391.34C243.312 1389.6 247.504 1388.67 251.764 1388.59C256.024 1388.51 260.252 1389.3 264.155 1390.89C267.452 1392.27 271.024 1392.99 274.638 1393C278.253 1393.01 281.829 1392.31 285.133 1390.94C289.004 1389.38 293.19 1388.61 297.408 1388.68C301.625 1388.76 305.777 1389.68 309.58 1391.38C311.751 1392.43 314.162 1392.99 316.611 1393C327.871 1393 336.996 1381.1 336.996 1366.41C337.086 1360.75 335.646 1355.15 332.809 1350.14V1350.14Z"
    fill="#F2F2F2" />
  <path opacity="0.03"
    d="M302.341 1389.05C296.459 1388.01 290.379 1388.62 284.873 1390.81C281.575 1392.19 278.002 1392.9 274.389 1392.9C270.775 1392.9 267.203 1392.19 263.905 1390.81C260.003 1389.22 255.775 1388.43 251.514 1388.5C247.253 1388.58 243.061 1389.52 239.228 1391.26C237.039 1392.34 234.601 1392.91 232.124 1392.92C222.125 1392.92 213.802 1383.52 212.073 1371.12C214.074 1369.77 215.772 1368.06 217.073 1366.1C222.937 1357.29 232.02 1351.64 242.218 1351.64C252.415 1351.64 261.405 1357.18 267.259 1365.92C269.01 1368.56 271.466 1370.73 274.387 1372.23C277.308 1373.72 280.594 1374.48 283.925 1374.44H284.185C292.091 1374.42 298.987 1380.36 302.341 1389.05Z"
    fill="black" />
  <path
    d="M393.055 1175.38L385.54 1179.81L390.092 1172.09C388.803 1171.13 387.208 1170.6 385.559 1170.58H385.438C384.917 1170.59 384.396 1170.56 383.882 1170.47L381.34 1171.98L382.427 1170.13C380.626 1169.54 379.07 1168.44 377.98 1166.98L373.432 1169.68L376.303 1164.8C373.645 1161.83 370.059 1160 366.11 1160C361.378 1160 357.164 1162.62 354.443 1166.72C353.636 1167.94 352.495 1168.95 351.137 1169.63C349.779 1170.31 348.251 1170.64 346.71 1170.59H346.458C341.234 1170.59 337 1176.11 337 1182.93C337 1189.74 341.234 1195.26 346.458 1195.26C347.607 1195.26 348.736 1195 349.75 1194.49C351.529 1193.69 353.474 1193.25 355.45 1193.22C357.427 1193.18 359.389 1193.55 361.2 1194.29C362.73 1194.93 364.387 1195.26 366.064 1195.26C367.741 1195.27 369.4 1194.94 370.934 1194.31C372.73 1193.58 374.672 1193.22 376.629 1193.26C378.586 1193.29 380.512 1193.72 382.277 1194.51C383.285 1195 384.403 1195.26 385.54 1195.26C390.764 1195.26 394.998 1189.74 394.998 1182.93C395.04 1180.3 394.372 1177.7 393.055 1175.38V1175.38Z"
    fill="#F2F2F2" />
  <path opacity="0.03"
    d="M378.918 1193.43C376.189 1192.95 373.368 1193.23 370.813 1194.25C369.283 1194.89 367.625 1195.22 365.948 1195.22C364.272 1195.22 362.614 1194.89 361.084 1194.25C359.273 1193.51 357.311 1193.14 355.334 1193.18C353.357 1193.21 351.412 1193.65 349.634 1194.46C348.618 1194.96 347.487 1195.22 346.338 1195.23C341.698 1195.23 337.836 1190.86 337.034 1185.11C337.962 1184.49 338.75 1183.69 339.354 1182.78C342.075 1178.7 346.289 1176.07 351.021 1176.07C355.753 1176.07 359.924 1178.64 362.64 1182.7C363.453 1183.92 364.592 1184.93 365.948 1185.63C367.303 1186.32 368.828 1186.67 370.373 1186.65H370.494C374.162 1186.64 377.362 1189.4 378.918 1193.43Z"
    fill="black" />
  <defs>
    <linearGradient id="paint0_linear_31_6234"
      x1="-6.10352e-05"
      y1="713.846"
      x2="1345"
      y2="713.846"
      gradientUnits="userSpaceOnUse">
      <stop stop-color="#99BBFF" />
      <stop offset="0.489583"
        stop-color="#CCCCFF" />
      <stop offset="1"
        stop-color="#99BBFF" />
    </linearGradient>
    <linearGradient id="paint1_linear_31_6234"
      x1="630.861"
      y1="530.04"
      x2="698.514"
      y2="569.048"
      gradientUnits="userSpaceOnUse">
      <stop stop-color="#2298BD" />
      <stop offset="1"
        stop-color="#0ED7B5" />
    </linearGradient>
    <linearGradient id="paint2_linear_31_6234"
      x1="671.679"
      y1="610.735"
      x2="676.84"
      y2="612.594"
      gradientUnits="userSpaceOnUse">
      <stop />
      <stop offset="1"
        stop-opacity="0" />
    </linearGradient>
    <linearGradient id="paint3_linear_31_6234"
      x1="663.366"
      y1="1213.54"
      x2="681.291"
      y2="1219.42"
      gradientUnits="userSpaceOnUse">
      <stop offset="0.231"
        stop-color="#999875" />
      <stop offset="0.563"
        stop-color="#9B9977" />
      <stop offset="0.683"
        stop-color="#A09F7E" />
      <stop offset="0.768"
        stop-color="#A9A889" />
      <stop offset="0.837"
        stop-color="#B7B69A" />
      <stop offset="0.896"
        stop-color="#C9C7B0" />
      <stop offset="0.948"
        stop-color="#DEDDCB" />
      <stop offset="0.994"
        stop-color="#F8F6EB" />
      <stop offset="1"
        stop-color="#FBF9EF" />
    </linearGradient>
    <linearGradient id="paint4_linear_31_6234"
      x1="669.895"
      y1="1183.01"
      x2="678.303"
      y2="1233.76"
      gradientUnits="userSpaceOnUse">
      <stop stop-color="#48A547" />
      <stop offset="1"
        stop-color="#3F9143" />
    </linearGradient>
    <linearGradient id="paint5_linear_31_6234"
      x1="658.461"
      y1="1212.48"
      x2="679.723"
      y2="1205.59"
      gradientUnits="userSpaceOnUse">
      <stop stop-color="#41A247" />
      <stop offset="0.352"
        stop-color="#4BA74B" />
      <stop offset="0.956"
        stop-color="#67B554" />
      <stop offset="1"
        stop-color="#69B655" />
    </linearGradient>
    <clipPath id="clip0_31_6234">
      <rect width="57.6885"
        height="51"
        fill="white"
        transform="translate(613.656 282.5)" />
    </clipPath>
    <clipPath id="clip1_31_6234">
      <rect width="56.7602"
        height="49"
        fill="white"
        transform="translate(612.283 344.5)" />
    </clipPath>
    <clipPath id="clip2_31_6234">
      <rect width="63.6735"
        height="39"
        fill="white"
        transform="translate(669.043 344.5)" />
    </clipPath>
    <clipPath id="clip3_31_6234">
      <rect width="56"
        height="56"
        fill="white"
        transform="translate(614.5 403.5)" />
    </clipPath>
    <clipPath id="clip4_31_6234">
      <rect width="52"
        height="52"
        fill="white"
        transform="translate(678.5 403.5)" />
    </clipPath>
    <clipPath id="clip5_31_6234">
      <rect x="610"
        y="480"
        width="125"
        height="843"
        rx="8"
        fill="white" />
    </clipPath>
    <clipPath id="clip6_31_6234">
      <rect width="79"
        height="47"
        fill="white"
        transform="translate(633 515)" />
    </clipPath>
    <clipPath id="clip7_31_6234">
      <rect width="41.1861"
        height="51"
        fill="white"
        transform="translate(651.907 571)" />
    </clipPath>
    <clipPath id="clip8_31_6234">
      <rect width="60"
        height="60"
        fill="white"
        transform="translate(642.5 631)" />
    </clipPath>
    <clipPath id="clip9_31_6234">
      <rect width="60"
        height="60"
        fill="white"
        transform="translate(642.5 838)" />
    </clipPath>
    <clipPath id="clip10_31_6234">
      <rect width="60"
        height="60"
        fill="white"
        transform="translate(642.5 907)" />
    </clipPath>
    <clipPath id="clip11_31_6234">
      <rect width="65.8824"
        height="60"
        fill="white"
        transform="translate(639.559 976)" />
    </clipPath>
    <clipPath id="clip12_31_6234">
      <rect width="83.027"
        height="60"
        fill="white"
        transform="translate(630.986 1045)" />
    </clipPath>
    <clipPath id="clip13_31_6234">
      <rect width="58.0435"
        height="60"
        fill="white"
        transform="translate(643.478 1114)" />
    </clipPath>
    <clipPath id="clip14_31_6234">
      <rect width="26"
        height="60"
        fill="white"
        transform="translate(659.5 1183)" />
    </clipPath>
    <clipPath id="clip15_31_6234">
      <rect width="53.1488"
        height="60"
        fill="white"
        transform="translate(645.926 1252)" />
    </clipPath>
    <clipPath id="clip16_31_6234">
      <rect width="71"
        height="69"
        fill="white"
        transform="translate(992.467 1242.44)" />
    </clipPath>
  </defs>
</svg>
