<svg viewBox="0 0 32 32"
  fill="currentColor"
  xmlns="http://www.w3.org/2000/svg">
  <path
    d="M26.07 3.99601C25.749 4.01937 25.4339 4.09468 25.137 4.21901H25.133C24.848 4.33201 23.493 4.90201 21.433 5.76601L14.051 8.87501C8.754 11.105 3.547 13.301 3.547 13.301L3.609 13.277C3.609 13.277 3.25 13.395 2.875 13.652C2.64332 13.7994 2.44397 13.9923 2.289 14.219C2.105 14.489 1.957 14.902 2.012 15.329C2.102 16.051 2.57 16.484 2.906 16.723C3.246 16.965 3.57 17.078 3.57 17.078H3.578L8.461 18.723C8.68 19.426 9.949 23.598 10.254 24.559C10.434 25.133 10.609 25.492 10.828 25.766C10.934 25.906 11.058 26.023 11.207 26.117C11.2845 26.1621 11.367 26.1977 11.453 26.223L11.403 26.211C11.418 26.215 11.43 26.227 11.441 26.231C11.481 26.242 11.508 26.246 11.559 26.254C12.332 26.488 12.953 26.008 12.953 26.008L12.988 25.98L15.871 23.355L20.703 27.062L20.813 27.109C21.82 27.551 22.84 27.305 23.379 26.871C23.922 26.434 24.133 25.875 24.133 25.875L24.168 25.785L27.902 6.65601C28.008 6.18401 28.035 5.74201 27.918 5.31301C27.7973 4.87884 27.5188 4.50542 27.137 4.26601C26.8164 4.07113 26.4447 3.97706 26.07 3.99601ZM25.969 6.04601C25.965 6.10901 25.977 6.10201 25.949 6.22301V6.23401L22.25 25.164C22.234 25.191 22.207 25.25 22.133 25.309C22.055 25.371 21.993 25.41 21.668 25.281L15.758 20.75L12.188 24.004L12.938 19.214L22.594 10.214C22.992 9.84401 22.859 9.76601 22.859 9.76601C22.887 9.31201 22.258 9.63301 22.258 9.63301L10.082 17.176L10.078 17.156L4.242 15.191V15.187L4.227 15.184C4.23723 15.1806 4.24725 15.1766 4.257 15.172L4.289 15.156L4.32 15.145C4.32 15.145 9.531 12.949 14.828 10.719C17.48 9.60201 20.152 8.47701 22.207 7.60901C24.262 6.74601 25.781 6.11301 25.867 6.07901C25.949 6.04701 25.91 6.04701 25.969 6.04701V6.04601Z" />
</svg>
