<svg width="31" height="30" viewBox="0 0 31 30" fill="none" xmlns="http://www.w3.org/2000/svg">
<path fill-rule="evenodd" clip-rule="evenodd" d="M5 4.5C4.60218 4.5 4.22064 4.65804 3.93934 4.93934C3.65804 5.22064 3.5 5.60218 3.5 6C3.5 6.39782 3.65804 6.77936 3.93934 7.06066C4.22064 7.34196 4.60218 7.5 5 7.5V19.5C5 20.2956 5.31607 21.0587 5.87868 21.6213C6.44129 22.1839 7.20435 22.5 8 22.5H11.879L9.9395 24.4395C9.79624 24.5779 9.68196 24.7434 9.60335 24.9264C9.52473 25.1094 9.48336 25.3062 9.48162 25.5054C9.47989 25.7046 9.51785 25.9021 9.59327 26.0864C9.66869 26.2708 9.78007 26.4383 9.92091 26.5791C10.0617 26.7199 10.2292 26.8313 10.4136 26.9067C10.5979 26.9822 10.7954 27.0201 10.9946 27.0184C11.1938 27.0166 11.3906 26.9753 11.5736 26.8967C11.7566 26.818 11.9221 26.7038 12.0605 26.5605L15.5 23.121L18.9395 26.5605C19.2224 26.8337 19.6013 26.9849 19.9946 26.9815C20.3879 26.9781 20.7641 26.8203 21.0422 26.5422C21.3203 26.2641 21.4781 25.8879 21.4815 25.4946C21.4849 25.1013 21.3337 24.7224 21.0605 24.4395L19.121 22.5H23C23.7956 22.5 24.5587 22.1839 25.1213 21.6213C25.6839 21.0587 26 20.2956 26 19.5V7.5C26.3978 7.5 26.7794 7.34196 27.0607 7.06066C27.342 6.77936 27.5 6.39782 27.5 6C27.5 5.60218 27.342 5.22064 27.0607 4.93934C26.7794 4.65804 26.3978 4.5 26 4.5H5ZM21.5 10.5C21.5 10.1022 21.342 9.72064 21.0607 9.43934C20.7794 9.15804 20.3978 9 20 9C19.6022 9 19.2206 9.15804 18.9393 9.43934C18.658 9.72064 18.5 10.1022 18.5 10.5V16.5C18.5 16.8978 18.658 17.2794 18.9393 17.5607C19.2206 17.842 19.6022 18 20 18C20.3978 18 20.7794 17.842 21.0607 17.5607C21.342 17.2794 21.5 16.8978 21.5 16.5V10.5ZM17 12C17 11.6022 16.842 11.2206 16.5607 10.9393C16.2794 10.658 15.8978 10.5 15.5 10.5C15.1022 10.5 14.7206 10.658 14.4393 10.9393C14.158 11.2206 14 11.6022 14 12V16.5C14 16.8978 14.158 17.2794 14.4393 17.5607C14.7206 17.842 15.1022 18 15.5 18C15.8978 18 16.2794 17.842 16.5607 17.5607C16.842 17.2794 17 16.8978 17 16.5V12ZM12.5 13.5C12.5 13.1022 12.342 12.7206 12.0607 12.4393C11.7794 12.158 11.3978 12 11 12C10.6022 12 10.2206 12.158 9.93934 12.4393C9.65804 12.7206 9.5 13.1022 9.5 13.5V16.5C9.5 16.8978 9.65804 17.2794 9.93934 17.5607C10.2206 17.842 10.6022 18 11 18C11.3978 18 11.7794 17.842 12.0607 17.5607C12.342 17.2794 12.5 16.8978 12.5 16.5V13.5Z" fill="#FDB300"/>
</svg>
