<svg width="30" height="30" viewBox="0 0 30 30" fill="none" xmlns="http://www.w3.org/2000/svg">
<path d="M14.9875 2.5C8.0875 2.5 2.5 8.1 2.5 15C2.5 21.9 8.0875 27.5 14.9875 27.5C21.9 27.5 27.5 21.9 27.5 15C27.5 8.1 21.9 2.5 14.9875 2.5ZM23.65 10H19.9625C19.5713 8.45182 18.992 6.95737 18.2375 5.55C20.5176 6.335 22.439 7.91465 23.65 10ZM15 5.05C16.0375 6.55 16.85 8.2125 17.3875 10H12.6125C13.15 8.2125 13.9625 6.55 15 5.05ZM5.325 17.5C5.125 16.7 5 15.8625 5 15C5 14.1375 5.125 13.3 5.325 12.5H9.55C9.45 13.325 9.375 14.15 9.375 15C9.375 15.85 9.45 16.675 9.55 17.5H5.325ZM6.35 20H10.0375C10.4375 21.5625 11.0125 23.0625 11.7625 24.45C9.47996 23.6693 7.55729 22.0885 6.35 20ZM10.0375 10H6.35C7.55729 7.91147 9.47996 6.33071 11.7625 5.55C11.008 6.95737 10.4287 8.45182 10.0375 10ZM15 24.95C13.9625 23.45 13.15 21.7875 12.6125 20H17.3875C16.85 21.7875 16.0375 23.45 15 24.95ZM17.925 17.5H12.075C11.9625 16.675 11.875 15.85 11.875 15C11.875 14.15 11.9625 13.3125 12.075 12.5H17.925C18.0375 13.3125 18.125 14.15 18.125 15C18.125 15.85 18.0375 16.675 17.925 17.5ZM18.2375 24.45C18.9875 23.0625 19.5625 21.5625 19.9625 20H23.65C22.439 22.0853 20.5176 23.665 18.2375 24.45ZM20.45 17.5C20.55 16.675 20.625 15.85 20.625 15C20.625 14.15 20.55 13.325 20.45 12.5H24.675C24.875 13.3 25 14.1375 25 15C25 15.8625 24.875 16.7 24.675 17.5H20.45Z" fill="#EA31EE"/>
</svg>
