<svg width="30" height="30" viewBox="0 0 30 30" fill="none" xmlns="http://www.w3.org/2000/svg">
<path d="M4.21688 3.75C2.92313 3.75 1.875 4.8 1.875 6.09375V23.8969C1.875 25.1906 2.925 26.2406 4.21688 26.2406H5.15437C6.44812 26.2406 7.49625 25.1906 7.49625 23.8969V6.09188C7.49625 4.79813 6.44625 3.75 5.1525 3.75H4.21875H4.21688ZM11.7112 3.75C10.4175 3.75 9.3675 4.8 9.3675 6.09375V23.8969C9.3675 25.1906 10.4175 26.2406 11.7112 26.2406H12.6487C13.9406 26.2406 14.9887 25.1906 14.9887 23.8969V6.09188C14.9887 4.8 13.9406 3.75 12.6469 3.75H11.7094H11.7112ZM22.4475 8.95687C22.2227 8.39794 21.7912 7.94712 21.2426 7.69815C20.694 7.44917 20.0706 7.42118 19.5019 7.62L18.4106 8.0025C18.112 8.10733 17.8377 8.27155 17.6043 8.48525C17.3709 8.69896 17.1832 8.95772 17.0525 9.24594C16.9218 9.53415 16.8508 9.84586 16.8438 10.1623C16.8368 10.4786 16.894 10.7932 17.0119 11.0869L22.5187 24.7819C22.9856 25.9444 24.2812 26.5312 25.4644 26.1188L26.5556 25.7362C26.8545 25.6314 27.1289 25.4672 27.3625 25.2533C27.5961 25.0395 27.7839 24.7805 27.9147 24.4921C28.0454 24.2037 28.1163 23.8917 28.1231 23.5751C28.1299 23.2585 28.0725 22.9438 27.9544 22.65L22.4475 8.95687Z" fill="#A259FF"/>
</svg>
