<svg width="30" height="30" viewBox="0 0 30 30" fill="none" xmlns="http://www.w3.org/2000/svg">
<path d="M14.0625 18.75H8.4375C7.69158 18.75 6.97621 19.0463 6.44876 19.5738C5.92132 20.1012 5.625 20.8166 5.625 21.5625V23.4375H7.5V21.5625C7.5 21.3139 7.59877 21.0754 7.77459 20.8996C7.9504 20.7238 8.18886 20.625 8.4375 20.625H14.0625C14.3111 20.625 14.5496 20.7238 14.7254 20.8996C14.9012 21.0754 15 21.3139 15 21.5625V23.4375H16.875V21.5625C16.875 20.8166 16.5787 20.1012 16.0512 19.5738C15.5238 19.0463 14.8084 18.75 14.0625 18.75Z" fill="#149E95"/>
<path d="M11.25 17.8125C11.9917 17.8125 12.7167 17.5926 13.3334 17.1805C13.9501 16.7685 14.4307 16.1828 14.7145 15.4976C14.9984 14.8123 15.0726 14.0583 14.9279 13.3309C14.7833 12.6035 14.4261 11.9353 13.9017 11.4109C13.3772 10.8864 12.709 10.5293 11.9816 10.3846C11.2542 10.2399 10.5002 10.3141 9.81494 10.598C9.12971 10.8818 8.54404 11.3624 8.13199 11.9791C7.71993 12.5958 7.5 13.3208 7.5 14.0625C7.5 15.0571 7.89509 16.0109 8.59835 16.7142C9.30161 17.4174 10.2554 17.8125 11.25 17.8125ZM11.25 12.1875C11.6208 12.1875 11.9834 12.2975 12.2917 12.5035C12.6 12.7095 12.8404 13.0024 12.9823 13.345C13.1242 13.6876 13.1613 14.0646 13.089 14.4283C13.0166 14.792 12.838 15.1261 12.5758 15.3883C12.3136 15.6506 11.9795 15.8291 11.6158 15.9015C11.2521 15.9738 10.8751 15.9367 10.5325 15.7948C10.1899 15.6529 9.89702 15.4125 9.69099 15.1042C9.48497 14.7959 9.375 14.4333 9.375 14.0625C9.375 13.5652 9.57254 13.0883 9.92418 12.7367C10.2758 12.385 10.7527 12.1875 11.25 12.1875Z" fill="#149E95"/>
<path d="M26.25 17.8125V26.25H3.75V7.5H15V5.625H3.75C3.25272 5.625 2.77581 5.82254 2.42417 6.17417C2.07254 6.52581 1.875 7.00272 1.875 7.5V26.25C1.875 26.7473 2.07254 27.2242 2.42417 27.5758C2.77581 27.9275 3.25272 28.125 3.75 28.125H26.25C26.7473 28.125 27.2242 27.9275 27.5758 27.5758C27.9275 27.2242 28.125 26.7473 28.125 26.25V17.8125H26.25Z" fill="#149E95"/>
<path d="M18.75 17.8125H24.375V19.6875H18.75V17.8125Z" fill="#149E95"/>
<path d="M20.625 21.5625H24.375V23.4375H20.625V21.5625Z" fill="#149E95"/>
<path d="M30 9.375V7.5H28.0303C27.9094 6.91315 27.6764 6.35513 27.3441 5.85656L28.7409 4.45969L27.4153 3.13406L26.0184 4.53094C25.5199 4.1986 24.9619 3.96559 24.375 3.84469V1.875H22.5V3.84469C21.9131 3.96559 21.3551 4.1986 20.8566 4.53094L19.4597 3.13406L18.1341 4.45969L19.5309 5.85656C19.1986 6.35513 18.9656 6.91315 18.8447 7.5H16.875V9.375H18.8447C18.9656 9.96185 19.1986 10.5199 19.5309 11.0184L18.1341 12.4153L19.4597 13.7409L20.8566 12.3441C21.3551 12.6764 21.9131 12.9094 22.5 13.0303V15H24.375V13.0303C24.9619 12.9094 25.5199 12.6764 26.0184 12.3441L27.4153 13.7409L28.7409 12.4153L27.3441 11.0184C27.6764 10.5199 27.9094 9.96185 28.0303 9.375H30ZM23.4375 11.25C22.8812 11.25 22.3375 11.085 21.875 10.776C21.4124 10.467 21.052 10.0277 20.8391 9.5138C20.6262 8.99988 20.5705 8.43438 20.679 7.88881C20.7876 7.34324 21.0554 6.8421 21.4488 6.44876C21.8421 6.05543 22.3432 5.78756 22.8888 5.67904C23.4344 5.57052 23.9999 5.62622 24.5138 5.83909C25.0277 6.05196 25.467 6.41245 25.776 6.87496C26.0851 7.33747 26.25 7.88124 26.25 8.4375C26.2493 9.18319 25.9527 9.89813 25.4254 10.4254C24.8981 10.9527 24.1832 11.2493 23.4375 11.25Z" fill="#149E95"/>
</svg>
