<svg width="56"
  height="55"
  viewBox="0 0 56 55"
  fill="none"
  xmlns="http://www.w3.org/2000/svg">
  <path
    d="M46.0833 0H9.91667C4.43984 0 0 4.43984 0 9.91667V44.6833C0 50.1602 4.43984 54.6 9.91667 54.6H46.0833C51.5602 54.6 56 50.1602 56 44.6833V9.91667C56 4.43984 51.5602 0 46.0833 0Z"
    fill="#00005B" />
  <path
    d="M22.4968 32.6666H13.8188L12.0532 38.1619C12.0291 38.2619 11.9709 38.3504 11.8886 38.4121C11.8063 38.4738 11.7051 38.5049 11.6023 38.5H7.20705C6.9564 38.5 6.86875 38.3622 6.94409 38.0867L14.4575 16.5377C14.5325 16.3124 14.6077 16.0921 14.6828 15.8038C14.7812 15.3026 14.8315 14.7932 14.8331 14.2824C14.828 14.2467 14.8313 14.2103 14.8427 14.1761C14.8541 14.1418 14.8734 14.1107 14.8989 14.0852C14.9244 14.0597 14.9555 14.0405 14.9897 14.029C15.0239 14.0176 15.0603 14.0143 15.0961 14.0194H21.0692C21.2441 14.0194 21.3443 14.082 21.3698 14.2073L29.8974 38.1243C29.9724 38.3749 29.8973 38.5002 29.672 38.5H24.7883C24.7044 38.5093 24.62 38.4877 24.5509 38.4393C24.4818 38.3909 24.4326 38.319 24.4127 38.237L22.4968 32.6666ZM15.1713 28.0332H21.1068C20.9565 27.5325 20.7812 26.969 20.5808 26.3426C20.38 25.7169 20.1672 25.047 19.9422 24.3328C19.7168 23.6191 19.4914 22.9053 19.266 22.1915C19.0406 21.4778 18.834 20.7891 18.6461 20.1254C18.4583 19.4621 18.2893 18.8548 18.139 18.3034H18.1014C17.89 19.318 17.6267 20.3211 17.3125 21.3087C16.9615 22.4357 16.6046 23.5878 16.2419 24.7649C15.8786 25.9423 15.5217 27.0318 15.1713 28.0332Z"
    fill="#9999FF" />
  <path
    d="M43.7222 30.5277H36.3216C36.4123 31.26 36.6554 31.9651 37.0354 32.5975C37.4555 33.2238 38.0497 33.7135 38.7446 34.0062C39.6865 34.4138 40.7052 34.6135 41.7313 34.5916C42.5453 34.576 43.3562 34.487 44.1543 34.3256C44.868 34.2292 45.5675 34.0469 46.2375 33.7825C46.3625 33.6828 46.4254 33.745 46.4254 33.9704V37.5392C46.4316 37.6364 46.4121 37.7336 46.369 37.821C46.326 37.8893 46.2682 37.947 46.1999 37.99C45.4568 38.3192 44.6746 38.5522 43.8725 38.6833C42.7828 38.888 41.6753 38.9824 40.5666 38.9651C38.788 38.9651 37.2979 38.6896 36.0962 38.1386C34.9601 37.6382 33.9568 36.8792 33.1661 35.9222C32.4275 35.0204 31.878 33.9792 31.5506 32.8605C31.2264 31.7563 31.062 30.6114 31.0623 29.4607C31.0588 28.2042 31.2554 26.9551 31.6446 25.7604C32.0194 24.595 32.6122 23.5114 33.3914 22.5672C34.16 21.6341 35.1211 20.878 36.209 20.3508C37.3107 19.8125 38.6132 19.6194 40.1158 19.6194C41.362 19.5879 42.5998 19.8316 43.741 20.3331C44.7007 20.7424 45.5455 21.3805 46.2016 22.1915C46.8171 22.9857 47.2876 23.8823 47.5916 24.84C47.8876 25.7629 48.0396 26.7259 48.0424 27.6951C48.0424 28.2462 48.0236 28.7471 47.986 29.1977C47.9485 29.6485 47.9172 29.9741 47.8921 30.1745C47.8824 30.2573 47.8426 30.3336 47.7802 30.3891C47.7179 30.4445 47.6374 30.475 47.554 30.475C47.4037 30.475 47.147 30.4938 46.7839 30.5314C46.4206 30.5689 45.9698 30.5939 45.4316 30.6065C44.8927 30.6194 44.3233 30.5277 43.7222 30.5277ZM36.3216 27.1055H41.2428C41.8439 27.1055 42.2885 27.0992 42.5764 27.0867C42.7691 27.0675 42.9552 27.0058 43.1212 26.9062V26.6807C43.1137 26.3869 43.063 26.0958 42.971 25.8167C42.7683 25.1758 42.3608 24.6192 41.811 24.2323C41.2613 23.8455 40.5998 23.6498 39.9281 23.6754C39.2959 23.6372 38.6662 23.7838 38.1159 24.0973C37.5655 24.4108 37.1183 24.8777 36.8288 25.441C36.5714 25.965 36.4002 26.527 36.3216 27.1055V27.1055Z"
    fill="#9999FF" />
</svg>
