<svg viewBox="0 0 76.771 76.771"
	style="enable-background:new 0 0 76.771 76.771;"
	xmlSpace="preserve">
	<path style="fill:hsl(0, 76%, 95%);"
		d="M23.034,18.455c4.99,1.115,10.112,1.681,15.225,1.681c5.113,0,10.235-0.565,15.206-1.677
	c0.506-0.102,0.851-0.571,0.798-1.084C53.548,10.52,48.666,4.896,42.446,3.11V1.92c0-0.552-0.448-1-1-1s-1,0.448-1,1v0.767
	c-0.72-0.106-1.448-0.178-2.19-0.178c-0.74,0-1.466,0.072-2.185,0.177V1.92c0-0.552-0.448-1-1-1s-1,0.448-1,1v1.189
	c-6.218,1.785-11.102,7.41-11.816,14.266C22.202,17.879,22.539,18.344,23.034,18.455z M34.071,5.205v3.097c0,0.552,0.448,1,1,1
	s1-0.448,1-1V4.703c0.717-0.121,1.447-0.195,2.19-0.195c0.741,0,1.469,0.074,2.185,0.194v3.599c0,0.552,0.448,1,1,1s1-0.448,1-1
	V5.204c4.927,1.64,8.805,6.059,9.707,11.492c-9.121,1.91-18.63,1.916-27.79,0C25.266,11.264,29.143,6.846,34.071,5.205z
	 M44.45,15.607c-2.028,0.454-4.112,0.684-6.192,0.684c-2.078,0-4.161-0.23-6.191-0.684c-0.539-0.121-0.878-0.655-0.758-1.194
	c0.121-0.539,0.659-0.876,1.193-0.758c3.78,0.844,7.744,0.843,11.512,0c0.54-0.119,1.073,0.219,1.194,0.758
	C45.329,14.952,44.989,15.486,44.45,15.607z M21.583,22.974c0.019-0.649,0.077-2.625,1.495-3.16
	c1.401-0.528,2.831,0.895,3.103,1.186c0.377,0.404,0.356,1.037-0.047,1.414c-0.404,0.376-1.037,0.356-1.414-0.047
	c-0.277-0.293-0.692-0.586-0.913-0.654c-0.068,0.129-0.2,0.485-0.225,1.321c-0.102,3.471,2.588,4.407,2.615,4.417
	c0.316,0.105,0.559,0.361,0.648,0.682l0.043,0.157c0.017,0.06,0.027,0.122,0.033,0.184c0.765,9.116,7.969,12.065,11.338,12.065
	c3.369,0,10.573-2.949,11.338-12.065c0.005-0.061,0.016-0.122,0.032-0.181l0.043-0.157c0.088-0.322,0.332-0.579,0.648-0.685
	c0.104-0.037,2.715-0.994,2.615-4.417c-0.024-0.835-0.156-1.19-0.224-1.32c-0.222,0.07-0.649,0.371-0.914,0.654
	c-0.377,0.404-1.01,0.424-1.414,0.047s-0.424-1.01-0.047-1.414c0.271-0.292,1.698-1.716,3.103-1.186
	c1.418,0.536,1.476,2.511,1.495,3.16c0.102,3.452-1.922,5.373-3.388,6.12c-0.999,9.267-8.317,13.442-13.287,13.442
	c-4.971,0-12.289-4.174-13.287-13.441C23.506,28.347,21.481,26.426,21.583,22.974z M39.787,22.781c-0.292,0-0.569,0.127-0.759,0.349
	c-0.051,0.06-0.074,0.134-0.109,0.203h-1.321c-0.035-0.069-0.058-0.143-0.109-0.203c-0.19-0.221-0.467-0.349-0.759-0.349h-7.882
	c-0.268,0-0.525,0.108-0.713,0.299s-0.291,0.45-0.287,0.718c0.017,0.935,0.177,4.071,1.552,5.188
	c0.877,0.713,2.247,1.156,3.576,1.156c1.27,0,2.335-0.402,3.001-1.132c0.721-0.79,1.201-2.447,1.475-3.678h1.613
	c0.274,1.231,0.754,2.888,1.475,3.678c0.667,0.73,1.733,1.132,3.002,1.132c1.328,0,2.698-0.443,3.576-1.156
	c1.374-1.117,1.535-4.253,1.552-5.188c0.004-0.268-0.099-0.527-0.287-0.718s-0.445-0.299-0.713-0.299H39.787z M34.5,27.662
	c-0.279,0.306-0.834,0.48-1.524,0.48c-0.863,0-1.793-0.284-2.314-0.708c-0.345-0.28-0.627-1.463-0.75-2.654h5.612
	C35.265,25.954,34.876,27.25,34.5,27.662z M45.856,27.435c-0.521,0.423-1.451,0.708-2.314,0.708c-0.69,0-1.246-0.175-1.525-0.481
	c-0.375-0.412-0.765-1.708-1.023-2.88h5.612C46.483,25.972,46.201,27.154,45.856,27.435z M70.76,42.892
	c-9.964,3.257-20.313,4.992-30.796,5.162v24.091c0,0.552-0.448,1-1,1s-1-0.448-1-1V51.674c-7.62-0.019-15.174-0.871-22.574-2.531
	c-0.079-0.007-0.157-0.024-0.234-0.051c-3.149-0.714-6.274-1.558-9.359-2.565l0.563,7.735c0.04,0.551-0.374,1.03-0.925,1.07
	c-0.025,0.001-0.049,0.002-0.074,0.002c-0.52,0-0.958-0.401-0.997-0.927l-0.671-9.232c-0.024-0.335,0.121-0.66,0.387-0.865
	c0.266-0.206,0.617-0.263,0.934-0.154c3.296,1.129,6.641,2.064,10.015,2.849c2.127-3.385,5.582-5.955,10.294-7.651l-0.062-1.046
	c-0.033-0.551,0.388-1.024,0.939-1.057c0.546-0.048,1.025,0.387,1.057,0.939l0.257,4.332l2.988-1.07
	c0.523-0.186,1.093,0.084,1.279,0.604c0.186,0.52-0.084,1.093-0.604,1.279l-4.245,1.521c-0.11,0.039-0.224,0.059-0.337,0.059
	c-0.193,0-0.386-0.056-0.551-0.166c-0.263-0.174-0.428-0.461-0.447-0.775l-0.15-2.533c-3.766,1.439-6.527,3.423-8.354,6.037
	c6.853,1.446,13.836,2.176,20.872,2.196v-2.607c0-0.55,0.443-0.996,0.993-1c5.906-0.04,11.768-0.602,17.546-1.646
	c-1.458-1.169-3.27-2.195-5.303-2.989l-0.151,2.542c-0.019,0.314-0.184,0.602-0.447,0.775c-0.166,0.109-0.358,0.166-0.551,0.166
	c-0.114,0-0.228-0.02-0.337-0.059l-4.244-1.521c-0.52-0.186-0.79-0.759-0.604-1.279c0.186-0.52,0.755-0.792,1.279-0.604l2.987,1.07
	l0.257-4.332c0.032-0.552,0.504-0.986,1.057-0.939c0.551,0.033,0.972,0.506,0.939,1.057l-0.062,1.04
	c3.067,1.114,5.745,2.723,7.652,4.599c4.233-0.873,8.416-2.006,12.529-3.414c0.313-0.106,0.66-0.052,0.924,0.146
	c0.265,0.199,0.414,0.516,0.398,0.847l-0.635,13.433c-0.026,0.552-0.489,0.974-1.046,0.952c-0.552-0.026-0.978-0.495-0.952-1.046
	L70.76,42.892z M75.592,58.431c-0.893-0.897-2.291-1.334-4.274-1.334s-3.382,0.437-4.274,1.334
	c-1.194,1.201-1.185,2.886-1.177,4.373l0.001,6.94c0,3.005,2.445,5.45,5.45,5.45s5.45-2.445,5.45-5.45l0.001-6.94
	C76.777,61.317,76.787,59.632,75.592,58.431z M74.77,62.793l-0.001,6.951c0,1.902-1.548,3.45-3.45,3.45
	c-1.402,0-2.606-0.844-3.146-2.048h2.037c0.552,0,1-0.448,1-1s-0.448-1-1-1h-2.342l0-1.688h2.342c0.552,0,1-0.448,1-1s-0.448-1-1-1
	h-2.343l0-1.821h2.343c0.552,0,1-0.448,1-1s-0.448-1-1-1h-2.325c0.041-0.741,0.171-1.387,0.577-1.795
	c0.491-0.494,1.452-0.745,2.856-0.745s2.365,0.25,2.856,0.745C74.782,60.452,74.776,61.589,74.77,62.793z M5.817,56.439
	c-2.123,0-3.616,0.464-4.566,1.419c-1.268,1.275-1.258,3.08-1.25,4.672l0.001,7.507c0,3.206,2.608,5.814,5.814,5.814
	s5.814-2.608,5.814-5.814l0.001-7.508c0.009-1.592,0.019-3.397-1.25-4.671C9.433,56.903,7.939,56.439,5.817,56.439z M5.817,73.851
	c-2.103,0-3.814-1.711-3.814-3.814l-0.001-7.518c-0.007-1.319-0.014-2.566,0.667-3.251c0.547-0.55,1.606-0.83,3.148-0.83
	s2.601,0.279,3.148,0.83c0.474,0.476,0.612,1.226,0.652,2.081H7.016c-0.552,0-1,0.448-1,1s0.448,1,1,1h2.616l0,2.134H7.016
	c-0.552,0-1,0.448-1,1s0.448,1,1,1h2.615l0,1.99H7.016c-0.552,0-1,0.448-1,1s0.448,1,1,1h2.329
	C8.777,72.865,7.412,73.851,5.817,73.851z" />
</svg>
