<svg width="61" height="60" viewBox="0 0 61 60" fill="none" xmlns="http://www.w3.org/2000/svg">
<g clip-path="url(#clip0_31_242)">
<path d="M30.4949 0C13.9149 0 0.499946 13.4175 0.499946 30C0.497316 33.9404 1.27149 37.8427 2.7782 41.4836C4.28491 45.1246 6.4946 48.4328 9.28088 51.2191C12.0672 54.0053 15.3754 56.215 19.0163 57.7217C22.6573 59.2285 26.5596 60.0026 30.4999 60C47.0824 60 60.4999 46.5825 60.4999 30C60.4974 13.4175 46.9699 0 30.4949 0ZM16.4249 36.4375C17.4049 37.745 18.7149 38.2925 20.5674 38.2925C21.4424 38.2925 22.3149 38.1825 23.0774 37.855C23.8424 37.53 24.7149 37.09 25.8024 36.4375L28.8599 40.8C26.3524 42.875 23.5149 43.855 20.2424 43.855C17.6224 43.855 15.4424 43.31 13.4799 42.22C11.5748 41.0961 10.0534 39.4231 9.11495 37.42C8.13495 35.345 7.58745 32.945 7.58745 30.1075C7.58745 27.3825 8.13495 24.8725 9.11245 22.8C10.0458 20.7353 11.5654 18.9905 13.4824 17.7825C15.3349 16.5825 17.6249 16.0375 20.1349 16.0375C21.8824 16.0375 23.5174 16.255 24.8274 16.8C26.2971 17.3689 27.661 18.1801 28.8624 19.2L25.8074 23.345C25.0319 22.7724 24.1899 22.2956 23.2999 21.925C22.5374 21.6 21.5549 21.49 20.6799 21.49C16.9724 21.49 15.1174 24.325 15.1174 30.105C15.0099 33.055 15.5549 35.125 16.4274 36.435H16.4249V36.4375ZM46.4249 43.2C45.3349 46.5825 43.6974 49.0925 41.4049 50.945C39.1149 52.8025 36.0599 53.7825 32.2424 54.11L31.4799 48.985C33.9874 48.655 35.8424 48.11 37.0424 47.235C37.4774 46.91 38.3524 45.9275 38.3524 45.9275L29.2974 16.91H36.8224L42.0599 38.6175L47.6249 16.91H54.9324L46.4249 43.2Z" fill="black"/>
</g>
<defs>
<clipPath id="clip0_31_242">
<rect width="60" height="60" fill="white" transform="translate(0.499939)"/>
</clipPath>
</defs>
</svg>
