<svg width="85" height="60" viewBox="0 0 85 60" fill="none" xmlns="http://www.w3.org/2000/svg">
<g clip-path="url(#clip0_31_275)">
<path d="M82.2997 22.8639C80.43 21.5666 76.1453 21.0801 72.7957 21.7288C72.4065 18.4855 70.6146 15.648 67.4985 13.1345L65.707 11.8372L64.4603 13.7021C62.9025 16.1345 62.1235 19.5399 62.357 22.7831C62.4349 23.9179 62.8244 25.945 63.9929 27.7288C62.9025 28.3774 60.6433 29.1882 57.6832 29.1882H1.36102L1.20534 29.8369C0.659828 33.0798 0.659828 43.2146 7.04772 50.9981C11.8776 56.9167 19.0445 59.9166 28.4703 59.9166C48.88 59.9166 63.9929 50.1058 71.082 32.3501C73.8864 32.4311 79.8848 32.3501 82.9231 26.269C83.0009 26.1068 83.1566 25.7825 83.7018 24.5666L84.0135 23.9179L82.2997 22.8639ZM46.3873 0H37.8186V8.10778H46.3873V0ZM46.3873 9.72941H37.8186V17.8372H46.3873V9.72908V9.72941ZM36.2603 9.72941H27.6916V17.8372H36.2603V9.72908V9.72941ZM26.1332 9.72941H17.5643V17.8372H26.1332V9.72908V9.72941ZM16.0062 19.4588H7.43723V27.5666H16.0059V19.4585L16.0062 19.4588ZM26.1332 19.4588H17.5643V27.5666H26.1332V19.4585V19.4588ZM36.2603 19.4588H27.6916V27.5666H36.2603V19.4585V19.4588ZM46.3876 19.4588H37.8183V27.5666H46.3876V19.4585V19.4588ZM56.5146 19.4588H47.9453V27.5666H56.5146V19.4585V19.4588Z" fill="#2396ED"/>
</g>
<defs>
<clipPath id="clip0_31_275">
<rect width="83.027" height="60" fill="white" transform="translate(0.98642)"/>
</clipPath>
</defs>
</svg>
