<svg width="61" height="60" viewBox="0 0 61 60" fill="none" xmlns="http://www.w3.org/2000/svg">
<path d="M40.4999 40C46.0228 40 50.4999 35.5228 50.4999 30C50.4999 24.4772 46.0228 20 40.4999 20C34.9771 20 30.4999 24.4772 30.4999 30C30.4999 35.5228 34.9771 40 40.4999 40Z" fill="#19BCFE"/>
<path fill-rule="evenodd" clip-rule="evenodd" d="M20.4999 60C23.1521 60 25.6956 58.9464 27.571 57.0711C29.4464 55.1957 30.4999 52.6522 30.4999 50V40H20.4999C17.8478 40 15.3042 41.0536 13.4289 42.9289C11.5535 44.8043 10.4999 47.3478 10.4999 50C10.4999 52.6522 11.5535 55.1957 13.4289 57.0711C15.3042 58.9464 17.8478 60 20.4999 60Z" fill="#09CF83"/>
<path fill-rule="evenodd" clip-rule="evenodd" d="M20.4999 40H30.4999V20H20.4999C17.8478 20 15.3042 21.0536 13.4289 22.9289C11.5535 24.8043 10.4999 27.3478 10.4999 30C10.4999 32.6522 11.5535 35.1957 13.4289 37.0711C15.3042 38.9464 17.8478 40 20.4999 40Z" fill="#A259FF"/>
<path fill-rule="evenodd" clip-rule="evenodd" d="M20.4999 20H30.4999V0H20.4999C17.8478 0 15.3042 1.05357 13.4289 2.92893C11.5535 4.8043 10.4999 7.34784 10.4999 10C10.4999 12.6522 11.5535 15.1957 13.4289 17.0711C15.3042 18.9464 17.8478 20 20.4999 20Z" fill="#F24E1E"/>
<path fill-rule="evenodd" clip-rule="evenodd" d="M40.4999 20H30.4999V0H40.4999C43.1521 0 45.6956 1.05357 47.571 2.92893C49.4464 4.8043 50.4999 7.34784 50.4999 10C50.4999 12.6522 49.4464 15.1957 47.571 17.0711C45.6956 18.9464 43.1521 20 40.4999 20Z" fill="#FF7262"/>
</svg>
