<svg width="55" height="60" viewBox="0 0 55 60" fill="none" xmlns="http://www.w3.org/2000/svg">
<path d="M50.602 29.5542C50.602 28.1143 50.03 26.7333 49.0119 25.7152C47.9937 24.697 46.6128 24.125 45.1729 24.125C44.9822 24.1248 44.7917 24.1345 44.602 24.1542L52.0604 2.15833H20.3666L27.8145 24.1354C27.7062 24.1354 27.5958 24.125 27.4854 24.125C26.1889 24.1235 24.9347 24.586 23.9495 25.4289C22.9644 26.2718 22.3135 27.4393 22.1144 28.7205C21.9153 30.0016 22.1812 31.3116 22.8641 32.4137C23.5469 33.5158 24.6017 34.3371 25.8374 34.7292C24.6826 36.7176 23.2446 38.5275 21.5687 40.1021C19.3872 42.1875 16.7954 43.796 13.9583 44.825C12.3687 44.0717 11.1255 42.7415 10.4812 41.1047C9.83697 39.4679 9.83993 37.6472 10.4895 36.0125C10.6499 35.6375 10.8124 35.2583 10.9666 34.8792C12.1771 34.5941 13.2532 33.9022 14.0149 32.9191C14.7766 31.936 15.1779 30.7213 15.1516 29.478C15.1254 28.2346 14.6732 27.0379 13.8707 26.0878C13.0682 25.1378 11.964 24.4919 10.7425 24.2581C9.52105 24.0243 8.25635 24.2168 7.15975 24.8034C6.06315 25.39 5.20107 26.3352 4.71758 27.481C4.23409 28.6268 4.15847 29.9039 4.50336 31.0987C4.84824 32.2936 5.59274 33.3339 6.61245 34.0458C4.87945 37.1881 3.55684 40.5398 2.67703 44.0187C1.93953 48.4667 2.67703 53.1854 6.52078 55.8542C15.4791 62.0646 25.2062 52.0042 35.4604 49.4771C39.177 48.5604 43.2562 48.7083 46.5291 46.8125C47.7116 46.139 48.7313 45.2135 49.5158 44.1017C50.3004 42.9899 50.8305 41.7189 51.0687 40.3792C51.2865 39.1025 51.2454 37.7951 50.948 36.5346C50.6506 35.2742 50.1029 34.0863 49.3374 33.0417C50.1542 32.0656 50.6012 30.8331 50.5999 29.5604L50.602 29.5542ZM32.9166 29.5833V29.5646C32.9182 28.6303 32.678 27.7115 32.2195 26.8974C31.761 26.0833 31.0997 25.4017 30.2999 24.9187L36.2249 12.9167L42.1624 25.0292C41.4176 25.5241 40.8068 26.1959 40.3848 26.9844C39.9627 27.7728 39.7425 28.6536 39.7437 29.5479V29.6667L32.9166 29.5833Z" fill="#C63D14"/>
<path d="M51.9291 29.5542C51.927 27.98 51.376 26.4558 50.3709 25.2442C49.3658 24.0326 47.9696 23.2095 46.4229 22.9167L53.9104 0.833374H18.5187L26.0187 22.9605C24.7094 23.2531 23.5169 23.9292 22.5934 24.9025C21.67 25.8757 21.0574 27.1021 20.8339 28.4249C20.6103 29.7478 20.786 31.1073 21.3384 32.33C21.8908 33.5526 22.7949 34.583 23.9354 35.2896C22.9932 36.6893 21.8975 37.9793 20.6687 39.1355C18.7666 40.9553 16.5313 42.3913 14.0854 43.3646C12.9375 42.6983 12.0674 41.6416 11.6337 40.3872C11.2 39.1328 11.2317 37.7643 11.7229 36.5313L11.8062 36.3375L11.9604 35.973C13.3489 35.4916 14.5427 34.5708 15.3611 33.3502C16.1794 32.1295 16.5778 30.6754 16.4957 29.2081C16.4137 27.7408 15.8557 26.3402 14.9064 25.2184C13.9571 24.0966 12.6681 23.3147 11.2345 22.9911C9.80101 22.6675 8.30108 22.8198 6.96188 23.425C5.62268 24.0301 4.51715 25.0552 3.81271 26.345C3.10827 27.6347 2.84329 29.1189 3.05789 30.5727C3.27249 32.0266 3.95499 33.3709 5.00203 34.4021C4.77703 34.8834 4.53953 35.3709 4.29578 35.873C2.94501 38.3565 1.96251 41.0233 1.37911 43.7896C0.410364 49.623 1.97286 54.2959 5.77703 56.9313C7.8192 58.3916 10.2685 59.1736 12.7791 59.1667C17.2208 59.1667 21.7145 56.9355 26.1124 54.7521C29.1852 53.081 32.4271 51.7415 35.7833 50.7563C36.9854 50.4605 38.2229 50.2813 39.5333 50.0917C42.2029 49.8784 44.8062 49.1512 47.2 47.95C48.5499 47.179 49.7137 46.1205 50.6091 44.8496C51.5045 43.5787 52.1094 42.1265 52.3812 40.5959C52.8238 37.9953 52.3126 35.3224 50.9416 33.0688C51.5902 32.0106 51.9327 30.7933 51.9312 29.5521L51.9291 29.5542ZM49.277 29.5542C49.277 30.3659 49.0363 31.1594 48.5854 31.8344C48.1344 32.5093 47.4934 33.0353 46.7435 33.346C45.9935 33.6566 45.1683 33.7379 44.3722 33.5795C43.5761 33.4212 42.8448 33.0303 42.2708 32.4563C41.6968 31.8823 41.3059 31.151 41.1476 30.3549C40.9892 29.5588 41.0705 28.7335 41.3811 27.9836C41.6917 27.2337 42.2178 26.5927 42.8927 26.1417C43.5676 25.6907 44.3611 25.45 45.1729 25.45C46.261 25.4511 47.3043 25.8839 48.0737 26.6533C48.8432 27.4228 49.2759 28.4661 49.277 29.5542ZM50.2083 3.48546L43.5958 22.9855C43.3126 23.054 43.0342 23.141 42.7625 23.2459L36.2312 9.91254L29.6791 23.1667C29.3939 23.0679 29.1022 22.9885 28.8062 22.9292L22.2166 3.48546H50.2083ZM27.4854 25.45C28.2971 25.45 29.0906 25.6907 29.7655 26.1417C30.4404 26.5927 30.9665 27.2337 31.2771 27.9836C31.5878 28.7335 31.669 29.5588 31.5107 30.3549C31.3523 31.151 30.9614 31.8823 30.3874 32.4563C29.8135 33.0303 29.0822 33.4212 28.2861 33.5795C27.4899 33.7379 26.6647 33.6566 25.9148 33.346C25.1648 33.0353 24.5238 32.5093 24.0729 31.8344C23.6219 31.1594 23.3812 30.3659 23.3812 29.5542C23.3823 28.4661 23.8151 27.4228 24.5845 26.6533C25.3539 25.8839 26.3972 25.4511 27.4854 25.45ZM9.7312 25.4896C10.5433 25.49 11.337 25.7314 12.0119 26.183C12.6867 26.6347 13.2124 27.2765 13.5225 28.0271C13.8325 28.7776 13.9128 29.6033 13.7534 30.3996C13.5939 31.1959 13.2019 31.9269 12.6268 32.5003C12.0517 33.0736 11.3194 33.4635 10.5226 33.6205C9.72587 33.7775 8.90044 33.6946 8.15081 33.3823C7.40117 33.0701 6.76104 32.5424 6.31141 31.8661C5.86179 31.1899 5.62289 30.3955 5.62495 29.5834C5.62605 28.4952 6.05881 27.4519 6.82825 26.6825C7.59769 25.9131 8.64096 25.4803 9.72911 25.4792L9.7312 25.4896ZM49.7666 40.1438C49.5607 41.2922 49.1048 42.3812 48.4312 43.3339C47.7576 44.2865 46.8828 45.0793 45.8687 45.6563C43.7647 46.6779 41.4865 47.2921 39.1541 47.4667C37.8374 47.6563 36.477 47.8521 35.1458 48.1813C31.6019 49.2075 28.1793 50.6136 24.9375 52.375C18.3458 55.648 12.6458 58.475 7.28745 54.7563C3.3562 52.0313 3.53745 46.9896 3.99578 44.2271C4.53515 41.7131 5.43471 39.2902 6.66662 37.0334L7.22912 35.8688C7.78873 36.0925 8.37597 36.2397 8.97495 36.3063C8.44471 38.1791 8.59287 40.1791 9.39329 41.9534C10.1937 43.7276 11.595 45.1623 13.3499 46.0042L13.8604 46.2667L14.3999 46.075C17.4097 44.9887 20.1594 43.2856 22.4729 41.075C24.001 39.6375 25.3434 38.0145 26.4687 36.2438C27.9085 36.4628 29.3806 36.2104 30.6652 35.5242C31.9499 34.838 32.9782 33.7549 33.5968 32.4364C34.2154 31.1179 34.3911 29.6347 34.0977 28.2082C33.8042 26.7816 33.0575 25.4882 31.9687 24.5209L36.2145 15.9355L40.5041 24.6855C39.2836 25.8617 38.5503 27.454 38.45 29.1461C38.3496 30.8381 38.8896 32.506 39.9624 33.8183C41.0353 35.1305 42.5627 35.9911 44.2409 36.2289C45.9192 36.4668 47.6255 36.0646 49.0208 35.1021C49.7944 36.6636 50.0534 38.4301 49.7604 40.148L49.7666 40.1438Z" fill="white"/>
</svg>
