<svg width="72" height="70" viewBox="0 0 72 70" fill="none" xmlns="http://www.w3.org/2000/svg">
<g clip-path="url(#clip0_31_6275)">
<path d="M23.2332 68.3149C21.5841 68.3149 20.0268 67.5828 18.9732 66.2555L2.94132 46.3466C1.88769 45.0193 1.47556 43.3261 1.88769 41.6782L7.61346 16.8265C7.97983 15.1788 9.07922 13.8515 10.591 13.1194L33.7689 2.04334C34.5019 1.67755 35.3265 1.49438 36.151 1.49438C36.9756 1.49438 37.7998 1.67728 38.5329 2.04361L61.711 13.0736C63.2226 13.8058 64.3219 15.1331 64.6883 16.7808L70.4141 41.6324C70.7807 43.2801 70.4141 44.9735 69.3607 46.3009L53.3283 66.2097C52.2747 67.4911 50.7174 68.2692 49.0683 68.2692L23.2337 68.3149H23.2332Z" fill="#326DE6"/>
<path d="M36.1047 2.63862C36.7462 2.63862 37.3874 2.77579 37.9829 3.0504L61.161 14.0804C62.352 14.6754 63.268 15.7738 63.5429 17.0555L69.2686 41.9071C69.5892 43.2344 69.2686 44.6075 68.3983 45.66L52.3662 65.5691C51.5417 66.6216 50.2589 67.2165 48.9307 67.2165H23.2332C21.9047 67.2165 20.6223 66.6216 19.7977 65.5691L3.76559 45.66C2.94105 44.6075 2.62016 43.2344 2.89528 41.9071L8.62105 17.0555C8.94166 15.7281 9.81196 14.6297 11.0029 14.0804L34.1813 3.00496C34.7768 2.77607 35.4638 2.6389 36.105 2.6389L36.1047 2.63862ZM36.1047 0.487427C35.1429 0.487427 34.181 0.716318 33.2647 1.1281L10.0868 12.2041C8.2544 13.0737 6.97196 14.6754 6.51379 16.6434L0.788027 41.4953C0.330133 43.4633 0.788027 45.4771 2.07074 47.0791L18.1029 66.9879C19.3398 68.5439 21.2177 69.4134 23.1874 69.4134H48.8847C50.8544 69.4134 52.7326 68.5439 53.9692 66.9879L70.0017 47.0788C71.2841 45.5228 71.7423 43.4633 71.2841 41.495L65.5583 16.6434C65.1004 14.6754 63.8177 13.0737 61.9856 12.2041L38.8989 1.12782C38.0286 0.716318 37.0668 0.487427 36.1047 0.487427Z" fill="white"/>
<path d="M59.3286 39.9391C59.2829 39.9391 59.2829 39.9391 59.3286 39.9391H59.2829C59.2371 39.9391 59.1913 39.9391 59.1913 39.8934C59.0998 39.8934 59.0083 39.8476 58.9165 39.8476C58.5959 39.8019 58.321 39.7562 58.0462 39.7562C57.9086 39.7562 57.7713 39.7562 57.588 39.7102H57.5423C56.5804 39.6187 55.8017 39.5273 55.0686 39.2984C54.748 39.161 54.6565 38.9781 54.5647 38.7949C54.5647 38.7492 54.5189 38.7492 54.5189 38.7034L53.9235 38.5206C54.2048 36.3676 54.0962 34.1816 53.6029 32.067C53.1027 29.9348 52.2347 27.906 51.0377 26.0715L51.4959 25.6597V25.5682C51.4959 25.3393 51.5417 25.1104 51.7247 24.8816C52.2744 24.378 52.9617 23.9663 53.7862 23.4628C53.9235 23.3713 54.0608 23.3256 54.1983 23.2339C54.4732 23.0967 54.7023 22.9595 54.9771 22.7764C55.0229 22.7306 55.1144 22.6849 55.2062 22.5935C55.252 22.5475 55.2977 22.5475 55.2977 22.5017C55.9389 21.9525 56.0765 21.0372 55.6183 20.442C55.3892 20.1217 54.9771 19.9388 54.5647 19.9388C54.1986 19.9388 53.8777 20.0759 53.5571 20.3048L53.4656 20.3963C53.3741 20.442 53.328 20.5337 53.2365 20.5794C53.0074 20.8083 52.8241 20.9912 52.641 21.2201C52.5495 21.3116 52.458 21.449 52.3204 21.5405C51.6789 22.2271 51.0835 22.7764 50.488 23.1881C50.3507 23.2796 50.2135 23.3256 50.0759 23.3256C49.9844 23.3256 49.8926 23.3256 49.801 23.2796H49.7095L49.1595 23.6459C48.5641 23.0053 47.9229 22.456 47.2817 21.9068C44.5205 19.7504 41.1976 18.4318 37.708 18.1079L37.6623 17.513L37.5707 17.4215C37.4332 17.2841 37.2501 17.1469 37.2041 16.8266C37.1583 16.0942 37.2501 15.2703 37.3417 14.355V14.3093C37.3417 14.1719 37.3874 13.989 37.4332 13.8515C37.4789 13.5772 37.5247 13.3023 37.5707 12.982V12.5702C37.5707 11.7463 36.9292 11.0599 36.1507 11.0599C35.7841 11.0599 35.4177 11.2428 35.1429 11.5174C34.8683 11.7921 34.7307 12.1581 34.7307 12.5702V12.9362C34.7307 13.2566 34.7765 13.5312 34.868 13.8058C34.9138 13.9433 34.9138 14.0804 34.9596 14.2636V14.3093C35.0511 15.2246 35.1886 16.0484 35.0971 16.7808C35.0514 17.1012 34.868 17.2383 34.7307 17.3758L34.6392 17.4672L34.5932 18.0622C33.7686 18.1536 32.9441 18.2451 32.1196 18.4282C28.5926 19.2064 25.4777 20.9915 23.0501 23.5542L22.592 23.2339H22.5004C22.4089 23.2339 22.3171 23.2796 22.2256 23.2796C22.088 23.2796 21.9507 23.2339 21.8132 23.1424C21.2177 22.7306 20.6223 22.1354 19.9811 21.449C19.8895 21.3576 19.798 21.2201 19.6604 21.1287C19.4771 20.8998 19.2938 20.7166 19.0647 20.488C19.0189 20.442 18.9274 20.3966 18.8359 20.3048C18.7901 20.2591 18.7444 20.2591 18.7444 20.2134C18.4606 19.9791 18.1046 19.8497 17.7365 19.847C17.3241 19.847 16.912 20.0302 16.6829 20.3506C16.2247 20.9455 16.3623 21.8608 17.0035 22.41C17.0492 22.41 17.0492 22.456 17.095 22.456C17.1865 22.5017 17.2326 22.5932 17.3241 22.6389C17.5989 22.8218 17.828 22.9592 18.1029 23.0967C18.2404 23.1424 18.3777 23.2339 18.5153 23.3256C19.3396 23.8288 20.0268 24.2409 20.5765 24.7444C20.8056 24.973 20.8056 25.2019 20.8056 25.4308V25.5222L21.2635 25.9343C21.172 26.0715 21.0804 26.1632 21.0344 26.3003C18.7441 29.9161 17.8738 34.1724 18.4692 38.3831L17.8738 38.566C17.8738 38.612 17.828 38.612 17.828 38.6574C17.7365 38.8406 17.5989 39.0238 17.3241 39.1609C16.6371 39.3898 15.8126 39.4816 14.8507 39.573H14.8047C14.6674 39.573 14.4841 39.573 14.3468 39.6187C14.072 39.6187 13.7971 39.6645 13.4765 39.7102C13.385 39.7102 13.2935 39.7562 13.2017 39.7562C13.1559 39.7562 13.1101 39.7562 13.0641 39.8019C12.2396 39.9848 11.7356 40.7629 11.8732 41.495C12.0107 42.136 12.6062 42.548 13.3389 42.548C13.4765 42.548 13.568 42.548 13.7056 42.502C13.7514 42.502 13.7971 42.502 13.7971 42.4563C13.8886 42.4563 13.9802 42.4106 14.0717 42.4106C14.3926 42.3192 14.6217 42.2277 14.8965 42.0903C15.0338 42.0445 15.1711 41.9528 15.3086 41.9074H15.3544C16.2247 41.5868 17.0035 41.3121 17.7365 41.2207H17.828C18.1029 41.2207 18.2862 41.3579 18.4235 41.4496C18.4692 41.4496 18.4692 41.4953 18.515 41.4953L19.1565 41.4039C20.2559 44.7904 22.3629 47.8112 25.1571 50.0081C25.7983 50.5113 26.4396 50.9234 27.1268 51.3354L26.852 51.9301C26.852 51.9761 26.8977 51.9761 26.8977 52.0216C26.9892 52.2047 27.0808 52.4336 26.9892 52.754C26.7147 53.4406 26.3023 54.127 25.7983 54.9051V54.9509C25.7068 55.0883 25.6153 55.1798 25.5238 55.3169C25.3404 55.5458 25.2029 55.7747 25.0196 56.0493C24.9738 56.095 24.928 56.1865 24.8823 56.2782C24.8823 56.3239 24.8365 56.3697 24.8365 56.3697C24.4701 57.1478 24.745 58.0173 25.432 58.3377C25.615 58.4291 25.7983 58.4751 25.9817 58.4751C26.5314 58.4751 27.081 58.1088 27.3559 57.6053C27.3559 57.5596 27.4017 57.5138 27.4017 57.5138C27.4474 57.4224 27.4932 57.331 27.5389 57.285C27.6765 56.9646 27.7223 56.7357 27.8138 56.4611L27.9514 56.0493C28.272 55.134 28.501 54.4016 28.9132 53.761C29.0962 53.4864 29.3256 53.4406 29.5086 53.3489C29.5544 53.3489 29.5544 53.3489 29.6002 53.3032L29.921 52.7082C31.9365 53.4863 34.1353 53.8981 36.3338 53.8981C37.6623 53.8981 39.0365 53.761 40.3192 53.4406C41.1264 53.2603 41.9218 53.031 42.701 52.754L42.9756 53.2575C43.0217 53.2575 43.0217 53.2575 43.0674 53.3032C43.2965 53.3489 43.4795 53.4406 43.6629 53.7152C44.0292 54.3559 44.3041 55.134 44.6247 56.0036V56.0493L44.7623 56.4611C44.8538 56.7357 44.8996 57.0103 45.0368 57.285C45.0829 57.3764 45.1286 57.4224 45.1744 57.5138C45.1744 57.5596 45.2204 57.6053 45.2204 57.6053C45.495 58.1545 46.0447 58.4751 46.5944 58.4751C46.7777 58.4751 46.961 58.4291 47.1441 58.3377C47.4647 58.1548 47.7395 57.8799 47.8313 57.5138C47.9229 57.1478 47.9229 56.7357 47.7398 56.3697C47.7398 56.3239 47.6938 56.3239 47.6938 56.2782C47.648 56.1868 47.6023 56.0953 47.5565 56.0493C47.4189 55.7747 47.2359 55.5458 47.0526 55.3169C46.961 55.1798 46.8695 55.0883 46.778 54.9511V54.9051C46.2738 54.127 45.8156 53.4406 45.5868 52.754C45.4953 52.4336 45.5868 52.2507 45.6326 52.0218C45.6326 51.9761 45.6783 51.9761 45.6783 51.9304L45.4492 51.3812C47.8771 49.9624 49.9383 47.9483 51.4959 45.4771C52.3204 44.1955 52.9617 42.7767 53.4195 41.3579L53.9692 41.4493C54.0153 41.4493 54.0153 41.4036 54.0608 41.4036C54.2441 41.3121 54.3817 41.175 54.6565 41.175H54.748C55.481 41.2664 56.2595 41.5408 57.1301 41.8614H57.1759C57.3132 41.9071 57.4505 41.9985 57.588 42.0443C57.8629 42.1817 58.092 42.2732 58.4126 42.3649C58.5041 42.3649 58.5956 42.4106 58.6874 42.4106C58.7332 42.4106 58.7789 42.4106 58.8247 42.4563C58.9623 42.502 59.0538 42.502 59.1913 42.502C59.8783 42.502 60.4738 42.0445 60.6571 41.4496C60.6571 40.9004 60.1532 40.168 59.3286 39.9394V39.9391ZM38.1202 37.6964L36.1047 38.6577L34.0892 37.6964L33.5856 35.5455L34.9596 33.8064H37.2041L38.5783 35.5455L38.1204 37.6964H38.1202ZM50.0759 32.9368C50.4312 34.4502 50.5395 36.0111 50.3965 37.559L43.388 35.5455C42.7468 35.3626 42.3804 34.7217 42.5177 34.081C42.5635 33.8978 42.6553 33.7147 42.7926 33.5775L48.3353 28.5887C49.1138 29.8703 49.7092 31.3349 50.0759 32.9365V32.9368ZM46.1365 25.8428L40.1359 30.0992C39.632 30.4196 38.9447 30.3278 38.5326 29.8246C38.3953 29.6872 38.3495 29.504 38.3035 29.3211L37.8914 21.8608C41.0109 22.2197 43.9171 23.6232 46.1365 25.8428ZM32.8526 22.0894C33.3565 21.998 33.8144 21.9065 34.3183 21.8151L33.9062 29.1377C33.8604 29.7783 33.3565 30.3276 32.6692 30.3276C32.4862 30.3276 32.2571 30.2818 32.1196 30.1904L26.0274 25.8428C27.9056 23.9663 30.2417 22.6846 32.8526 22.0897V22.0894ZM23.8286 28.5884L29.2796 33.4398C29.7835 33.8518 29.8292 34.6297 29.4171 35.1332C29.2796 35.3161 29.0965 35.4535 28.8674 35.4995L21.7674 37.559C21.4926 34.4468 22.1796 31.2889 23.8286 28.5884ZM22.5917 40.9915L29.8753 39.7556C30.4707 39.7099 31.0204 40.122 31.1577 40.7169C31.2035 40.9913 31.2035 41.2204 31.112 41.4493L28.3177 48.177C25.7526 46.5293 23.6914 44.012 22.592 40.9915H22.5917ZM39.3114 50.0993C38.2577 50.3281 37.2041 50.4653 36.1047 50.4653C34.5017 50.4653 32.9441 50.191 31.4786 49.7332L35.0971 43.1884C35.4635 42.7764 36.0589 42.5935 36.5629 42.8681C36.7768 42.999 36.9634 43.1699 37.1126 43.3713L40.6395 49.7332C40.2274 49.8704 39.7692 49.9621 39.3111 50.0993H39.3114ZM48.2435 43.7377C47.0983 45.5683 45.5865 47.0328 43.8462 48.177L40.9604 41.2659C40.8229 40.7169 41.052 40.122 41.6017 39.8471C41.7847 39.7556 42.0138 39.7099 42.2429 39.7099L49.572 40.9458C49.2971 41.9525 48.8389 42.8681 48.2435 43.7377Z" fill="white"/>
</g>
<defs>
<clipPath id="clip0_31_6275">
<rect width="71" height="69" fill="white" transform="translate(0.467407 0.44165)"/>
</clipPath>
</defs>
</svg>
