<svg width="53" height="53" viewBox="0 0 53 53" fill="none" xmlns="http://www.w3.org/2000/svg">
<path d="M24.6414 0.514043C24.5297 0.524199 24.1738 0.559746 23.8535 0.585137C16.4678 1.25098 9.54958 5.23549 5.16797 11.3597C2.72803 14.7649 1.16762 18.6275 0.577944 22.7189C0.369537 24.1469 0.344147 24.5688 0.344147 26.5051C0.344147 28.4415 0.369537 28.8634 0.577944 30.2914C1.99109 40.0546 8.9396 48.2576 18.3636 51.2968C20.0514 51.8408 21.8303 52.2117 23.8535 52.4353C24.6414 52.5216 28.047 52.5216 28.8349 52.4353C32.327 52.049 35.2854 51.1851 38.2031 49.696C38.6503 49.4672 38.7369 49.4063 38.6757 49.3553C38.6351 49.3249 36.729 46.7685 34.4416 43.6784L30.2836 38.0624L25.0734 30.3525C22.2065 26.1137 19.848 22.6476 19.8277 22.6476C19.8074 22.6425 19.7871 26.0682 19.7769 30.2508C19.7615 37.5745 19.7566 37.8692 19.665 38.0421C19.533 38.2911 19.4312 38.3929 19.2177 38.5046C19.055 38.5858 18.9126 38.6011 18.1452 38.6011H17.2657L17.0321 38.4538C16.8873 38.363 16.7696 38.2348 16.6915 38.0827L16.5846 37.854L16.5948 27.664L16.61 17.4687L16.7676 17.2705C16.8489 17.1638 17.0218 17.0267 17.1438 16.9605C17.3522 16.8589 17.4335 16.8488 18.3128 16.8488C19.3498 16.8488 19.5226 16.8894 19.792 17.1841C19.8684 17.2654 22.6894 21.5144 26.0645 26.6323C29.4398 31.75 34.0554 38.7384 36.3223 42.169L40.4397 48.4049L40.6481 48.2678C42.4933 47.0683 44.4451 45.3607 45.9903 43.5817C49.2791 39.8056 51.3987 35.2011 52.1104 30.2916C52.3188 28.8634 52.3442 28.4415 52.3442 26.5054C52.3442 24.5688 52.3188 24.1471 52.1104 22.7189C50.6973 12.9557 43.7488 4.75266 34.3248 1.7135C32.6624 1.17481 30.8936 0.8037 28.9111 0.580059C28.4232 0.529277 25.0633 0.473418 24.6414 0.514043ZM35.2854 16.2388C35.5293 16.3607 35.7276 16.5947 35.7987 16.8386C35.8393 16.9706 35.8494 19.7965 35.8393 26.1647L35.8243 35.3027L34.2129 32.8327L32.5964 30.3627V23.7201C32.5964 19.4254 32.6167 17.0113 32.6472 16.8945C32.7284 16.6099 32.9066 16.3863 33.1505 16.254C33.3589 16.1474 33.4351 16.1372 34.2332 16.1372C34.9855 16.1372 35.1176 16.1474 35.2854 16.2388Z" fill="currentColor"/>
</svg>
