<svg width="59" height="60" viewBox="0 0 59 60" fill="none" xmlns="http://www.w3.org/2000/svg">
<g clip-path="url(#clip0_31_281)">
<path d="M58.2968 35.9287C57.9487 34.8721 57.0371 34.1362 55.858 33.9596C55.3021 33.8764 54.6654 33.9119 53.912 34.0676C52.5988 34.3391 51.6245 34.4426 50.9135 34.4625C53.5973 29.9205 55.7796 24.741 57.0359 19.8653C59.0674 11.9814 57.9818 8.38982 56.7133 6.76528C53.3561 2.46528 48.458 0.155279 42.5489 0.084597C39.3966 0.0459607 36.6293 0.669824 35.1857 1.11846C33.8416 0.880733 32.3965 0.748006 30.8801 0.723461C28.0375 0.678006 25.526 1.29914 23.38 2.57573C22.1919 2.17301 20.2851 1.60528 18.0831 1.24301C12.9041 0.390733 8.72991 1.05482 5.67673 3.21687C1.97963 5.8346 0.265764 10.3828 0.582736 16.7351C0.683405 18.7519 1.8089 24.8882 3.58104 30.7078C4.59953 34.0528 5.68557 36.8305 6.80903 38.9646C8.40228 41.9907 10.1071 43.7728 12.0209 44.4128C13.0936 44.771 15.0426 45.0219 17.0925 43.3105C17.3523 43.626 17.699 43.9394 18.159 44.2305C18.7433 44.5998 19.4578 44.9016 20.1713 45.0805C22.7427 45.7248 25.1512 45.5637 27.2061 44.6605C27.2188 45.0269 27.2285 45.3769 27.2367 45.6791C27.2503 46.1694 27.2639 46.6501 27.2818 47.0996C27.4036 50.1391 27.6099 52.5025 28.2212 54.1562C28.2547 54.2471 28.2999 54.3857 28.3475 54.5328C28.6524 55.4687 29.1623 57.0355 30.4597 58.2626C31.8031 59.5337 33.4281 59.9235 34.9164 59.9235C35.6628 59.9235 36.3749 59.8253 36.9996 59.6912C39.2261 59.2128 41.7548 58.4841 43.5841 55.8732C45.3136 53.405 46.1544 49.6875 46.3065 43.8301C46.3262 43.6644 46.3444 43.5062 46.3618 43.3555L46.3981 43.046L46.8055 43.0819L46.9105 43.0889C49.1783 43.1926 51.9512 42.7105 53.6542 41.9175C54.9999 41.2916 59.3121 39.0096 58.2968 35.9287Z" fill="black"/>
<path d="M54.4192 36.5277C47.6762 37.922 47.2125 35.6336 47.2125 35.6336C54.3319 25.0443 57.3082 11.6027 54.74 8.3129C47.7331 -0.66096 35.604 3.58313 35.4016 3.69313L35.3365 3.70495C34.0042 3.42768 32.5134 3.26268 30.8377 3.23518C27.7868 3.18518 25.4723 4.037 23.716 5.372C23.716 5.372 2.07894 -3.56301 3.0854 16.6093C3.29944 20.9006 9.22169 49.0804 16.2853 40.5688C18.8671 37.4563 21.3618 34.8247 21.3618 34.8247C22.6007 35.6497 24.084 36.0706 25.6389 35.9195L25.7598 35.8168C25.7221 36.2031 25.7394 36.5811 25.8081 37.0286C23.9883 39.0665 24.5232 39.4243 20.8855 40.175C17.2045 40.9354 19.3668 42.289 20.7787 42.6431C22.4903 43.072 26.4499 43.6797 29.1254 39.9254L29.0188 40.3538C29.7317 40.9263 30.2323 44.0772 30.1484 46.9338C30.0645 49.7902 30.0085 51.7513 30.5701 53.2831C31.1322 54.815 31.692 58.2615 36.4742 57.2345C40.4699 56.3761 42.5407 54.1518 42.8289 50.4413C43.0331 47.8036 43.4959 48.1936 43.5249 45.8352L43.8961 44.7188C44.3239 41.1431 43.9641 39.9895 46.4257 40.5261L47.0243 40.5788C48.8359 40.6613 51.2075 40.2865 52.5994 39.6381C55.5964 38.244 57.374 35.9161 54.4187 36.5277H54.4192Z" fill="#336791"/>
<path d="M24.9825 18.5285C24.3749 18.4437 23.8246 18.5221 23.5462 18.7335C23.3897 18.8523 23.3412 18.99 23.3281 19.0848C23.2931 19.336 23.4686 19.6137 23.5766 19.7569C23.8817 20.1623 24.3275 20.441 24.7687 20.5023C24.8327 20.5114 24.8964 20.5155 24.9596 20.5155C25.6954 20.5155 26.3645 19.9412 26.4234 19.5173C26.4971 18.9864 25.7283 18.6325 24.9825 18.5287" fill="white"/>
<path d="M45.1127 18.5452C45.0547 18.1291 44.316 18.0104 43.6149 18.1082C42.9148 18.2059 42.236 18.5227 42.2926 18.9397C42.338 19.2641 42.9223 19.8177 43.6138 19.8177C43.6723 19.8177 43.7313 19.8138 43.7907 19.8054C44.2523 19.7413 44.591 19.4475 44.752 19.2782C44.9969 19.02 45.1388 18.7322 45.1127 18.5452Z" fill="white"/>
<path d="M56.6629 36.3693C56.4058 35.59 55.5782 35.3393 54.2033 35.6238C50.121 36.4684 48.6591 35.8834 48.1791 35.5291C51.3522 30.6836 53.9626 24.8263 55.3708 19.3616C56.0378 16.7729 56.4063 14.3688 56.4364 12.4093C56.4698 10.2586 56.1043 8.67815 55.3506 7.7127C52.3119 3.82065 47.8521 1.73292 42.4536 1.67565C38.7422 1.63383 35.6065 2.58588 34.9987 2.85361C33.7185 2.53452 32.323 2.33861 30.8037 2.31361C28.0176 2.26838 25.6092 2.93702 23.6153 4.29997C22.7492 3.97679 20.5109 3.20656 17.7736 2.76452C13.0412 2.00088 9.28064 2.57952 6.59704 4.4852C3.3949 6.75929 1.9166 10.8243 2.20297 16.567C2.29933 18.4991 3.39762 24.4427 5.13076 30.1347C7.41214 37.6266 9.89214 41.8677 12.5014 42.7402C12.8068 42.8422 13.1589 42.9136 13.5473 42.9136C14.4991 42.9136 15.6661 42.4836 16.8803 41.0204C18.3612 39.2396 19.8931 37.5021 21.4741 35.81C22.4998 36.3618 23.6267 36.67 24.7792 36.7009C24.7814 36.7311 24.7844 36.7613 24.7871 36.7913C24.5887 37.0285 24.3944 37.269 24.2044 37.5129C23.4058 38.5291 23.2396 38.7407 20.6692 39.2711C19.938 39.4225 17.996 39.8236 17.9674 41.1882C17.9366 42.6791 20.2631 43.3052 20.5282 43.3716C21.4519 43.6034 22.3418 43.7177 23.1904 43.7177C25.2544 43.7177 27.0707 43.0377 28.5223 41.722C28.4776 47.037 28.6987 52.2743 29.3353 53.87C29.8568 55.1763 31.1306 58.3688 35.1542 58.3686C35.7446 58.3686 36.3944 58.2997 37.1093 58.1461C41.3086 57.2438 43.1322 55.3834 43.8376 51.2818C44.2151 49.0897 44.8629 43.8554 45.1676 41.0477C45.8106 41.2488 46.6384 41.3409 47.5333 41.3407C49.3998 41.3407 51.5535 40.9431 52.9042 40.3147C54.4215 39.6084 57.1595 37.8752 56.6629 36.3693ZM46.6627 17.3966C46.6488 18.2254 46.535 18.9779 46.4144 19.7634C46.2845 20.6082 46.1503 21.4816 46.1165 22.5418C46.0832 23.5736 46.2117 24.6463 46.336 25.6838C46.5872 27.7793 46.845 29.9366 45.8471 32.0652C45.6814 31.7708 45.5337 31.4665 45.405 31.1541C45.281 30.8527 45.0116 30.3686 44.6386 29.6986C43.1878 27.0904 39.7902 20.9827 41.5295 18.4904C42.0475 17.7486 43.3624 16.9859 46.6627 17.3966ZM42.6622 3.35406C47.4993 3.46111 51.3257 5.27497 54.0347 8.74497C56.1124 11.4066 53.8245 23.5172 47.2009 33.9652C47.1343 33.8803 47.0674 33.7957 47.0001 33.7113L46.9162 33.6063C48.6278 30.7729 48.2931 27.9695 47.9952 25.4841C47.8727 24.4641 47.7571 23.5007 47.7866 22.5957C47.817 21.6366 47.9435 20.8138 48.0659 20.0184C48.2163 19.0382 48.3693 18.0238 48.3271 16.8282C48.3586 16.7027 48.3713 16.5545 48.3548 16.3786C48.2471 15.232 46.9411 11.8004 44.2793 8.69452C42.8232 6.99565 40.6998 5.09452 37.8006 3.81224C39.0476 3.55315 40.7529 3.31156 42.6622 3.35406ZM15.5954 39.9495C14.2576 41.5618 13.3339 41.2527 13.0301 41.1513C11.0507 40.4895 8.75394 36.2959 6.729 29.6459C4.97681 23.8918 3.95289 18.1057 3.87172 16.4832C3.61596 11.3518 4.85687 7.77565 7.5602 5.85383C11.9597 2.72656 19.1929 4.59838 22.0994 5.5477C22.0577 5.58906 22.0142 5.6277 21.9729 5.66974C17.2034 10.4979 17.3165 18.747 17.3283 19.2513C17.3278 19.4459 17.3442 19.7213 17.3664 20.1002C17.4484 21.4877 17.6013 24.07 17.1931 26.9943C16.8141 29.7118 17.6498 32.3716 19.4856 34.2918C19.674 34.4885 19.8721 34.6757 20.079 34.8527C19.2619 35.73 17.4859 37.67 15.5954 39.9495ZM20.6921 33.1329C19.2124 31.5852 18.5404 29.4325 18.8481 27.2261C19.2789 24.137 19.1199 21.4466 19.0344 20.0011C19.0224 19.7988 19.0118 19.6216 19.0056 19.4818C19.7024 18.8625 22.9313 17.1284 25.234 17.6572C26.2847 17.8984 26.925 18.6157 27.1911 19.8493C28.5688 26.2363 27.3734 28.8984 26.413 31.0377C26.2151 31.4784 26.028 31.895 25.8684 32.3259L25.7446 32.6591C25.4312 33.5013 25.1397 34.2845 24.959 35.0282C23.3859 35.0236 21.8557 34.35 20.6921 33.1327V33.1329ZM20.9335 41.7466C20.4742 41.6316 20.0611 41.4318 19.8187 41.2661C20.0212 41.1707 20.3815 41.0407 21.0063 40.9116C24.0303 40.2877 24.4973 39.8472 25.5172 38.5493C25.7509 38.2516 26.016 37.9143 26.3831 37.5034L26.3835 37.5029C26.9302 36.8893 27.1803 36.9934 27.6337 37.182C28.0012 37.3343 28.3593 37.7961 28.5044 38.3043C28.5731 38.5443 28.6502 38.9997 28.3978 39.3543C26.2674 42.3443 23.163 42.3059 20.9335 41.7466ZM36.7592 56.5084C33.0599 57.3029 31.75 55.4109 30.8869 53.2479C30.3298 51.8516 30.0559 45.5547 30.2502 38.6009C30.2527 38.5084 30.2395 38.4191 30.2142 38.335C30.1914 38.1689 30.1569 38.0047 30.1108 37.8436C29.8219 36.8318 29.1179 35.9854 28.2733 35.6345C27.9378 35.4952 27.322 35.2395 26.5819 35.4293C26.7397 34.7775 27.0134 34.0413 27.3102 33.2443L27.4346 32.9091C27.5748 32.5311 27.7507 32.1395 27.9366 31.725C28.9417 29.4868 30.3182 26.4211 28.8243 19.4954C28.2647 16.9013 26.396 15.6345 23.5632 15.9288C21.865 16.105 20.3112 16.7918 19.5362 17.1857C19.3696 17.2702 19.2172 17.352 19.0748 17.4316C19.2911 14.8179 20.1082 9.93338 23.165 6.84293C25.0898 4.89747 27.653 3.93656 30.776 3.98838C36.9295 4.08929 40.8756 7.25474 43.1025 9.8927C45.0216 12.1657 46.0607 14.4554 46.4754 15.6904C43.3567 15.3725 41.2356 15.9895 40.1605 17.5304C37.8213 20.8822 41.4401 27.3877 43.1794 30.5143C43.4984 31.0872 43.7737 31.5825 43.8603 31.7929C44.4266 33.1688 45.1599 34.0875 45.6952 34.7579C45.8594 34.9634 46.0185 35.1627 46.1396 35.3368C45.195 35.6097 43.4984 36.2404 43.653 39.3929C43.5283 40.9747 42.6416 48.3807 42.1911 50.9972C41.5963 54.4541 40.3273 55.7416 36.7592 56.5086V56.5084ZM52.2006 38.7957C51.2347 39.245 49.6184 39.582 48.0829 39.6545C46.387 39.7341 45.5236 39.4641 45.3204 39.2979C45.2252 37.3334 45.9546 37.1282 46.7266 36.9109C46.8479 36.8768 46.9663 36.8434 47.0805 36.8034C47.1515 36.8613 47.2293 36.9188 47.3145 36.9752C48.6777 37.877 51.1089 37.9743 54.5414 37.2641L54.579 37.2566C54.1161 37.6904 53.3238 38.2727 52.2006 38.7957Z" fill="white"/>
</g>
<defs>
<clipPath id="clip0_31_281">
<rect width="58.0435" height="60" fill="white" transform="translate(0.47821)"/>
</clipPath>
</defs>
</svg>
