<svg width="59" height="52" viewBox="0 0 59 52" fill="none" xmlns="http://www.w3.org/2000/svg">
<g clip-path="url(#clip0_31_224)">
<path d="M29.4999 30.9772C32.2776 30.9772 34.5294 28.7254 34.5294 25.9477C34.5294 23.17 32.2776 20.9183 29.4999 20.9183C26.7222 20.9183 24.4704 23.17 24.4704 25.9477C24.4704 28.7254 26.7222 30.9772 29.4999 30.9772Z" fill="#00D8FF"/>
<path d="M29.4999 37.4793C23.4548 37.6255 17.4248 36.8107 11.6353 35.0652C8.96085 34.2174 6.46647 32.8818 4.27818 31.1261C3.44315 30.5263 2.74776 29.7529 2.23973 28.8591C1.73169 27.9653 1.42304 26.9721 1.33495 25.9478C1.33495 22.6223 4.98834 19.3632 11.1082 17.2307C17.0525 15.3411 23.2632 14.4254 29.4999 14.5188C35.6534 14.4329 41.7809 15.3321 47.6502 17.1824C50.2259 18.0035 52.6357 19.2745 54.7679 20.9364C55.5887 21.5082 56.2736 22.2536 56.7742 23.1196C57.2749 23.9856 57.5789 24.9511 57.6649 25.9478C57.6649 29.404 53.5809 32.9065 47.0024 35.0833C41.325 36.7719 35.4223 37.58 29.4999 37.4793V37.4793ZM29.4999 16.9249C23.5332 16.8452 17.5918 17.7158 11.8988 19.504C6.26583 21.4695 3.74104 24.1573 3.74104 25.9417C3.74104 27.8087 6.45493 30.7439 12.4138 32.7818C17.9524 34.4432 23.7193 35.2166 29.4999 35.0732C35.1659 35.1745 40.814 34.4079 46.248 32.7999C52.4342 30.7499 55.2507 27.8107 55.2507 25.9478C55.1492 25.3085 54.9162 24.6972 54.5665 24.1525C54.2168 23.6078 53.7579 23.1416 53.2188 22.7832C51.3112 21.3089 49.1584 20.1825 46.8596 19.4557C41.2447 17.6929 35.3843 16.8386 29.4999 16.9249V16.9249Z" fill="#00D8FF"/>
<path d="M18.073 51.0327C17.1345 51.0542 16.2071 50.8265 15.3852 50.3728C12.5044 48.7111 11.5065 43.919 12.7156 37.5517C14.0487 31.4582 16.3585 25.6204 19.5557 20.2645C22.5547 14.8912 26.3941 10.0324 30.9283 5.87219C32.9263 4.05093 35.2312 2.5981 37.7361 1.58105C38.6422 1.15645 39.6305 0.93634 40.6311 0.93634C41.6317 0.93634 42.62 1.15645 43.526 1.58105C46.5216 3.30716 47.5134 8.59413 46.1152 15.3799C44.7409 21.1427 42.4911 26.6608 39.4441 31.7417C36.5507 37.0515 32.8322 41.868 28.4276 46.0113C26.3571 47.9039 23.9541 49.397 21.3401 50.4151C20.2936 50.8035 19.189 51.0123 18.073 51.0327V51.0327ZM21.6399 21.4595C18.5902 26.5882 16.3764 32.1696 15.0815 37.9943C13.9689 43.8587 15.0372 47.3853 16.5903 48.2826C18.1997 49.214 22.1066 48.3309 26.8504 44.1866C31.0551 40.2172 34.6043 35.6067 37.366 30.5266C40.2849 25.6692 42.4431 20.3935 43.7654 14.883C45.0812 8.49555 43.9445 4.58465 42.331 3.6552C41.7263 3.4235 41.0801 3.31978 40.4333 3.3506C39.7864 3.38142 39.153 3.5461 38.573 3.83425C36.3433 4.75433 34.2934 6.06055 32.5176 7.69285C28.1855 11.6778 24.5181 16.3293 21.6539 21.4715L21.6399 21.4595Z" fill="#00D8FF"/>
<path d="M40.3362 51.2868C37.6102 51.2868 34.1479 49.6372 30.5428 46.537C25.9292 42.339 22.0249 37.4224 18.9811 31.9777C15.8241 26.6955 13.5325 20.9422 12.1933 14.9359C11.6126 12.2934 11.5049 9.56888 11.8755 6.8888C11.9612 5.89459 12.2639 4.93128 12.7623 4.0668C13.2608 3.20232 13.9428 2.45772 14.7604 1.8855C17.7519 0.153354 22.8276 1.93378 28.008 6.53272C32.3144 10.6009 35.9714 15.3055 38.8515 20.4824C42.0066 25.6413 44.3221 31.2687 45.7117 37.1541C46.3174 39.8935 46.4109 42.7214 45.9873 45.4949C45.8865 46.5177 45.5657 47.5066 45.0469 48.3938C44.5281 49.2811 43.8236 50.0456 42.9817 50.635C42.1733 51.0831 41.2602 51.308 40.3362 51.2868V51.2868ZM21.0633 30.7667C23.9833 35.97 27.7128 40.6754 32.112 44.7063C36.6365 48.5991 40.2255 49.436 41.7686 48.5287C43.378 47.5932 44.5649 43.7748 43.3418 37.5967C42.0017 31.9776 39.7807 26.6061 36.7612 21.6814C34.0128 16.7267 30.5222 12.2218 26.4106 8.3232C21.5341 3.99385 17.5789 3.02618 15.9675 3.95965C15.4652 4.3678 15.053 4.87566 14.757 5.45116C14.4609 6.02665 14.2874 6.65728 14.2474 7.30323C13.9275 9.6934 14.0317 12.1213 14.5552 14.4752C15.8433 20.2192 18.0411 25.7203 21.0653 30.7707L21.0633 30.7667Z" fill="#00D8FF"/>
</g>
<defs>
<clipPath id="clip0_31_224">
<rect width="57.6885" height="51" fill="white" transform="translate(0.65564 0.500061)"/>
</clipPath>
</defs>
</svg>
