<svg width="67" height="60" viewBox="0 0 67 60" fill="none" xmlns="http://www.w3.org/2000/svg">
<g clip-path="url(#clip0_31_259)">
<path d="M33.4999 0L14.9332 1.97276L0.558762 21.3641L33.4999 59.9126L66.4411 21.3639L52.0669 1.97276L33.4999 0Z" fill="#FDB300"/>
<path d="M0.558762 21.3641L33.4999 59.9126L13.9015 21.3641H0.558762Z" fill="#EB6C00"/>
<path d="M53.0981 21.3641L33.4999 59.9126L66.4411 21.3641H53.0981Z" fill="#EB6C00"/>
<path d="M13.9015 21.3641L33.4999 59.9126L53.0984 21.3641H13.9015Z" fill="#FDAD00"/>
<path d="M14.9332 1.97276L13.9012 21.3641L33.4999 0L14.9332 1.97276Z" fill="#FDD231"/>
<path d="M53.0981 21.3641L52.0667 1.97276L33.4999 0L53.0981 21.3641Z" fill="#FDD231"/>
<path d="M53.0984 21.3642H66.4411L52.0669 1.97278L53.0984 21.3642Z" fill="#FDAD00"/>
<path d="M0.558762 21.3642H13.9015L14.9332 1.97278L0.558762 21.3642Z" fill="#FDAD00"/>
<path d="M33.4999 0L13.9015 21.3639H53.0984L33.4999 0Z" fill="#FEEEB7"/>
</g>
<defs>
<clipPath id="clip0_31_259">
<rect width="65.8824" height="60" fill="white" transform="translate(0.558762)"/>
</clipPath>
</defs>
</svg>
