<svg width="79" height="47" viewBox="0 0 79 47" fill="none" xmlns="http://www.w3.org/2000/svg">
<g clip-path="url(#clip0_31_237)">
<path d="M39.2034 0C28.7591 0 22.2311 5.22232 19.6201 15.6667C23.5368 10.4443 28.1061 8.48601 33.3284 9.79167C36.3078 10.5364 38.4375 12.6983 40.7949 15.0908C44.635 18.9888 49.0792 23.5 58.7868 23.5C69.2311 23.5 75.7591 18.2777 78.3701 7.83333C74.4534 13.0557 69.8841 15.014 64.6618 13.7083C61.6823 12.9636 59.5527 10.8017 57.1953 8.40921C53.3551 4.5112 48.9109 0 39.2034 0ZM19.6201 23.5C9.17574 23.5 2.64775 28.7223 0.0367432 39.1667C3.95341 33.9443 8.52275 31.986 13.7451 33.2917C16.7245 34.0364 18.8542 36.1983 21.2115 38.5908C25.0517 42.4888 29.4959 47 39.2034 47C49.6478 47 56.1758 41.7777 58.7868 31.3333C54.8701 36.5557 50.3008 38.514 45.0784 37.2083C42.099 36.4636 39.9693 34.3017 37.612 31.9092C33.7718 28.0112 29.3276 23.5 19.6201 23.5Z" fill="url(#paint0_linear_31_237)"/>
</g>
<defs>
<linearGradient id="paint0_linear_31_237" x1="-2.13936" y1="15.04" x2="65.5143" y2="54.0479" gradientUnits="userSpaceOnUse">
<stop stop-color="#2298BD"/>
<stop offset="1" stop-color="#0ED7B5"/>
</linearGradient>
<clipPath id="clip0_31_237">
<rect width="79" height="47" fill="white"/>
</clipPath>
</defs>
</svg>
