<svg width="400" height="225" viewBox="0 0 400 225" fill="none" xmlns="http://www.w3.org/2000/svg">
<rect width="400" height="225" fill="black"/>
<path d="M230.312 70L239.219 96.0625H239.578L248.484 70H253.703L242.188 102H236.609L225.094 70H230.312ZM273.152 92.0469V78H277.84V102H273.246V97.8438H272.996C272.444 99.125 271.559 100.193 270.34 101.047C269.132 101.891 267.626 102.313 265.824 102.313C264.283 102.313 262.918 101.974 261.73 101.297C260.553 100.609 259.626 99.5938 258.949 98.25C258.283 96.9062 257.949 95.2448 257.949 93.2656V78H262.621V92.7031C262.621 94.3385 263.074 95.6406 263.98 96.6094C264.887 97.5781 266.064 98.0625 267.512 98.0625C268.387 98.0625 269.257 97.8437 270.121 97.4062C270.996 96.9687 271.72 96.3073 272.293 95.4219C272.876 94.5365 273.163 93.4115 273.152 92.0469ZM294.461 102.484C292.096 102.484 290.06 101.979 288.352 100.969C286.654 99.9479 285.341 98.5156 284.414 96.6719C283.497 94.8177 283.039 92.6458 283.039 90.1562C283.039 87.6979 283.497 85.5312 284.414 83.6562C285.341 81.7812 286.633 80.3177 288.289 79.2656C289.956 78.2135 291.904 77.6875 294.133 77.6875C295.487 77.6875 296.799 77.9115 298.07 78.3594C299.341 78.8073 300.482 79.5104 301.492 80.4687C302.503 81.4271 303.299 82.6719 303.883 84.2031C304.466 85.724 304.758 87.5729 304.758 89.75V91.4062H285.68V87.9062H300.18C300.18 86.6771 299.93 85.5885 299.43 84.6406C298.93 83.6823 298.227 82.9271 297.32 82.375C296.424 81.8229 295.372 81.5469 294.164 81.5469C292.852 81.5469 291.706 81.8698 290.727 82.5156C289.758 83.151 289.008 83.9844 288.477 85.0156C287.956 86.0365 287.695 87.1458 287.695 88.3438V91.0781C287.695 92.6823 287.977 94.0469 288.539 95.1719C289.112 96.2969 289.909 97.1562 290.93 97.75C291.951 98.3333 293.143 98.625 294.508 98.625C295.393 98.625 296.201 98.5 296.93 98.25C297.659 97.9896 298.289 97.6042 298.82 97.0937C299.352 96.5833 299.758 95.9531 300.039 95.2031L304.461 96C304.107 97.3021 303.471 98.4427 302.555 99.4219C301.648 100.391 300.508 101.146 299.133 101.687C297.768 102.219 296.211 102.484 294.461 102.484Z" fill="#49D596"/>
<path d="M177.737 145.766H173.382C173.303 145.202 173.14 144.702 172.895 144.264C172.65 143.82 172.335 143.442 171.95 143.131C171.566 142.819 171.122 142.58 170.618 142.415C170.121 142.249 169.58 142.166 168.997 142.166C167.943 142.166 167.025 142.428 166.243 142.952C165.461 143.469 164.854 144.224 164.423 145.219C163.992 146.206 163.777 147.406 163.777 148.818C163.777 150.27 163.992 151.49 164.423 152.477C164.861 153.465 165.471 154.211 166.253 154.714C167.035 155.218 167.94 155.47 168.967 155.47C169.544 155.47 170.078 155.394 170.568 155.241C171.065 155.089 171.506 154.867 171.891 154.575C172.275 154.277 172.593 153.916 172.845 153.491C173.104 153.067 173.283 152.583 173.382 152.04L177.737 152.06C177.625 152.994 177.343 153.896 176.892 154.764C176.448 155.626 175.848 156.398 175.092 157.081C174.343 157.757 173.448 158.294 172.408 158.692C171.374 159.083 170.204 159.278 168.898 159.278C167.081 159.278 165.457 158.867 164.026 158.045C162.6 157.223 161.473 156.034 160.645 154.476C159.823 152.918 159.412 151.032 159.412 148.818C159.412 146.598 159.83 144.708 160.665 143.151C161.5 141.593 162.634 140.406 164.065 139.591C165.497 138.769 167.108 138.358 168.898 138.358C170.078 138.358 171.171 138.524 172.179 138.855C173.193 139.187 174.091 139.67 174.874 140.307C175.656 140.937 176.292 141.709 176.783 142.624C177.28 143.538 177.598 144.586 177.737 145.766ZM190.539 152.497V143.727H194.775V159H190.708V156.226H190.549C190.204 157.121 189.631 157.84 188.829 158.384C188.033 158.927 187.062 159.199 185.915 159.199C184.895 159.199 183.996 158.967 183.221 158.503C182.445 158.039 181.839 157.379 181.401 156.524C180.97 155.669 180.752 154.645 180.745 153.452V143.727H184.981V152.696C184.987 153.598 185.229 154.31 185.707 154.834C186.184 155.357 186.824 155.619 187.626 155.619C188.136 155.619 188.613 155.503 189.058 155.271C189.502 155.033 189.86 154.681 190.131 154.217C190.41 153.753 190.546 153.18 190.539 152.497ZM210.87 148.082L206.993 148.321C206.926 147.99 206.784 147.691 206.565 147.426C206.346 147.154 206.058 146.939 205.7 146.78C205.349 146.614 204.928 146.531 204.437 146.531C203.781 146.531 203.227 146.67 202.777 146.949C202.326 147.221 202.1 147.585 202.1 148.043C202.1 148.407 202.246 148.715 202.538 148.967C202.83 149.219 203.33 149.421 204.039 149.574L206.804 150.131C208.288 150.436 209.395 150.926 210.125 151.602C210.854 152.278 211.218 153.167 211.218 154.267C211.218 155.268 210.923 156.146 210.333 156.902C209.75 157.658 208.948 158.248 207.927 158.672C206.913 159.089 205.743 159.298 204.417 159.298C202.395 159.298 200.785 158.877 199.585 158.036C198.392 157.187 197.692 156.034 197.487 154.575L201.653 154.357C201.779 154.973 202.084 155.444 202.568 155.768C203.052 156.087 203.672 156.246 204.427 156.246C205.17 156.246 205.766 156.103 206.217 155.818C206.674 155.527 206.906 155.152 206.913 154.695C206.906 154.31 206.744 153.995 206.426 153.75C206.108 153.498 205.617 153.306 204.954 153.173L202.309 152.646C200.818 152.348 199.708 151.831 198.978 151.095C198.256 150.359 197.895 149.421 197.895 148.281C197.895 147.3 198.16 146.455 198.69 145.746C199.227 145.036 199.979 144.49 200.947 144.105C201.922 143.721 203.062 143.528 204.368 143.528C206.297 143.528 207.815 143.936 208.922 144.751C210.035 145.567 210.685 146.677 210.87 148.082ZM222.009 143.727V146.909H212.812V143.727H222.009ZM214.9 140.068H219.136V154.307C219.136 154.698 219.195 155.003 219.315 155.222C219.434 155.434 219.6 155.583 219.812 155.669C220.031 155.755 220.282 155.798 220.567 155.798C220.766 155.798 220.965 155.782 221.164 155.749C221.363 155.709 221.515 155.679 221.621 155.659L222.288 158.811C222.076 158.877 221.777 158.954 221.393 159.04C221.008 159.133 220.541 159.189 219.991 159.209C218.97 159.249 218.075 159.113 217.306 158.801C216.544 158.49 215.951 158.006 215.526 157.349C215.102 156.693 214.893 155.865 214.9 154.864V140.068ZM231.505 159.298C229.96 159.298 228.625 158.97 227.498 158.314C226.378 157.651 225.513 156.73 224.903 155.55C224.293 154.363 223.988 152.988 223.988 151.423C223.988 149.846 224.293 148.467 224.903 147.287C225.513 146.1 226.378 145.179 227.498 144.523C228.625 143.86 229.96 143.528 231.505 143.528C233.049 143.528 234.382 143.86 235.502 144.523C236.629 145.179 237.497 146.1 238.107 147.287C238.717 148.467 239.022 149.846 239.022 151.423C239.022 152.988 238.717 154.363 238.107 155.55C237.497 156.73 236.629 157.651 235.502 158.314C234.382 158.97 233.049 159.298 231.505 159.298ZM231.525 156.017C232.228 156.017 232.814 155.818 233.285 155.42C233.755 155.016 234.11 154.466 234.349 153.77C234.594 153.074 234.717 152.282 234.717 151.393C234.717 150.505 234.594 149.713 234.349 149.017C234.11 148.321 233.755 147.771 233.285 147.366C232.814 146.962 232.228 146.76 231.525 146.76C230.816 146.76 230.219 146.962 229.735 147.366C229.258 147.771 228.897 148.321 228.651 149.017C228.413 149.713 228.293 150.505 228.293 151.393C228.293 152.282 228.413 153.074 228.651 153.77C228.897 154.466 229.258 155.016 229.735 155.42C230.219 155.818 230.816 156.017 231.525 156.017ZM241.776 159V143.727H245.813V146.422H245.992C246.31 145.527 246.841 144.821 247.583 144.304C248.326 143.787 249.214 143.528 250.248 143.528C251.295 143.528 252.187 143.79 252.923 144.314C253.658 144.831 254.149 145.534 254.394 146.422H254.553C254.865 145.547 255.428 144.848 256.244 144.324C257.066 143.794 258.037 143.528 259.157 143.528C260.582 143.528 261.739 143.982 262.627 144.891C263.522 145.792 263.969 147.071 263.969 148.729V159H259.744V149.564C259.744 148.715 259.518 148.079 259.067 147.655C258.617 147.231 258.053 147.018 257.377 147.018C256.608 147.018 256.008 147.264 255.577 147.754C255.147 148.238 254.931 148.878 254.931 149.673V159H250.825V149.474C250.825 148.725 250.609 148.129 250.178 147.685C249.754 147.241 249.194 147.018 248.498 147.018C248.027 147.018 247.603 147.138 247.225 147.376C246.854 147.608 246.559 147.937 246.34 148.361C246.121 148.778 246.012 149.269 246.012 149.832V159H241.776ZM273.875 159V138.636H287.597V142.186H278.181V147.038H286.891V150.588H278.181V155.45H287.637V159H273.875ZM295.176 138.636V159H290.94V138.636H295.176ZM305.529 159.298C303.958 159.298 302.606 158.98 301.473 158.344C300.346 157.701 299.477 156.793 298.868 155.619C298.258 154.439 297.953 153.044 297.953 151.433C297.953 149.862 298.258 148.483 298.868 147.297C299.477 146.11 300.336 145.186 301.443 144.523C302.556 143.86 303.862 143.528 305.36 143.528C306.368 143.528 307.306 143.691 308.174 144.016C309.049 144.334 309.812 144.814 310.461 145.457C311.118 146.1 311.628 146.909 311.993 147.884C312.357 148.851 312.539 149.985 312.539 151.284V152.447H299.643V149.822H308.552C308.552 149.213 308.42 148.672 308.154 148.202C307.889 147.731 307.521 147.363 307.051 147.098C306.587 146.826 306.047 146.69 305.43 146.69C304.787 146.69 304.217 146.839 303.72 147.138C303.229 147.429 302.845 147.824 302.566 148.321C302.288 148.812 302.145 149.358 302.139 149.962V152.457C302.139 153.213 302.278 153.866 302.556 154.416C302.842 154.966 303.243 155.391 303.76 155.689C304.277 155.987 304.89 156.136 305.599 156.136C306.07 156.136 306.501 156.07 306.892 155.938C307.283 155.805 307.618 155.606 307.896 155.341C308.174 155.076 308.386 154.751 308.532 154.366L312.45 154.625C312.251 155.566 311.843 156.388 311.227 157.091C310.617 157.787 309.828 158.33 308.86 158.722C307.899 159.106 306.789 159.298 305.529 159.298ZM315.304 159V143.727H319.341V146.422H319.52C319.838 145.527 320.368 144.821 321.11 144.304C321.853 143.787 322.741 143.528 323.775 143.528C324.823 143.528 325.714 143.79 326.45 144.314C327.186 144.831 327.676 145.534 327.922 146.422H328.081C328.392 145.547 328.956 144.848 329.771 144.324C330.593 143.794 331.564 143.528 332.684 143.528C334.109 143.528 335.266 143.982 336.154 144.891C337.049 145.792 337.497 147.071 337.497 148.729V159H333.271V149.564C333.271 148.715 333.046 148.079 332.595 147.655C332.144 147.231 331.581 147.018 330.904 147.018C330.136 147.018 329.536 147.264 329.105 147.754C328.674 148.238 328.458 148.878 328.458 149.673V159H324.352V149.474C324.352 148.725 324.136 148.129 323.706 147.685C323.281 147.241 322.721 147.018 322.025 147.018C321.555 147.018 321.13 147.138 320.752 147.376C320.381 147.608 320.086 147.937 319.868 148.361C319.649 148.778 319.539 149.269 319.539 149.832V159H315.304ZM347.803 159.298C346.232 159.298 344.88 158.98 343.746 158.344C342.619 157.701 341.751 156.793 341.141 155.619C340.531 154.439 340.226 153.044 340.226 151.433C340.226 149.862 340.531 148.483 341.141 147.297C341.751 146.11 342.609 145.186 343.716 144.523C344.83 143.86 346.136 143.528 347.634 143.528C348.641 143.528 349.579 143.691 350.448 144.016C351.323 144.334 352.085 144.814 352.735 145.457C353.391 146.1 353.901 146.909 354.266 147.884C354.631 148.851 354.813 149.985 354.813 151.284V152.447H341.917V149.822H350.826C350.826 149.213 350.693 148.672 350.428 148.202C350.163 147.731 349.795 147.363 349.324 147.098C348.86 146.826 348.32 146.69 347.703 146.69C347.06 146.69 346.49 146.839 345.993 147.138C345.503 147.429 345.118 147.824 344.84 148.321C344.561 148.812 344.419 149.358 344.412 149.962V152.457C344.412 153.213 344.551 153.866 344.83 154.416C345.115 154.966 345.516 155.391 346.033 155.689C346.55 155.987 347.163 156.136 347.873 156.136C348.343 156.136 348.774 156.07 349.165 155.938C349.556 155.805 349.891 155.606 350.169 155.341C350.448 155.076 350.66 154.751 350.806 154.366L354.723 154.625C354.525 155.566 354.117 156.388 353.5 157.091C352.891 157.787 352.102 158.33 351.134 158.722C350.173 159.106 349.062 159.298 347.803 159.298ZM361.813 150.17V159H357.577V143.727H361.614V146.422H361.793C362.131 145.534 362.698 144.831 363.493 144.314C364.289 143.79 365.253 143.528 366.387 143.528C367.447 143.528 368.372 143.76 369.161 144.224C369.95 144.688 370.563 145.351 371 146.213C371.438 147.068 371.657 148.089 371.657 149.276V159H367.421V150.031C367.427 149.097 367.189 148.367 366.705 147.844C366.221 147.313 365.555 147.048 364.706 147.048C364.136 147.048 363.632 147.171 363.195 147.416C362.764 147.661 362.426 148.019 362.181 148.49C361.942 148.954 361.819 149.514 361.813 150.17ZM383.119 143.727V146.909H373.921V143.727H383.119ZM376.009 140.068H380.245V154.307C380.245 154.698 380.305 155.003 380.424 155.222C380.543 155.434 380.709 155.583 380.921 155.669C381.14 155.755 381.392 155.798 381.677 155.798C381.876 155.798 382.075 155.782 382.273 155.749C382.472 155.709 382.625 155.679 382.731 155.659L383.397 158.811C383.185 158.877 382.887 158.954 382.502 159.04C382.118 159.133 381.65 159.189 381.1 159.209C380.079 159.249 379.184 159.113 378.415 158.801C377.653 158.49 377.06 158.006 376.636 157.349C376.211 156.693 376.003 155.865 376.009 154.864V140.068Z" fill="white"/>
<g clip-path="url(#clip0_335_574)">
<path d="M130.315 48.0005L112.995 78.0222L95.6751 48.0005H37.9971L112.995 177.999L187.994 48.0005H130.315Z" fill="#41B883"/>
<path d="M130.315 48.0005L112.995 78.0222L95.6752 48.0005H67.9966L112.995 125.998L157.994 48.0005H130.315Z" fill="#34495E"/>
</g>
<defs>
<clipPath id="clip0_335_574">
<rect width="150" height="130" fill="white" transform="translate(38 48)"/>
</clipPath>
</defs>
</svg>
