<svg width="400"
  height="225"
  viewBox="0 0 400 225"
  fill="none"
  xmlns="http://www.w3.org/2000/svg">
  <rect width="400"
    height="225"
    fill="black" />
  <path
    d="M232.312 70L241.219 96.0625H241.578L250.484 70H255.703L244.188 102H238.609L227.094 70H232.312ZM275.152 92.0469V78H279.84V102H275.246V97.8438H274.996C274.444 99.125 273.559 100.193 272.34 101.047C271.132 101.891 269.626 102.313 267.824 102.313C266.283 102.313 264.918 101.974 263.73 101.297C262.553 100.609 261.626 99.5938 260.949 98.25C260.283 96.9062 259.949 95.2448 259.949 93.2656V78H264.621V92.7031C264.621 94.3385 265.074 95.6406 265.98 96.6094C266.887 97.5781 268.064 98.0625 269.512 98.0625C270.387 98.0625 271.257 97.8437 272.121 97.4062C272.996 96.9687 273.72 96.3073 274.293 95.4219C274.876 94.5365 275.163 93.4115 275.152 92.0469ZM296.461 102.484C294.096 102.484 292.06 101.979 290.352 100.969C288.654 99.9479 287.341 98.5156 286.414 96.6719C285.497 94.8177 285.039 92.6458 285.039 90.1562C285.039 87.6979 285.497 85.5312 286.414 83.6562C287.341 81.7812 288.633 80.3177 290.289 79.2656C291.956 78.2135 293.904 77.6875 296.133 77.6875C297.487 77.6875 298.799 77.9115 300.07 78.3594C301.341 78.8073 302.482 79.5104 303.492 80.4687C304.503 81.4271 305.299 82.6719 305.883 84.2031C306.466 85.724 306.758 87.5729 306.758 89.75V91.4062H287.68V87.9062H302.18C302.18 86.6771 301.93 85.5885 301.43 84.6406C300.93 83.6823 300.227 82.9271 299.32 82.375C298.424 81.8229 297.372 81.5469 296.164 81.5469C294.852 81.5469 293.706 81.8698 292.727 82.5156C291.758 83.151 291.008 83.9844 290.477 85.0156C289.956 86.0365 289.695 87.1458 289.695 88.3438V91.0781C289.695 92.6823 289.977 94.0469 290.539 95.1719C291.112 96.2969 291.909 97.1562 292.93 97.75C293.951 98.3333 295.143 98.625 296.508 98.625C297.393 98.625 298.201 98.5 298.93 98.25C299.659 97.9896 300.289 97.6042 300.82 97.0937C301.352 96.5833 301.758 95.9531 302.039 95.2031L306.461 96C306.107 97.3021 305.471 98.4427 304.555 99.4219C303.648 100.391 302.508 101.146 301.133 101.687C299.768 102.219 298.211 102.484 296.461 102.484Z"
    fill="#49D596" />
  <path
    d="M187.449 138.636L192.371 154.108H192.56L197.491 138.636H202.264L195.244 159H189.696L182.666 138.636H187.449ZM214.43 152.497V143.727H218.665V159H214.599V156.226H214.44C214.095 157.121 213.522 157.84 212.719 158.384C211.924 158.927 210.953 159.199 209.806 159.199C208.785 159.199 207.887 158.967 207.112 158.503C206.336 158.039 205.729 157.379 205.292 156.524C204.861 155.669 204.642 154.645 204.636 153.452V143.727H208.871V152.696C208.878 153.598 209.12 154.31 209.597 154.834C210.075 155.357 210.714 155.619 211.516 155.619C212.027 155.619 212.504 155.503 212.948 155.271C213.392 155.033 213.75 154.681 214.022 154.217C214.3 153.753 214.436 153.18 214.43 152.497ZM229.014 159.298C227.443 159.298 226.091 158.98 224.957 158.344C223.83 157.701 222.962 156.793 222.352 155.619C221.742 154.439 221.437 153.044 221.437 151.433C221.437 149.862 221.742 148.483 222.352 147.297C222.962 146.11 223.82 145.186 224.927 144.523C226.041 143.86 227.347 143.528 228.845 143.528C229.852 143.528 230.79 143.691 231.659 144.016C232.534 144.334 233.296 144.814 233.946 145.457C234.602 146.1 235.112 146.909 235.477 147.884C235.842 148.851 236.024 149.985 236.024 151.284V152.447H223.127V149.822H232.037C232.037 149.213 231.904 148.672 231.639 148.202C231.374 147.731 231.006 147.363 230.535 147.098C230.071 146.826 229.531 146.69 228.914 146.69C228.271 146.69 227.701 146.839 227.204 147.138C226.714 147.429 226.329 147.824 226.051 148.321C225.772 148.812 225.63 149.358 225.623 149.962V152.457C225.623 153.213 225.762 153.866 226.041 154.416C226.326 154.966 226.727 155.391 227.244 155.689C227.761 155.987 228.374 156.136 229.083 156.136C229.554 156.136 229.985 156.07 230.376 155.938C230.767 155.805 231.102 155.606 231.38 155.341C231.659 155.076 231.871 154.751 232.017 154.366L235.934 154.625C235.735 155.566 235.328 156.388 234.711 157.091C234.101 157.787 233.313 158.33 232.345 158.722C231.384 159.106 230.273 159.298 229.014 159.298ZM245.348 159V138.636H249.653V155.45H258.384V159H245.348ZM261.155 159V143.727H265.391V159H261.155ZM263.283 141.759C262.653 141.759 262.113 141.55 261.662 141.132C261.218 140.708 260.996 140.201 260.996 139.611C260.996 139.027 261.218 138.527 261.662 138.109C262.113 137.685 262.653 137.473 263.283 137.473C263.913 137.473 264.45 137.685 264.894 138.109C265.345 138.527 265.57 139.027 265.57 139.611C265.57 140.201 265.345 140.708 264.894 141.132C264.45 141.55 263.913 141.759 263.283 141.759ZM268.864 159V138.636H273.099V146.293H273.229C273.414 145.882 273.683 145.464 274.034 145.04C274.392 144.609 274.856 144.251 275.426 143.966C276.003 143.674 276.719 143.528 277.574 143.528C278.688 143.528 279.715 143.82 280.656 144.403C281.598 144.98 282.35 145.852 282.913 147.018C283.477 148.179 283.759 149.634 283.759 151.384C283.759 153.087 283.483 154.526 282.933 155.699C282.39 156.866 281.647 157.75 280.706 158.354C279.771 158.95 278.724 159.249 277.564 159.249C276.742 159.249 276.043 159.113 275.466 158.841C274.896 158.569 274.429 158.228 274.064 157.817C273.699 157.399 273.421 156.978 273.229 156.554H273.04V159H268.864ZM273.01 151.364C273.01 152.272 273.136 153.064 273.388 153.74C273.64 154.416 274.004 154.943 274.482 155.321C274.959 155.692 275.539 155.878 276.222 155.878C276.911 155.878 277.494 155.689 277.972 155.311C278.449 154.927 278.81 154.396 279.055 153.72C279.307 153.037 279.433 152.252 279.433 151.364C279.433 150.482 279.311 149.706 279.065 149.037C278.82 148.367 278.459 147.844 277.982 147.466C277.504 147.088 276.918 146.899 276.222 146.899C275.532 146.899 274.949 147.081 274.472 147.446C274.001 147.811 273.64 148.328 273.388 148.997C273.136 149.667 273.01 150.455 273.01 151.364ZM286.585 159V143.727H290.691V146.392H290.85C291.129 145.444 291.596 144.728 292.252 144.244C292.909 143.754 293.664 143.509 294.52 143.509C294.732 143.509 294.96 143.522 295.206 143.548C295.451 143.575 295.666 143.611 295.852 143.658V147.416C295.653 147.357 295.378 147.304 295.027 147.257C294.675 147.211 294.354 147.188 294.062 147.188C293.439 147.188 292.882 147.323 292.392 147.595C291.908 147.86 291.523 148.232 291.238 148.709C290.96 149.186 290.821 149.736 290.821 150.359V159H286.585ZM301.96 159.288C300.985 159.288 300.117 159.119 299.354 158.781C298.592 158.437 297.989 157.929 297.545 157.26C297.107 156.584 296.888 155.742 296.888 154.734C296.888 153.886 297.044 153.173 297.356 152.597C297.667 152.02 298.092 151.556 298.629 151.205C299.165 150.853 299.775 150.588 300.458 150.409C301.147 150.23 301.87 150.104 302.626 150.031C303.514 149.938 304.23 149.852 304.773 149.773C305.317 149.687 305.711 149.561 305.957 149.395C306.202 149.229 306.325 148.984 306.325 148.659V148.599C306.325 147.97 306.126 147.482 305.728 147.138C305.337 146.793 304.78 146.621 304.058 146.621C303.295 146.621 302.689 146.79 302.238 147.128C301.787 147.459 301.489 147.877 301.343 148.381L297.425 148.062C297.624 147.134 298.015 146.332 298.599 145.656C299.182 144.973 299.934 144.45 300.856 144.085C301.784 143.714 302.858 143.528 304.077 143.528C304.926 143.528 305.738 143.628 306.513 143.827C307.296 144.026 307.988 144.334 308.592 144.751C309.201 145.169 309.682 145.706 310.033 146.362C310.385 147.012 310.56 147.791 310.56 148.699V159H306.543V156.882H306.424C306.179 157.359 305.851 157.78 305.44 158.145C305.029 158.503 304.535 158.785 303.958 158.99C303.381 159.189 302.715 159.288 301.96 159.288ZM303.173 156.365C303.796 156.365 304.346 156.242 304.823 155.997C305.3 155.745 305.675 155.407 305.947 154.983C306.219 154.559 306.354 154.078 306.354 153.541V151.92C306.222 152.007 306.04 152.086 305.808 152.159C305.582 152.225 305.327 152.288 305.042 152.348C304.757 152.401 304.472 152.451 304.187 152.497C303.902 152.537 303.643 152.573 303.411 152.607C302.914 152.679 302.48 152.795 302.109 152.955C301.737 153.114 301.449 153.329 301.244 153.601C301.038 153.866 300.935 154.197 300.935 154.595C300.935 155.172 301.144 155.613 301.562 155.918C301.986 156.216 302.523 156.365 303.173 156.365ZM313.847 159V143.727H317.953V146.392H318.112C318.391 145.444 318.858 144.728 319.514 144.244C320.17 143.754 320.926 143.509 321.781 143.509C321.993 143.509 322.222 143.522 322.467 143.548C322.713 143.575 322.928 143.611 323.114 143.658V147.416C322.915 147.357 322.64 147.304 322.288 147.257C321.937 147.211 321.616 147.188 321.324 147.188C320.701 147.188 320.144 147.323 319.653 147.595C319.17 147.86 318.785 148.232 318.5 148.709C318.222 149.186 318.082 149.736 318.082 150.359V159H313.847ZM325.304 159V143.727H329.539V159H325.304ZM327.431 141.759C326.802 141.759 326.261 141.55 325.811 141.132C325.367 140.708 325.145 140.201 325.145 139.611C325.145 139.027 325.367 138.527 325.811 138.109C326.261 137.685 326.802 137.473 327.431 137.473C328.061 137.473 328.598 137.685 329.042 138.109C329.493 138.527 329.718 139.027 329.718 139.611C329.718 140.201 329.493 140.708 329.042 141.132C328.598 141.55 328.061 141.759 327.431 141.759ZM339.893 159.298C338.322 159.298 336.969 158.98 335.836 158.344C334.709 157.701 333.841 156.793 333.231 155.619C332.621 154.439 332.316 153.044 332.316 151.433C332.316 149.862 332.621 148.483 333.231 147.297C333.841 146.11 334.699 145.186 335.806 144.523C336.92 143.86 338.226 143.528 339.724 143.528C340.731 143.528 341.669 143.691 342.538 144.016C343.413 144.334 344.175 144.814 344.825 145.457C345.481 146.1 345.991 146.909 346.356 147.884C346.72 148.851 346.903 149.985 346.903 151.284V152.447H334.006V149.822H342.915C342.915 149.213 342.783 148.672 342.518 148.202C342.253 147.731 341.885 147.363 341.414 147.098C340.95 146.826 340.41 146.69 339.793 146.69C339.15 146.69 338.58 146.839 338.083 147.138C337.593 147.429 337.208 147.824 336.93 148.321C336.651 148.812 336.509 149.358 336.502 149.962V152.457C336.502 153.213 336.641 153.866 336.92 154.416C337.205 154.966 337.606 155.391 338.123 155.689C338.64 155.987 339.253 156.136 339.962 156.136C340.433 156.136 340.864 156.07 341.255 155.938C341.646 155.805 341.981 155.606 342.259 155.341C342.538 155.076 342.75 154.751 342.896 154.366L346.813 154.625C346.614 155.566 346.207 156.388 345.59 157.091C344.98 157.787 344.192 158.33 343.224 158.722C342.263 159.106 341.152 159.298 339.893 159.298ZM362.374 148.082L358.496 148.321C358.43 147.99 358.288 147.691 358.069 147.426C357.85 147.154 357.562 146.939 357.204 146.78C356.853 146.614 356.432 146.531 355.941 146.531C355.285 146.531 354.731 146.67 354.281 146.949C353.83 147.221 353.604 147.585 353.604 148.043C353.604 148.407 353.75 148.715 354.042 148.967C354.334 149.219 354.834 149.421 355.543 149.574L358.308 150.131C359.792 150.436 360.899 150.926 361.629 151.602C362.358 152.278 362.722 153.167 362.722 154.267C362.722 155.268 362.427 156.146 361.837 156.902C361.254 157.658 360.452 158.248 359.431 158.672C358.417 159.089 357.247 159.298 355.921 159.298C353.899 159.298 352.289 158.877 351.089 158.036C349.896 157.187 349.196 156.034 348.991 154.575L353.157 154.357C353.283 154.973 353.588 155.444 354.072 155.768C354.556 156.087 355.175 156.246 355.931 156.246C356.674 156.246 357.27 156.103 357.721 155.818C358.178 155.527 358.41 155.152 358.417 154.695C358.41 154.31 358.248 153.995 357.93 153.75C357.612 153.498 357.121 153.306 356.458 153.173L353.813 152.646C352.322 152.348 351.211 151.831 350.482 151.095C349.76 150.359 349.398 149.421 349.398 148.281C349.398 147.3 349.664 146.455 350.194 145.746C350.731 145.036 351.483 144.49 352.451 144.105C353.425 143.721 354.566 143.528 355.871 143.528C357.8 143.528 359.318 143.936 360.425 144.751C361.539 145.567 362.189 146.677 362.374 148.082Z"
    fill="white" />
  <g>
    <path d="M130.315 48.0005L112.995 78.0222L95.6751 48.0005H37.9971L112.995 177.999L187.994 48.0005H130.315Z"
      fill="#41B883" />
    <path d="M130.315 48.0005L112.995 78.0222L95.6752 48.0005H67.9966L112.995 125.998L157.994 48.0005H130.315Z"
      fill="#34495E" />
  </g>
</svg>
