<svg width="146"
  height="146"
  viewBox="0 0 146 146"
  fill="none"
  xmlns="http://www.w3.org/2000/svg">
  <circle cx="73"
    cy="73"
    r="73"
    fill="currentColor"
    fill-opacity="0.64" />
  <path fill-rule="evenodd"
    clip-rule="evenodd"
    d="M75.8019 46.7642C81.9151 47.1462 87.6462 50.2028 91.849 54.4057C96.816 59.7547 99.4906 66.25 99.4906 73.8915C99.4906 80.0047 97.1981 85.7359 93.3773 90.7028C89.5566 95.2877 84.2075 98.7264 78.0943 99.8726C71.9811 101.019 65.8679 100.255 60.5189 97.1981C55.1698 94.1415 50.967 89.5566 48.6745 83.8255C46.3821 78.0943 46 71.5991 47.9104 65.8679C49.8207 59.7547 53.2594 54.7877 58.6085 51.3491C63.5755 47.9104 69.6887 46.3821 75.8019 46.7642ZM77.7123 96.0519C82.6792 94.9057 87.2641 92.2311 90.7028 88.0283C93.7594 83.8255 95.6698 78.8585 95.2877 73.5094C95.2877 67.3962 92.9953 61.283 88.7924 57.0802C84.9717 53.2594 80.3868 50.967 75.0377 50.5849C70.0707 50.2028 64.7217 51.3491 60.5189 54.4057C56.316 57.4623 53.2594 61.6651 51.7311 67.0142C50.2028 71.9811 50.2028 77.3302 52.4953 82.2972C54.7877 87.2642 58.2264 91.0849 62.8113 93.7594C67.3962 96.434 72.7453 97.1981 77.7123 96.0519V96.0519Z"
    fill="white" />
  <path fill-rule="evenodd"
    clip-rule="evenodd"
    d="M65.8679 62.0472L68.8366 60.4577L86.03 71.92V75.0989L68.8366 86.5611L65.8679 84.9717V62.0472ZM69.6887 65.6158V81.4031L81.5292 73.5094L69.6887 65.6158Z"
    fill="white" />
</svg>
