<svg width="31" height="30" viewBox="0 0 31 30" fill="none" xmlns="http://www.w3.org/2000/svg">
<g clip-path="url(#clip0_55_702)">
<path d="M13.1 4.68749C11.7518 4.68749 10.5044 5.12811 9.4784 5.87811C9.4118 4.80374 9.176 3.87186 8.7422 3.04686C10.1124 2.257 11.6567 1.85323 13.2226 1.87546C14.7885 1.89768 16.3217 2.34512 17.6707 3.17357C19.0197 4.00202 20.1379 5.1828 20.9147 6.59923C21.6915 8.01567 22.1001 9.61872 22.1 11.25H26.1518C27.8906 11.2481 29.3018 12.7181 29.3018 14.5294V24.8419C29.302 25.2731 29.2207 25.7001 29.0624 26.0985C28.9041 26.497 28.6719 26.859 28.3792 27.1639C28.0865 27.4688 27.7389 27.7107 27.3564 27.8756C26.9739 28.0405 26.564 28.1252 26.15 28.125H16.25C15.4146 28.125 14.6134 27.7793 14.0226 27.1639C13.4319 26.5486 13.1 25.714 13.1 24.8437V20.625C11.8479 20.6266 10.6093 20.3552 9.464 19.8281C9.4874 19.1906 9.5 18.5212 9.5 17.8125V17.6962C9.5 17.3831 9.5 17.0231 9.4946 16.6331C10.517 17.3756 11.759 17.8125 13.1 17.8125V14.5312C13.1 12.72 14.5112 11.25 16.25 11.25H19.4C19.4 9.5095 18.7363 7.8403 17.5548 6.6096C16.3733 5.37889 14.7709 4.68749 13.1 4.68749ZM21.6878 14.0625C21.2515 15.5023 20.4887 16.8114 19.4638 17.8789C18.4389 18.9465 17.1822 19.7412 15.8 20.1956V24.8437C15.8 25.1025 16.0016 25.3125 16.25 25.3125H26.15C26.2693 25.3125 26.3838 25.2631 26.4682 25.1752C26.5526 25.0873 26.6 24.9681 26.6 24.8437V14.5312C26.6 14.4069 26.5526 14.2877 26.4682 14.1998C26.3838 14.1119 26.2693 14.0625 26.15 14.0625H21.6878ZM18.7934 14.0625H16.25C16.1307 14.0625 16.0162 14.1119 15.9318 14.1998C15.8474 14.2877 15.8 14.4069 15.8 14.5312V17.1806C17.1119 16.5301 18.1689 15.4291 18.7934 14.0625ZM5.1458 0.234361C5.29521 0.370489 5.39722 0.55425 5.43596 0.75704C5.4747 0.95983 5.44799 1.17027 5.36 1.35561C5.34476 1.41047 5.33689 1.46726 5.3366 1.52436C5.3366 1.64249 5.3654 1.86749 5.6372 2.14874C5.7686 2.28561 5.8694 2.38311 5.9792 2.48999C6.0692 2.57624 6.1646 2.66624 6.2852 2.78999C6.5192 3.02249 6.7658 3.29624 6.9872 3.63936C7.4462 4.35749 7.7 5.25561 7.7 6.56249C7.7 8.16186 7.1312 9.52499 6.2438 10.3612L6.359 10.5C6.863 11.145 7.1564 11.9812 7.34 12.8062C7.7 14.4375 7.7 16.3987 7.7 17.7656V17.8125C7.7 23.0381 7.0178 26.0025 6.2672 27.6975C5.8892 28.5506 5.4878 29.0944 5.1404 29.4356C4.99916 29.5768 4.84342 29.7013 4.676 29.8069C4.59934 29.8549 4.51931 29.8969 4.4366 29.9325C4.4366 29.9325 4.2332 30 4.1 30C3.9668 30 3.7634 29.9325 3.7634 29.9325C3.67979 29.899 3.59959 29.8569 3.524 29.8069C3.35658 29.7013 3.20084 29.5768 3.0596 29.4356C2.7122 29.0925 2.3108 28.5506 1.9328 27.6975C1.1822 26.0025 0.5 23.0381 0.5 17.8125V17.7656C0.5 16.3969 0.5 14.4375 0.86 12.8062C1.0436 11.9812 1.337 11.145 1.841 10.5C1.877 10.4531 1.9166 10.4062 1.9562 10.3612C1.0688 9.52499 0.5 8.16186 0.5 6.56249C0.5 5.95124 0.6566 5.22186 0.8726 4.54874C1.0886 3.87374 1.391 3.17624 1.7402 2.61374C2.156 1.88249 2.741 1.26936 3.1946 0.856861C3.44328 0.629041 3.70281 0.414395 3.9722 0.213736L4.0514 0.157486C4.21645 0.0428798 4.41323 -0.011716 4.61114 0.00218614C4.80905 0.0160883 4.99701 0.0977092 5.1458 0.234361Z" fill="#19BCFE"/>
</g>
<defs>
<clipPath id="clip0_55_702">
<rect width="30" height="30" fill="white" transform="translate(0.5)"/>
</clipPath>
</defs>
</svg>
