<svg width="30"
  height="30"
  viewBox="0 0 30 30"
  fill="none"
  xmlns="http://www.w3.org/2000/svg">
  <path
    d="M20.5 8C21.163 8 21.7989 8.26339 22.2678 8.73223C22.7366 9.20107 23 9.83696 23 10.5V18.5C23 19.163 22.7366 19.7989 22.2678 20.2678C21.7989 20.7366 21.163 21 20.5 21H9.5C8.83696 21 8.20107 20.7366 7.73223 20.2678C7.26339 19.7989 7 19.163 7 18.5V10.5C7 9.83696 7.26339 9.20107 7.73223 8.73223C8.20107 8.26339 8.83696 8 9.5 8H20.5ZM22 11.961L15.254 15.931C15.1902 15.9684 15.1189 15.9913 15.0453 15.9978C14.9716 16.0044 14.8974 15.9946 14.828 15.969L14.746 15.931L8 11.963V18.5C8 18.8978 8.15804 19.2794 8.43934 19.5607C8.72064 19.842 9.10218 20 9.5 20H20.5C20.8978 20 21.2794 19.842 21.5607 19.5607C21.842 19.2794 22 18.8978 22 18.5V11.961ZM20.5 9H9.5C9.10218 9 8.72064 9.15804 8.43934 9.43934C8.15804 9.72064 8 10.1022 8 10.5V10.802L15 14.92L22 10.8V10.5C22 10.1022 21.842 9.72064 21.5607 9.43934C21.2794 9.15804 20.8978 9 20.5 9Z"
    fill="currentColor" />
</svg>
