<svg width="30" height="30" viewBox="0 0 30 30" fill="none" xmlns="http://www.w3.org/2000/svg">
<path d="M17.5 16.25H25C25.3315 16.25 25.6495 16.1183 25.8839 15.8839C26.1183 15.6495 26.25 15.3315 26.25 15V11.25C26.25 10.9185 26.1183 10.6005 25.8839 10.3661C25.6495 10.1317 25.3315 10 25 10H21.25L20 8.75H17.5C17.1685 8.75 16.8505 8.8817 16.6161 9.11612C16.3817 9.35054 16.25 9.66848 16.25 10V11.25H10V8.75H12.5C12.8315 8.75 13.1495 8.6183 13.3839 8.38388C13.6183 8.14946 13.75 7.83152 13.75 7.5V3.75C13.75 3.41848 13.6183 3.10054 13.3839 2.86612C13.1495 2.6317 12.8315 2.5 12.5 2.5H8.75L7.5 1.25H5C4.66848 1.25 4.35054 1.3817 4.11612 1.61612C3.8817 1.85054 3.75 2.16848 3.75 2.5V7.5C3.75 7.83152 3.8817 8.14946 4.11612 8.38388C4.35054 8.6183 4.66848 8.75 5 8.75H7.5V25H16.25V26.25C16.25 26.5815 16.3817 26.8995 16.6161 27.1339C16.8505 27.3683 17.1685 27.5 17.5 27.5H25C25.3315 27.5 25.6495 27.3683 25.8839 27.1339C26.1183 26.8995 26.25 26.5815 26.25 26.25V22.5C26.25 22.1685 26.1183 21.8505 25.8839 21.6161C25.6495 21.3817 25.3315 21.25 25 21.25H21.25L20 20H17.5C17.1685 20 16.8505 20.1317 16.6161 20.3661C16.3817 20.6005 16.25 20.9185 16.25 21.25V22.5H10V13.75H16.25V15C16.25 15.3315 16.3817 15.6495 16.6161 15.8839C16.8505 16.1183 17.1685 16.25 17.5 16.25Z" fill="#127A9D"/>
</svg>
