<svg width="34"
  height="34"
  viewBox="0 0 34 34"
  fill="none"
  xmlns="http://www.w3.org/2000/svg">
  <path
    d="M14.4217 24.0945C14.5917 24.0945 14.7206 24.0889 14.8056 24.0775C14.9053 24.0573 14.9952 24.0039 15.0606 23.9259C15.1456 23.8367 15.1881 23.7078 15.1881 23.5378L15.1824 22.7487C15.1782 22.2458 15.1767 21.8463 15.1767 21.553L14.9104 21.5998C14.6973 21.6333 14.4815 21.6466 14.2658 21.6394C13.9949 21.6347 13.7248 21.6076 13.4583 21.5587C13.1755 21.506 12.9094 21.3865 12.682 21.2102C12.4437 21.0299 12.2658 20.7814 12.172 20.4976L12.0558 20.2299C11.9581 20.019 11.8354 19.8207 11.6903 19.6391C11.5601 19.453 11.3865 19.3013 11.1846 19.1971L11.1038 19.1404C11.0482 19.0995 10.9978 19.0519 10.9537 18.9988C10.9108 18.9505 10.8755 18.8961 10.8488 18.8373C10.8262 18.7834 10.8446 18.7381 10.9055 18.7041C11.0124 18.6611 11.1277 18.6432 11.2427 18.6517L11.475 18.6871C11.6308 18.7169 11.8221 18.8104 12.0502 18.9648C12.2768 19.1206 12.4652 19.3204 12.6126 19.5683C12.7911 19.8856 13.005 20.1279 13.2572 20.2936C13.4797 20.4506 13.7442 20.5374 14.0165 20.5429C14.2715 20.5429 14.4925 20.5245 14.6781 20.4863C14.8587 20.4488 15.0342 20.3898 15.2008 20.3106C15.2702 19.7935 15.4587 19.394 15.7675 19.1164C15.3666 19.0767 14.9692 19.0066 14.5789 18.9067C14.1978 18.8017 13.8314 18.6494 13.4881 18.4534C13.1286 18.2583 12.8109 17.9946 12.5531 17.677C12.3066 17.3668 12.104 16.9616 11.9439 16.4587C11.777 15.8937 11.6972 15.3066 11.7073 14.7176C11.7073 13.7826 12.0133 12.985 12.6239 12.3277C12.3377 11.6236 12.3647 10.8345 12.7047 9.96045C12.9299 9.88962 13.2628 9.94203 13.7034 10.1163C14.144 10.2905 14.4684 10.4393 14.6724 10.5639C14.8778 10.6872 15.0407 10.7906 15.1654 10.8756C15.891 10.6741 16.6408 10.5731 17.3938 10.5753C18.1588 10.5753 18.9026 10.6744 19.6222 10.877L20.0614 10.5979C20.3646 10.4138 20.7202 10.2424 21.1296 10.0879C21.5404 9.93212 21.8535 9.88962 22.0702 9.96045C22.4187 10.8345 22.4499 11.6236 22.1623 12.3263C22.7743 12.985 23.0803 13.7812 23.0803 14.7176C23.0803 15.3749 23.001 15.9572 22.8423 16.4644C22.6837 16.9715 22.4782 17.3767 22.2275 17.6827C21.9654 17.9971 21.6463 18.2591 21.2868 18.4548C20.9436 18.6508 20.5771 18.8031 20.196 18.9081C19.8052 19.0077 19.4074 19.0773 19.006 19.1164C19.4083 19.4634 19.6095 20.0131 19.6095 20.7639V23.5364C19.6095 23.6681 19.6293 23.7744 19.6676 23.8565C19.6856 23.8957 19.7113 23.9308 19.7432 23.9597C19.7751 23.9887 19.8125 24.0109 19.8532 24.0251C19.9382 24.0549 20.0147 24.0747 20.0798 24.0818C20.1464 24.0903 20.2399 24.0945 20.3632 24.0945H14.4231H14.4217Z"
    fill="currentColor" />
</svg>
