<svg width="34"
  height="34"
  viewBox="0 0 34 34"
  fill="none"
  xmlns="http://www.w3.org/2000/svg">
  <path
    d="M24.0833 18.601V23.8384H21.0474V18.9509C21.0474 17.7241 20.6083 16.8869 19.5089 16.8869C18.6703 16.8869 18.1702 17.4507 17.9506 17.9975C17.8713 18.193 17.85 18.465 17.85 18.737V23.8384H14.8127C14.8127 23.8384 14.8538 15.5623 14.8127 14.7052H17.85V15.9986L17.8302 16.0284H17.85V16C18.2538 15.3767 18.9734 14.4899 20.587 14.4899C22.5845 14.4899 24.0833 15.796 24.0833 18.601ZM11.6351 10.3008C10.5967 10.3008 9.91667 10.9836 9.91667 11.8789C9.91667 12.7573 10.5768 13.4585 11.5954 13.4585H11.6153C12.6749 13.4585 13.3337 12.7559 13.3337 11.8789C13.3138 10.9836 12.6749 10.3008 11.6351 10.3008ZM10.0966 23.8384H13.1339V14.7052H10.0966V23.8384Z"
    fill="currentColor" />
</svg>
