<svg width="30"
  height="30"
  viewBox="0 0 30 30"
  fill="none"
  xmlns="http://www.w3.org/2000/svg">
  <path fill-rule="evenodd"
    clip-rule="evenodd"
    d="M4 4.24999V26.7499C4 27.3467 4.25963 27.9189 4.72177 28.3409C5.18392 28.7629 5.81072 28.9999 6.46429 28.9999H17.1429V26.3487C16.5165 26.0185 16.0269 25.5088 15.7501 24.8986C15.4733 24.2885 15.4248 23.612 15.612 22.9741C15.7992 22.3362 16.2117 21.7726 16.7855 21.3705C17.3593 20.9685 18.0624 20.7506 18.7857 20.7506C19.509 20.7506 20.2121 20.9685 20.7859 21.3705C21.3598 21.7726 21.7723 22.3362 21.9595 22.9741C22.1467 23.612 22.0981 24.2885 21.8213 24.8986C21.5445 25.5088 21.055 26.0185 20.4286 26.3487V28.9999H24.5357C25.1893 28.9999 25.8161 28.7629 26.2782 28.3409C26.7404 27.9189 27 27.3467 27 26.7499V4.24999C27 3.65326 26.7404 3.08096 26.2782 2.65901C25.8161 2.23705 25.1893 2 24.5357 2H6.46429C5.81072 2 5.18392 2.23705 4.72177 2.65901C4.25963 3.08096 4 3.65326 4 4.24999ZM18.7857 25.2499C19.2214 25.2499 19.6393 25.0919 19.9474 24.8106C20.2555 24.5293 20.4286 24.1477 20.4286 23.7499C20.4286 23.3521 20.2555 22.9706 19.9474 22.6893C19.6393 22.408 19.2214 22.2499 18.7857 22.2499C18.35 22.2499 17.9321 22.408 17.624 22.6893C17.3159 22.9706 17.1429 23.3521 17.1429 23.7499C17.1429 24.1477 17.3159 24.5293 17.624 24.8106C17.9321 25.0919 18.35 25.2499 18.7857 25.2499ZM10.5714 7.24998C10.5714 7.05107 10.658 6.86031 10.812 6.71965C10.9661 6.579 11.175 6.49998 11.3929 6.49998H19.6071C19.825 6.49998 20.0339 6.579 20.188 6.71965C20.342 6.86031 20.4286 7.05107 20.4286 7.24998C20.4286 7.44889 20.342 7.63966 20.188 7.78031C20.0339 7.92096 19.825 7.99998 19.6071 7.99998H11.3929C11.175 7.99998 10.9661 7.92096 10.812 7.78031C10.658 7.63966 10.5714 7.44889 10.5714 7.24998ZM8.10714 11C7.88929 11 7.68035 11.079 7.52631 11.2196C7.37226 11.3603 7.28571 11.5511 7.28571 11.75C7.28571 11.9489 7.37226 12.1396 7.52631 12.2803C7.68035 12.4209 7.88929 12.5 8.10714 12.5H22.8929C23.1107 12.5 23.3196 12.4209 23.4737 12.2803C23.6277 12.1396 23.7143 11.9489 23.7143 11.75C23.7143 11.5511 23.6277 11.3603 23.4737 11.2196C23.3196 11.079 23.1107 11 22.8929 11H8.10714ZM7.28571 14.75C7.28571 14.551 7.37226 14.3603 7.52631 14.2196C7.68035 14.079 7.88929 14 8.10714 14H22.8929C23.1107 14 23.3196 14.079 23.4737 14.2196C23.6277 14.3603 23.7143 14.551 23.7143 14.75C23.7143 14.9489 23.6277 15.1396 23.4737 15.2803C23.3196 15.4209 23.1107 15.5 22.8929 15.5H8.10714C7.88929 15.5 7.68035 15.4209 7.52631 15.2803C7.37226 15.1396 7.28571 14.9489 7.28571 14.75ZM8.10714 16.9999C7.88929 16.9999 7.68035 17.079 7.52631 17.2196C7.37226 17.3603 7.28571 17.551 7.28571 17.7499C7.28571 17.9489 7.37226 18.1396 7.52631 18.2803C7.68035 18.4209 7.88929 18.4999 8.10714 18.4999H22.8929C23.1107 18.4999 23.3196 18.4209 23.4737 18.2803C23.6277 18.1396 23.7143 17.9489 23.7143 17.7499C23.7143 17.551 23.6277 17.3603 23.4737 17.2196C23.3196 17.079 23.1107 16.9999 22.8929 16.9999H8.10714Z"
    fill="currentColor" />
</svg>
