<svg width="514" height="81" viewBox="0 0 514 81" fill="none" xmlns="http://www.w3.org/2000/svg">
<path d="M351.773 1.01904H357.486V16.7574H367.557V21.825H351.773" fill="#A480AB"/>
<path d="M369.407 1.01904H375.202V21.825H369.407V1.01904Z" fill="#A480AB"/>
<path d="M378.573 1.01904H395.179V6.04544H384.328V9.58864H394.152V14.3678H384.328V21.825H378.573" fill="#A480AB"/>
<path d="M397.357 1.01904H414.087V5.92184H403.071V9.05304H413.059V13.6262H403.071V16.9222H414.21V21.825H397.357" fill="#A480AB"/>
<path d="M350.293 40.118V40.0356C350.293 33.9792 354.979 29.2412 361.227 29.2412C365.502 29.2412 368.215 31.0128 370.065 33.5672L365.708 36.9456C364.557 35.4624 363.159 34.5148 361.186 34.5148C358.268 34.5148 356.212 36.9456 356.212 39.9944V40.0356C356.212 43.1668 358.268 45.5976 361.186 45.5976C363.365 45.5976 364.639 44.6088 365.872 43.0844L370.229 46.1744C368.256 48.8936 365.625 50.8712 361.022 50.8712C355.062 50.8712 350.293 46.3392 350.293 40.118Z" fill="#9836A5"/>
<path d="M371.996 29.6533H377.71V37.4401H385.108V29.6533H390.863V50.4593H385.108V42.5489H377.71V50.4593H371.996" fill="#9836A5"/>
<path fill-rule="evenodd" clip-rule="evenodd" d="M401.016 29.4883H406.565L415.402 50.4591H409.237L407.716 46.7511H399.7L398.221 50.4591H392.137L401.016 29.4883ZM406.03 42.2603L403.729 36.3275L401.386 42.2603H406.03Z" fill="#9836A5"/>
<path d="M416.718 29.6533H422.061L430.611 40.6537V29.6533H436.324V50.4593H431.269L422.39 39.0469V50.4593H416.718" fill="#9836A5"/>
<path d="M438.75 40.118V40.0356C438.75 33.9792 443.477 29.2412 449.93 29.2412C453.588 29.2412 456.178 30.3536 458.356 32.2488L454.986 36.3276C453.506 35.0916 452.026 34.3912 449.971 34.3912C446.97 34.3912 444.627 36.9044 444.627 40.0768V40.1592C444.627 43.4964 447.011 45.9272 450.3 45.9272C451.697 45.9272 452.766 45.5976 453.588 45.062V42.5076H449.519V38.3052H459.055V47.6576C456.876 49.4704 453.835 50.8712 450.053 50.8712C443.559 50.8712 438.75 46.4216 438.75 40.118V40.118Z" fill="#9836A5"/>
<path d="M462.097 29.6533H467.933V50.4593H462.097V29.6533Z" fill="#9836A5"/>
<path d="M471.263 29.6533H476.648L485.198 40.6537V29.6533H490.911V50.4593H485.855L476.977 39.0469V50.4593H471.263" fill="#9836A5"/>
<path d="M493.336 40.118V40.0356C493.336 33.9792 498.063 29.2412 504.516 29.2412C508.175 29.2412 510.764 30.3536 512.943 32.2488L509.572 36.3276C508.051 35.0916 506.613 34.3912 504.557 34.3912C501.557 34.3912 499.255 36.9044 499.255 40.0768V40.1592C499.255 43.4964 501.598 45.9272 504.886 45.9272C506.284 45.9272 507.353 45.5976 508.216 45.062V42.5076H504.105V38.3052H513.683V47.6576C511.463 49.4704 508.421 50.8712 504.64 50.8712C498.186 50.8712 493.336 46.4216 493.336 40.118V40.118Z" fill="#9836A5"/>
<path d="M351.773 58.2871H357.815L362.789 66.3623L367.721 58.2871H373.846V79.0931H368.091V67.1451L362.789 75.3027H362.666L357.404 67.2275V79.0931H351.773" fill="#A480AB"/>
<path d="M377.217 58.2871H393.905V63.1899H382.93V66.3623H392.878V70.8943H382.93V74.1903H394.07V79.0931H377.217" fill="#A480AB"/>
<path fill-rule="evenodd" clip-rule="evenodd" d="M396.864 58.2871H404.88C412.278 58.2871 416.594 62.5719 416.594 68.5871V68.6283C416.594 74.6435 412.237 79.0931 404.756 79.0931H396.864V58.2871ZM404.962 73.9843C408.415 73.9843 410.675 72.0891 410.675 68.7107V68.6695C410.675 65.3323 408.415 63.3959 404.962 63.3959H402.619V73.9843H404.962Z" fill="#A480AB"/>
<path d="M419.061 58.2871H424.856V79.0931H419.061V58.2871Z" fill="#A480AB"/>
<path d="M427.323 68.7518V68.7106C427.323 62.613 432.009 57.875 438.298 57.875C442.531 57.875 445.244 59.6466 447.094 62.201L442.778 65.5794C441.586 64.0962 440.229 63.1486 438.215 63.1486C435.297 63.1486 433.283 65.6206 433.283 68.6282V68.7106C433.283 71.8006 435.297 74.2726 438.215 74.2726C440.394 74.2726 441.668 73.2426 442.901 71.7182L447.258 74.8082C445.285 77.5274 442.655 79.505 438.051 79.505C432.132 79.505 427.323 74.973 427.323 68.7518V68.7518Z" fill="#A480AB"/>
<path d="M449.067 58.2871H454.863V79.0931H449.067V58.2871Z" fill="#A480AB"/>
<path d="M458.192 58.2871H463.577L472.126 69.2875V58.2871H477.84V79.0931H472.784L463.905 67.6807V79.0931H458.192" fill="#A480AB"/>
<path d="M481.21 58.2871H497.94V63.1899H486.924V66.3623H496.912V70.8943H486.924V74.1903H498.063V79.0931H481.21" fill="#A480AB"/>
<path fill-rule="evenodd" clip-rule="evenodd" d="M124.631 46.339C120.273 46.339 115.875 46.133 111.395 45.2678C111.395 62.6542 111.518 65.7442 111.642 68.999C111.847 73.4074 112.505 76.003 123.767 76.003C126.809 76.003 126.809 76.6622 126.809 77.8982C126.809 78.887 126.809 79.299 125.946 79.299C125.206 79.299 122.123 79.093 105.928 79.093C89.8563 79.093 89.4452 79.299 88.7053 79.299C87.8011 79.299 87.8011 78.887 87.8011 77.8982C87.8011 76.6622 87.8011 76.003 90.8839 76.003C99.5158 76.003 100.132 74.149 100.256 71.2238C100.461 65.7442 100.584 58.6166 100.584 53.9198V27.0574C100.584 19.3118 100.461 16.675 100.379 11.6486C100.256 5.18024 98.406 4.31504 90.555 4.31504H89.4452C78.9225 4.31504 76.744 4.31504 76.744 17.2106V43.1666C76.744 72.7482 57.9593 80.6174 45.2581 80.6174C20.7599 80.6174 13.8955 64.1786 13.8955 52.1482V27.0574C13.8955 19.3118 13.7722 16.675 13.69 11.6486C13.5667 5.18024 11.717 4.31504 2.2219 4.31504C0.988769 4.31504 0.98877 3.44984 0.98877 2.46104C0.98877 1.80184 1.2354 1.01904 1.97527 1.01904C2.87957 1.01904 12.3747 1.47224 19.2391 1.47224C26.2679 1.47224 35.763 1.01904 36.6262 1.01904C37.4072 1.01904 37.6127 1.80184 37.6127 2.46104C37.6127 3.44984 37.6127 4.31504 36.4207 4.31504C26.8845 4.31504 25.0348 5.18024 24.9526 11.6486C24.8293 16.675 24.706 19.3118 24.706 27.0574V46.8746C24.706 61.583 30.8305 74.355 49.2041 74.355C61.9876 74.355 73.0446 67.2687 73.0446 41.189V19.5178C73.0446 4.31504 69.8796 4.31504 58.617 4.31504C57.7127 4.31504 57.7127 3.65584 57.7127 2.66704C57.7127 1.34864 58.0415 1.01904 58.617 1.01904C60.4667 1.01904 67.5777 1.26624 74.6888 1.26624C78.0593 1.26624 87.3489 1.30744 88.8698 1.30744H90.3084C91.1716 1.30744 99.0636 1.26624 105.928 1.26624C106.956 1.26624 115.793 1.01904 121.465 1.01904C147.608 1.01904 150.321 18.1994 150.321 22.6902C150.321 38.3462 139.51 46.339 124.631 46.339V46.339ZM117.643 43.043C129.563 43.043 138.524 36.1626 138.524 23.5554C138.524 12.3078 131.289 4.31504 120.602 4.31504C112.299 4.31504 111.313 4.31504 111.395 13.379V38.8818C111.395 41.4362 112.094 43.043 117.643 43.043Z" fill="#9836A5"/>
<path d="M226.323 2.21384C226.652 1.34864 226.94 1.01904 227.638 1.01904C228.173 1.01904 236.147 1.47224 238.654 1.47224C240.504 1.47224 249.794 1.01904 250.574 1.01904C251.684 1.01904 251.767 1.88424 251.767 2.87304C251.767 3.86184 251.355 4.31504 250.451 4.31504C240.627 4.31504 239.435 5.05664 239.435 10.083C239.435 17.2106 240.627 40.2002 241.737 70.8942C241.819 74.6022 244.902 76.003 247.738 76.003C253.863 76.003 253.945 76.6622 253.945 77.445C253.945 79.093 253.411 79.299 252.753 79.299C251.767 79.299 250.574 79.093 235.366 79.093C221.185 79.093 220.527 79.299 219.664 79.299C218.431 79.299 218.431 78.5574 218.431 77.5686C218.431 76.7858 218.678 76.003 223.692 76.003C230.886 76.003 231.009 74.2726 231.009 69.9054C231.009 63.3134 229.365 27.9638 228.501 7.48744H228.296C220.281 27.9638 210.251 51.489 203.017 69.1226C198.865 79.2166 198.865 80.4114 197.468 80.4114C196.029 80.4114 195.824 79.4226 193.522 71.8418C191.097 63.9726 173.298 15.6038 172.846 15.6038C170.997 23.5966 163.803 59.935 163.803 70.8942C163.803 74.2726 165.653 76.003 169.27 76.003C171.983 76.003 175.148 76.2502 175.148 76.9094C175.148 78.9694 175.148 79.299 173.956 79.299C173.093 79.299 171.983 79.093 160.72 79.093C150.773 79.093 150.033 79.299 149.376 79.299C148.513 79.299 148.143 79.2166 148.143 77.445C148.143 76.3326 148.718 76.003 153.938 76.003C157.761 76.003 158.542 74.6022 159.734 68.3398C162.693 52.6014 165.324 36.6982 168.695 20.9598C169.805 16.0158 170.133 12.967 170.133 10.6598C170.133 10.0006 168.613 5.96304 167.297 5.18024C166.393 4.64464 161.255 4.31504 157.884 4.31504C156.569 4.31504 156.569 3.44984 156.569 2.66704C156.569 1.80184 156.816 1.01904 157.761 1.01904C159.857 1.01904 169.27 1.47224 170.462 1.47224C173.298 1.47224 177.902 1.01904 179.3 1.01904C180.533 1.01904 180.82 2.21384 181.93 6.16904C184.232 14.3678 200.057 58.7402 202.03 62.7778C210.251 43.4138 218.554 23.3494 226.323 2.21384V2.21384Z" fill="#9836A5"/>
<path d="M328.426 58.7403C329.083 58.7403 329.618 58.8227 329.618 60.0175C329.618 61.3359 328.097 72.1715 328.097 74.4787C328.097 75.4675 327.645 76.1267 326.576 76.4563C320.986 78.2279 312.025 80.6175 296.529 80.6175C267.098 80.6175 256.082 57.2159 256.082 42.5075C256.082 16.1395 275.648 0.0302734 296.529 0.0302734C315.108 0.0302734 318.273 4.19147 321.232 4.19147C323.164 4.19147 323.945 2.33747 325.466 2.33747C325.672 2.33747 326.247 2.54347 326.247 3.65587C326.247 10.3303 328.302 20.3007 328.302 21.1659C328.302 22.1547 326.987 22.6079 326.247 22.6079C325.918 22.6079 325.343 22.6079 325.055 21.7015C320.328 9.67107 313.464 2.87307 299.365 2.87307C285.8 2.87307 269.071 15.8099 269.071 42.0955C269.071 66.2799 286.335 77.7747 301.297 77.7747C309.6 77.7747 320.451 73.1603 326.658 59.6055C326.905 59.0699 327.316 58.7403 328.426 58.7403V58.7403Z" fill="#9836A5"/>
</svg>
