<svg width="61" height="60" viewBox="0 0 61 60" fill="none" xmlns="http://www.w3.org/2000/svg">
<g clip-path="url(#clip0_31_269)">
<path d="M26.8249 26.825C26.5749 26.05 26.3499 25.3 26.0999 24.525C25.8499 23.75 25.6249 23.025 25.4249 22.3C25.2249 21.6 25.0499 20.95 24.8749 20.35H24.8249C24.5999 21.425 24.3249 22.5 23.9749 23.575C23.5999 24.775 23.2249 26.025 22.8249 27.275C22.4749 28.55 22.0999 29.725 21.7249 30.775H28.0749C27.9249 30.2475 27.7249 29.625 27.4999 28.9725C27.2749 28.3 27.0499 27.575 26.8249 26.825ZM49.8749 0.75H11.1249C5.24994 0.75 0.499939 5.5 0.499939 11.375V48.625C0.499939 54.5 5.24994 59.25 11.1249 59.25H49.8749C55.7499 59.25 60.4999 54.5 60.4999 48.625V11.375C60.4999 5.5 55.7499 0.75 49.8749 0.75ZM37.2499 42.075H32.0224C31.8499 42.1 31.6749 41.975 31.6249 41.8L29.5749 35.85H20.2749L18.3749 41.725C18.3249 41.95 18.1249 42.1 17.8999 42.0775H13.1999C12.9249 42.0775 12.8499 41.925 12.9249 41.6275L20.9749 18.45C21.0499 18.2 21.1249 17.925 21.2249 17.625C21.3249 17.1 21.3749 16.55 21.3749 16C21.3499 15.875 21.4499 15.75 21.5749 15.725H28.0499C28.2499 15.725 28.3499 15.8 28.3749 15.925L37.4999 41.675C37.5749 41.9475 37.4999 42.075 37.2499 42.075ZM45.7499 41.7C45.7499 41.975 45.6524 42.1 45.4274 42.1H40.5249C40.2749 42.1 40.1499 41.9475 40.1499 41.7V22.45C40.1499 22.2 40.2524 22.1 40.4774 22.1H45.4274C45.6524 22.1 45.7499 22.225 45.7499 22.45V41.7ZM45.2274 19.125C44.9322 19.4248 44.5762 19.6581 44.1834 19.809C43.7906 19.9599 43.37 20.025 42.9499 20C42.1249 20.025 41.3249 19.7 40.7224 19.125C40.1497 18.4987 39.8446 17.6732 39.8724 16.825C39.8474 15.975 40.1724 15.175 40.7699 14.6C41.3749 14.025 42.1749 13.725 42.9999 13.725C43.9774 13.725 44.7224 14.025 45.2749 14.6C45.8249 15.2 46.1249 16 46.0999 16.825C46.1249 17.675 45.8249 18.5 45.2274 19.125Z" fill="#FDB300"/>
</g>
<defs>
<clipPath id="clip0_31_269">
<rect width="60" height="60" fill="white" transform="translate(0.499939)"/>
</clipPath>
</defs>
</svg>
