<svg width="55" height="60" viewBox="0 0 55 60" fill="none" xmlns="http://www.w3.org/2000/svg">
<g clip-path="url(#clip0_31_287)">
<path d="M27.4999 59.8888C26.6747 59.8888 25.9044 59.6687 25.1892 59.2836L17.8715 54.937C16.7711 54.3318 17.3213 54.1117 17.6514 54.0017C19.1369 53.5065 19.412 53.3965 20.9525 52.516C21.1177 52.406 21.3378 52.461 21.5026 52.571L27.1148 55.9273C27.3349 56.0373 27.61 56.0373 27.775 55.9273L49.728 43.2179C49.948 43.1078 50.0581 42.8878 50.0581 42.6127V17.2485C50.0581 16.9734 49.948 16.7533 49.728 16.6433L27.775 3.98867C27.5549 3.87864 27.2799 3.87864 27.1148 3.98867L5.16187 16.6435C4.9418 16.7535 4.83177 17.0286 4.83177 17.2487V42.6127C4.83177 42.8328 4.9418 43.1078 5.16187 43.2179L11.1592 46.684C14.4054 48.3345 16.4408 46.4089 16.4408 44.4833V19.4492C16.4408 19.1191 16.7161 18.7889 17.1012 18.7889H19.9073C20.2374 18.7889 20.5675 19.064 20.5675 19.4492V44.4831C20.5675 48.8297 18.2016 51.3604 14.0751 51.3604C12.8097 51.3604 11.8194 51.3604 9.0135 49.985L3.23626 46.684C1.80581 45.8585 0.925537 44.318 0.925537 42.6675V17.3037C0.925537 15.6532 1.80581 14.1127 3.23626 13.2872L25.1892 0.577804C26.5646 -0.192439 28.4352 -0.192439 29.8107 0.577804L51.7636 13.2872C53.194 14.1125 54.0743 15.653 54.0743 17.3037V42.6677C54.0743 44.3182 53.194 45.8587 51.7636 46.684L29.8107 59.3938C29.0954 59.7239 28.2702 59.889 27.4999 59.889V59.8888ZM34.2673 42.4474C24.6388 42.4474 22.6582 38.046 22.6582 34.3047C22.6582 33.9746 22.9333 33.6445 23.3184 33.6445H26.1793C26.5094 33.6445 26.7847 33.8645 26.7847 34.1946C27.2248 37.1105 28.4902 38.5412 34.3223 38.5412C38.9439 38.5412 40.9248 37.4959 40.9248 35.0201C40.9248 33.5894 40.3746 32.5441 33.1669 31.8287C27.1698 31.2235 23.4284 29.9031 23.4284 25.1166C23.4284 20.6597 27.1696 18.0189 33.442 18.0189C40.4844 18.0189 43.9507 20.4397 44.3909 25.7215C44.3909 25.8866 44.3358 26.0517 44.2258 26.2167C44.1158 26.3267 43.9507 26.4368 43.7857 26.4368H40.9248C40.6495 26.4368 40.3746 26.2167 40.3194 25.9416C39.6592 22.9157 37.9536 21.9254 33.442 21.9254C28.3804 21.9254 27.775 23.6859 27.775 25.0063C27.775 26.602 28.4902 27.097 35.3126 27.9773C42.0801 28.8575 45.2711 30.1231 45.2711 34.8548C45.2161 39.6966 41.2549 42.4474 34.2673 42.4474Z" fill="#539E43"/>
</g>
<defs>
<clipPath id="clip0_31_287">
<rect width="53.1488" height="60" fill="white" transform="translate(0.925537)"/>
</clipPath>
</defs>
</svg>
