<svg width="61" height="60" viewBox="0 0 61 60" fill="none" xmlns="http://www.w3.org/2000/svg">
<g clip-path="url(#clip0_31_271)">
<path d="M25.1249 21.05C24.1999 20.675 23.1999 20.525 22.1749 20.55C21.5249 20.55 20.9499 20.55 20.4749 20.575C19.9749 20.55 19.6249 20.575 19.4499 20.6V29C19.7999 29.025 20.1249 29.05 20.4249 29.05H21.7499C22.7249 29.05 23.6999 28.9 24.6249 28.6C25.4249 28.375 26.1249 27.9 26.6749 27.275C27.1999 26.65 27.4499 25.8 27.4499 24.7C27.4749 23.925 27.2749 23.15 26.8749 22.475C26.4581 21.8259 25.845 21.3267 25.1249 21.05ZM49.8749 0.75H11.1249C5.24994 0.75 0.499939 5.5 0.499939 11.375V48.6225C0.499939 54.4975 5.24994 59.2475 11.1249 59.2475H49.8749C55.7499 59.2475 60.4999 54.4975 60.4999 48.6225V11.375C60.4999 5.5 55.7499 0.75 49.8749 0.75ZM31.3974 29.875C30.3999 31.275 28.9999 32.325 27.3749 32.925C25.6749 33.55 23.7999 33.775 21.7499 33.775C21.1499 33.775 20.7499 33.775 20.4999 33.75C20.2499 33.725 19.8999 33.725 19.4249 33.725V41.7475C19.4499 41.9225 19.3249 42.075 19.1499 42.1H14.2999C14.0999 42.1 13.9999 41.9975 13.9999 41.7725V16.05C13.9999 15.875 14.0749 15.775 14.2499 15.775C14.6749 15.775 15.0749 15.775 15.6499 15.75C16.2499 15.725 16.8749 15.725 17.5499 15.7C18.2249 15.675 18.9499 15.675 19.7249 15.65C20.4999 15.625 21.2499 15.625 21.9999 15.625C24.0499 15.625 25.7499 15.875 27.1499 16.4C28.3999 16.825 29.5499 17.525 30.4999 18.45C31.2999 19.25 31.9249 20.225 32.3249 21.3C32.6974 22.35 32.8974 23.425 32.8974 24.55C32.8999 26.7 32.3999 28.475 31.3974 29.875ZM49.1249 39.6C48.4249 40.6 47.4474 41.3725 46.3249 41.8275C45.0999 42.35 43.5999 42.6225 41.7974 42.6225C40.6499 42.6225 39.5224 42.525 38.3999 42.3C37.5249 42.1475 36.6499 41.875 35.8499 41.5C35.6749 41.4025 35.5474 41.2275 35.5724 41.0275V36.6775C35.5724 36.605 35.5999 36.5025 35.6749 36.4525C35.7474 36.4025 35.8249 36.4275 35.8999 36.4775C36.8749 37.0525 37.8999 37.455 38.9999 37.7025C39.9474 37.9525 40.9474 38.0775 41.9499 38.0775C42.8999 38.0775 43.5749 37.95 44.0249 37.725C44.4249 37.55 44.6999 37.125 44.6999 36.675C44.6999 36.3225 44.4999 36 44.0999 35.675C43.6999 35.3525 42.8774 34.9775 41.6524 34.4975C40.3774 34.0475 39.2049 33.4475 38.1024 32.7C37.3202 32.1397 36.6706 31.4142 36.1999 30.575C35.8026 29.784 35.606 28.9074 35.6274 28.0225C35.6274 26.9475 35.9274 25.9225 36.4799 24.9975C37.1049 23.9975 38.0274 23.1975 39.1024 22.6975C40.2749 22.1 41.7499 21.825 43.5249 21.825C44.5499 21.825 45.5999 21.9 46.6249 22.05C47.3749 22.15 48.0999 22.35 48.7749 22.625C48.8724 22.65 48.9749 22.75 49.0249 22.85C49.0499 22.95 49.0749 23.05 49.0749 23.15V27.225C49.0749 27.325 49.0249 27.425 48.9499 27.475C48.7249 27.525 48.5999 27.525 48.4999 27.475C47.7499 27.075 46.9499 26.8 46.0999 26.625C45.1749 26.425 44.2499 26.3 43.2999 26.3C42.7999 26.275 42.2749 26.35 41.7974 26.475C41.4749 26.55 41.1974 26.725 41.0224 26.975C40.8974 27.175 40.8224 27.425 40.8224 27.65C40.8224 27.875 40.9224 28.1 41.0749 28.3C41.2999 28.575 41.5974 28.8 41.9249 28.975C42.4974 29.275 43.0999 29.55 43.6974 29.8C45.0499 30.25 46.3499 30.875 47.5499 31.625C48.3749 32.1475 49.0499 32.85 49.5224 33.7C49.9224 34.495 50.1224 35.375 50.0974 36.2725C50.1249 37.45 49.7749 38.6225 49.1249 39.6Z" fill="#25A4AD"/>
</g>
<defs>
<clipPath id="clip0_31_271">
<rect width="60" height="60" fill="white" transform="translate(0.499939)"/>
</clipPath>
</defs>
</svg>
