<svg width="53" height="53" viewBox="0 0 53 53" fill="none" xmlns="http://www.w3.org/2000/svg">
<g clip-path="url(#clip0_31_220)">
<path d="M0.499939 26.5V52.5H52.4999V0.5H0.499939V26.5Z" fill="#007ACC"/>
<path d="M11.999 26.6726L11.9826 28.802H18.7507V48.0339H23.5384V28.802H30.3065V26.7139C30.3065 25.5581 30.2817 24.5924 30.2488 24.5677C30.224 24.5347 26.1053 24.5181 21.1116 24.5264L12.024 24.5512L11.9992 26.6724L11.999 26.6726Z" fill="white"/>
<path d="M42.4588 24.4907C43.7794 24.821 44.7865 25.4068 45.7109 26.3644C46.1896 26.8762 46.8994 27.809 46.9572 28.0318C46.9735 28.0978 44.7121 29.6166 43.342 30.4667C43.2925 30.4998 43.0942 30.2851 42.8714 29.9548C42.2029 28.981 41.5013 28.5599 40.4282 28.4858C38.852 28.3783 37.8365 29.2038 37.8449 30.582C37.8449 30.9867 37.9026 31.226 38.0677 31.5562C38.4144 32.2743 39.0581 32.7035 41.0804 33.5783C44.8029 35.1798 46.3958 36.2362 47.3865 37.7383C48.4925 39.4141 48.7401 42.0883 47.9889 44.0775C47.1636 46.2399 45.1167 47.7093 42.2358 48.1962C41.3445 48.353 39.2316 48.3283 38.2741 48.155C36.1859 47.7835 34.2049 46.7518 32.9833 45.3982C32.5045 44.8699 31.5718 43.4915 31.6296 43.3923C31.6544 43.3594 31.8689 43.2274 32.1082 43.087C32.3394 42.955 33.2144 42.4513 34.0397 41.9727L35.5337 41.106L35.8473 41.5683C36.2849 42.2368 37.2422 43.153 37.8201 43.4583C39.479 44.3334 41.7573 44.2095 42.8797 43.2024C43.3585 42.7651 43.5565 42.3111 43.5565 41.6424C43.5565 41.0399 43.4822 40.7759 43.1686 40.3221C42.7643 39.7442 41.9388 39.2571 39.5946 38.2421C36.9121 37.0863 35.7565 36.3683 34.7001 35.2291C34.0893 34.569 33.5114 33.5123 33.2721 32.6291C33.0741 31.8946 33.0243 30.0539 33.1813 29.3111C33.7344 26.7192 35.6905 24.9118 38.5133 24.3752C39.4294 24.2019 41.559 24.2679 42.4588 24.4909V24.4907Z" fill="white"/>
</g>
<defs>
<clipPath id="clip0_31_220">
<rect width="52" height="52" fill="white" transform="translate(0.499939 0.5)"/>
</clipPath>
</defs>
</svg>
