<svg width="31"
  height="30"
  viewBox="0 0 31 30"
  fill="none"
  xmlns="http://www.w3.org/2000/svg">
  <path
    d="M15.5 2.8125C22.2355 2.8125 27.6875 8.26342 27.6875 15C27.6875 21.7355 22.2366 27.1875 15.5 27.1875C8.76447 27.1875 3.3125 21.7366 3.3125 15C3.3125 8.26447 8.76342 2.8125 15.5 2.8125ZM15.5 0.46875C7.47459 0.46875 0.96875 6.97459 0.96875 15C0.96875 23.0254 7.47459 29.5312 15.5 29.5312C23.5254 29.5312 30.0312 23.0254 30.0312 15C30.0312 6.97459 23.5254 0.46875 15.5 0.46875ZM15.5 3.75C9.28678 3.75 4.25 8.78678 4.25 15C4.25 21.2132 9.28678 26.25 15.5 26.25C21.7132 26.25 26.75 21.2132 26.75 15C26.75 8.78678 21.7132 3.75 15.5 3.75ZM15.5 6.32812C16.665 6.32812 17.6094 7.27254 17.6094 8.4375C17.6094 9.60246 16.665 10.5469 15.5 10.5469C14.335 10.5469 13.3906 9.60246 13.3906 8.4375C13.3906 7.27254 14.335 6.32812 15.5 6.32812ZM22.3989 12.0717C20.7165 12.4689 19.1463 12.8186 17.586 12.9979C17.6359 18.9172 18.3071 20.2079 19.053 22.1163C19.2649 22.6588 18.9969 23.2704 18.4544 23.4824C17.9117 23.6943 17.3001 23.4263 17.0882 22.8837C16.5781 21.5766 16.0871 20.5027 15.7838 18.2812H15.2163C14.9135 20.4991 14.4233 21.5747 13.9119 22.8837C13.7001 23.426 13.0886 23.6944 12.5458 23.4824C12.0032 23.2704 11.7352 22.6588 11.9471 22.1163C12.692 20.2096 13.3642 18.9205 13.4141 12.9979C11.8538 12.8187 10.2836 12.4689 8.60117 12.0717C8.09727 11.9527 7.7852 11.4478 7.9042 10.9438C8.0232 10.4398 8.52805 10.1278 9.03207 10.2468C14.6973 11.5845 16.3143 11.5818 21.9681 10.2468C22.472 10.1279 22.977 10.4398 23.096 10.9438C23.2149 11.4478 22.9028 11.9527 22.3989 12.0717Z"
    fill="currentColor" />

</svg>
