<svg width="31" height="30" viewBox="0 0 31 30" fill="none" xmlns="http://www.w3.org/2000/svg">
<g clip-path="url(#clip0_55_714)">
<path d="M1.75 23.75H29.25V1.25H1.75V23.75ZM6.75 28.75H24.25H6.75ZM10.5 28.75H20.5V23.75H10.5V28.75ZM10.1962 7.19625L12.8487 9.84875L10.1962 7.19625ZM11.75 12.5H8H11.75ZM12.8487 15.1513L10.1962 17.8038L12.8487 15.1513ZM15.5 16.25V20V16.25ZM18.1513 15.1513L20.8038 17.8038L18.1513 15.1513V15.1513ZM23 12.5H19.25H23ZM20.8038 7.19625L18.1513 9.84875L20.8038 7.19625ZM15.5 8.75V5V8.75ZM15.5 8.75C14.5054 8.75 13.5516 9.14509 12.8483 9.84835C12.1451 10.5516 11.75 11.5054 11.75 12.5C11.75 13.4946 12.1451 14.4484 12.8483 15.1517C13.5516 15.8549 14.5054 16.25 15.5 16.25C16.4946 16.25 17.4484 15.8549 18.1517 15.1517C18.8549 14.4484 19.25 13.4946 19.25 12.5C19.25 11.5054 18.8549 10.5516 18.1517 9.84835C17.4484 9.14509 16.4946 8.75 15.5 8.75Z" stroke="#E84C15" stroke-width="2"/>
</g>
<defs>
<clipPath id="clip0_55_714">
<rect width="30" height="30" fill="white" transform="translate(0.5)"/>
</clipPath>
</defs>
</svg>
