<svg width="360" height="222" viewBox="0 0 360 222" fill="none" xmlns="http://www.w3.org/2000/svg">
<path d="M259.027 0.782227L259.323 148.478C259.323 157.959 259.323 186.698 186.809 186.846H173.18C100.665 186.698 100.665 157.959 100.665 148.478L100.961 0.782227H0.966797L1.04087 170.625C1.04087 217.585 132.812 221.289 173.18 221.289H186.809C227.177 221.289 358.948 217.659 358.948 170.625L359.022 0.782227H259.027Z" fill="white"/>
<path d="M266.73 148.478V7.96729H351.54C351.54 7.96729 351.466 164.996 351.466 170.625C351.466 201.438 266.804 213.808 186.809 213.808C186.809 209.956 186.809 200.401 186.809 194.254C226.881 194.18 266.73 185.736 266.73 148.478Z" fill="#005030"/>
<path d="M93.258 148.478V7.96729H8.44775C8.44775 7.96729 8.52182 164.996 8.52182 170.625C8.52182 201.438 93.184 213.808 173.18 213.808C173.18 209.956 173.106 200.401 173.106 194.254C133.108 194.18 93.258 185.736 93.258 148.478Z" fill="#F05A00"/>
</svg>
